SplineFontDB: 3.0
FontName: Glegoo-Regular
FullName: Glegoo
FamilyName: Glegoo
Weight: Book
Copyright: Copyright (c) 2011, Eduardo Tunni (http://www.tipo.net.ar), Copyright 2011-13 Lohit Fonts Project contributors (http://fedorahosted.org/lohit)
Version: 2.0.1
ItalicAngle: 0
UnderlinePosition: 0
UnderlineWidth: 0
Ascent: 800
Descent: 200
LayerCount: 3
Layer: 0 1 "Back"  1
Layer: 1 1 "Fore"  0
Layer: 2 0 "Old_Fore"  0
XUID: [1021 184 -1251295923 7048771]
FSType: 0
OS2Version: 1
OS2_WeightWidthSlopeOnly: 0
OS2_UseTypoMetrics: 1
CreationTime: 1407107280
ModificationTime: 1407774865
PfmFamily: 81
TTFWeight: 400
TTFWidth: 5
LineGap: 0
VLineGap: 0
Panose: 0 0 0 0 0 0 0 0 0 0
OS2TypoAscent: 1267
OS2TypoAOffset: 0
OS2TypoDescent: -526
OS2TypoDOffset: 0
OS2TypoLinegap: 0
OS2WinAscent: 1267
OS2WinAOffset: 0
OS2WinDescent: -526
OS2WinDOffset: 0
HheadAscent: 1267
HheadAOffset: 0
HheadDescent: -526
HheadDOffset: 0
OS2SubXSize: 700
OS2SubYSize: 650
OS2SubXOff: 0
OS2SubYOff: 140
OS2SupXSize: 700
OS2SupYSize: 650
OS2SupXOff: 0
OS2SupYOff: 477
OS2StrikeYSize: 50
OS2StrikeYPos: 250
OS2Vendor: 'TIPO'
OS2CodePages: 20000093.00000000
OS2UnicodeRanges: a00080af.5000204b.00000000.00000000
Lookup: 4 0 0 "'haln' Halant Forms lookup 0"  {"'haln' Halant Forms lookup 0 subtable"  } ['haln' ('DFLT' <'dflt' > 'dev2' <'MAR ' 'NEP ' 'dflt' > 'deva' <'MAR ' 'NEP ' 'dflt' > ) ]
Lookup: 1 0 0 "'locl' Localized Forms lookup 1"  {"'locl' Localized Forms lookup 1 subtable"  } ['locl' ('dev2' <'MAR ' > 'deva' <'MAR ' > ) ]
Lookup: 4 0 0 "'locl' Localized Forms lookup 2"  {"'locl' Localized Forms lookup 2 subtable"  } ['locl' ('dev2' <'MAR ' > 'deva' <'MAR ' > ) ]
Lookup: 1 0 0 "'locl' Localized Forms lookup 3"  {"'locl' Localized Forms lookup 3 subtable"  } ['locl' ('dev2' <'NEP ' > 'deva' <'NEP ' > ) ]
Lookup: 4 0 0 "'locl' Localized Forms lookup 4"  {"'locl' Localized Forms lookup 4 subtable"  } ['locl' ('dev2' <'NEP ' > 'deva' <'NEP ' > ) ]

StartChar: .notdef
Encoding: 592 -1 0
Width: 1040
Flags: W
HStem: 0 65<195 846> 846 64<195 846>
VStem: 130 65<65 846> 846 64<65 846>
LayerCount: 3
Fore
SplineSet
195 65 m 1,0,-1
 846 65 l 1,1,-1
 846 846 l 1,2,-1
 195 846 l 1,3,-1
 195 65 l 1,0,-1
130 0 m 1,4,-1
 130 910 l 1,5,-1
 910 910 l 1,6,-1
 910 0 l 1,7,-1
 130 0 l 1,4,-1
EndSplineSet
Validated: 1
Layer: 2
SplineSet
195 65 m 1
 846 65 l 1
 846 846 l 1
 195 846 l 1
 195 65 l 1
130 0 m 1
 130 910 l 1
 910 910 l 1
 910 0 l 1
 130 0 l 1
EndSplineSet
EndChar

StartChar: exclam
Encoding: 2 33 4
Width: 316
GlyphClass: 2
Flags: W
HStem: -8 117<119.286 196.713>
VStem: 110 96<7.98718 92.4973> 117 80<421.5 572> 135 44<185 335.5>
LayerCount: 3
Fore
SplineSet
157 -8 m 0,0,1
 128 -8 128 -8 119 7.5 c 128,-1,2
 110 23 110 23 110 50 c 0,3,4
 110 68 110 68 112 78.5 c 128,-1,5
 114 89 114 89 125 99 c 128,-1,6
 136 109 136 109 157 109 c 0,7,8
 188 109 188 109 197 93 c 128,-1,9
 206 77 206 77 206 50 c 0,10,11
 206 38 206 38 204.5 29.5 c 128,-1,12
 203 21 203 21 198.5 11.5 c 128,-1,13
 194 2 194 2 183.5 -3 c 128,-1,14
 173 -8 173 -8 157 -8 c 0,0,1
117 730 m 1,15,-1
 117 572 l 1,16,-1
 135 185 l 1,17,-1
 179 185 l 1,18,-1
 197 572 l 1,19,-1
 197 730 l 1,20,-1
 117 730 l 1,15,-1
EndSplineSet
Validated: 9
Layer: 2
SplineSet
157 -8 m 0
 113 -8 110 23 110 50 c 0
 110 78 113 109 157 109 c 0
 203 109 206 78 206 50 c 0
 206 23 203 -8 157 -8 c 0
117 730 m 1
 117 572 l 1
 135 185 l 1
 179 185 l 1
 197 572 l 1
 197 730 l 1
 117 730 l 1
EndSplineSet
EndChar

StartChar: quotedbl
Encoding: 3 34 5
Width: 400
GlyphClass: 2
Flags: W
HStem: 491 239
VStem: 80 80<588.167 650> 240 80<588.167 650>
LayerCount: 3
Fore
SplineSet
240 730 m 1,0,-1
 240 650 l 1,1,-1
 258 491 l 1,2,-1
 302 491 l 1,3,-1
 320 650 l 1,4,-1
 320 730 l 1,5,-1
 240 730 l 1,0,-1
80 730 m 1,6,-1
 80 650 l 1,7,-1
 98 491 l 1,8,-1
 142 491 l 1,9,-1
 160 650 l 1,10,-1
 160 730 l 1,11,-1
 80 730 l 1,6,-1
EndSplineSet
Validated: 9
Layer: 2
SplineSet
240 730 m 1
 240 650 l 1
 258 491 l 1
 302 491 l 1
 320 650 l 1
 320 730 l 1
 240 730 l 1
80 730 m 1
 80 650 l 1
 98 491 l 1
 142 491 l 1
 160 650 l 1
 160 730 l 1
 80 730 l 1
EndSplineSet
EndChar

StartChar: numbersign
Encoding: 4 35 6
Width: 795
GlyphClass: 2
Flags: W
LayerCount: 3
Fore
SplineSet
438 -106 m 1,0,-1
 509 -106 l 1,1,-1
 555 150 l 1,2,-1
 671 150 l 1,3,-1
 681 209 l 1,4,-1
 566 209 l 1,5,-1
 611 460 l 1,6,-1
 725 460 l 1,7,-1
 735 519 l 1,8,-1
 622 519 l 1,9,-1
 669 775 l 1,10,-1
 598 775 l 1,11,-1
 551 519 l 1,12,-1
 312 519 l 1,13,-1
 359 775 l 1,14,-1
 288 775 l 1,15,-1
 241 519 l 1,16,-1
 124 519 l 1,17,-1
 114 460 l 1,18,-1
 230 460 l 1,19,-1
 185 209 l 1,20,-1
 70 209 l 1,21,-1
 60 150 l 1,22,-1
 174 150 l 1,23,-1
 128 -106 l 1,24,-1
 199 -106 l 1,25,-1
 245 150 l 1,26,-1
 484 150 l 1,27,-1
 438 -106 l 1,0,-1
301 460 m 1,28,-1
 540 460 l 1,29,-1
 495 209 l 1,30,-1
 256 209 l 1,31,-1
 301 460 l 1,28,-1
EndSplineSet
Validated: 9
Layer: 2
SplineSet
438 -106 m 1
 509 -106 l 1
 555 150 l 1
 671 150 l 1
 681 209 l 1
 566 209 l 1
 611 460 l 1
 725 460 l 1
 735 519 l 1
 622 519 l 1
 669 775 l 1
 598 775 l 1
 551 519 l 1
 312 519 l 1
 359 775 l 1
 288 775 l 1
 241 519 l 1
 124 519 l 1
 114 460 l 1
 230 460 l 1
 185 209 l 1
 70 209 l 1
 60 150 l 1
 174 150 l 1
 128 -106 l 1
 199 -106 l 1
 245 150 l 1
 484 150 l 1
 438 -106 l 1
301 460 m 1
 540 460 l 1
 495 209 l 1
 256 209 l 1
 301 460 l 1
EndSplineSet
EndChar

StartChar: dollar
Encoding: 5 36 7
Width: 580
GlyphClass: 2
Flags: W
HStem: -13 59<186.426 266 316 394.004> 624 59<316 390.23>
VStem: 73 62<97.0259 181> 83 70<412.932 579.249> 440 62<491 574.913> 442 70<93.084 252.191>
LayerCount: 3
Fore
SplineSet
266 -74 m 1,0,-1
 316 -74 l 1,1,-1
 316 -13 l 1,2,3
 421 -8 421 -8 466.5 42 c 128,-1,4
 512 92 512 92 512 181 c 0,5,6
 512 259 512 259 471 303 c 128,-1,7
 430 347 430 347 338 361 c 2,8,-1
 316 364 l 1,9,-1
 316 624 l 1,10,11
 383 619 383 619 411.5 585.5 c 128,-1,12
 440 552 440 552 440 487 c 1,13,-1
 502 491 l 1,14,15
 502 581 502 581 459 629.5 c 128,-1,16
 416 678 416 678 316 683 c 1,17,-1
 316 744 l 1,18,-1
 266 744 l 1,19,-1
 266 683 l 1,20,21
 167 678 167 678 125 629.5 c 128,-1,22
 83 581 83 581 83 489 c 0,23,24
 83 410 83 410 121 366 c 128,-1,25
 159 322 159 322 246 309 c 2,26,-1
 266 306 l 1,27,-1
 266 46 l 1,28,29
 195 51 195 51 165 85.5 c 128,-1,30
 135 120 135 120 135 185 c 1,31,-1
 73 181 l 1,32,33
 73 90 73 90 117.5 41 c 128,-1,34
 162 -8 162 -8 266 -13 c 1,35,-1
 266 -74 l 1,0,-1
338 295 m 2,36,37
 442 277 442 277 442 181 c 0,38,39
 442 118 442 118 414 84 c 128,-1,40
 386 50 386 50 316 46 c 1,41,-1
 316 298 l 1,42,-1
 338 295 l 2,36,37
153 489 m 0,43,44
 153 551 153 551 178 584 c 128,-1,45
 203 617 203 617 266 623 c 1,46,-1
 266 372 l 1,47,-1
 246 375 l 2,48,49
 153 390 153 390 153 489 c 0,43,44
EndSplineSet
Validated: 9
Layer: 2
SplineSet
266 -74 m 1
 316 -74 l 1
 316 -13 l 1
 463 -6 512 70 512 181 c 0
 512 284 462 342 338 361 c 2
 316 364 l 1
 316 624 l 1
 408 617 440 570 440 487 c 1
 502 491 l 1
 502 605 454 676 316 683 c 1
 316 744 l 1
 266 744 l 1
 266 683 l 1
 128 676 83 605 83 489 c 0
 83 386 128 327 246 309 c 2
 266 306 l 1
 266 46 l 1
 168 53 135 102 135 185 c 1
 73 181 l 1
 73 66 121 -6 266 -13 c 1
 266 -74 l 1
338 295 m 2
 412 282 442 241 442 181 c 0
 442 102 414 52 316 46 c 1
 316 298 l 1
 338 295 l 2
153 489 m 0
 153 566 178 615 266 623 c 1
 266 372 l 1
 246 375 l 2
 177 386 153 429 153 489 c 0
EndSplineSet
EndChar

StartChar: percent
Encoding: 6 37 8
Width: 982
GlyphClass: 2
Flags: W
HStem: -8 44<703.846 827.3> 262 44<152.846 276.3> 369 44<703.846 827.52> 639 44<152.846 276.52>
VStem: 71 55<333.841 611.159> 303 55<333.841 611.124> 622 55<63.841 341.159> 854 55<63.841 341.124>
LayerCount: 3
Fore
SplineSet
348 -66 m 1,0,-1
 400 -66 l 1,1,-1
 615 735 l 1,2,-1
 562 735 l 1,3,-1
 348 -66 l 1,0,-1
765 -8 m 256,4,5
 812 -8 812 -8 842 6 c 128,-1,6
 872 20 872 20 886 50.5 c 128,-1,7
 900 81 900 81 904.5 114.5 c 128,-1,8
 909 148 909 148 909 203 c 0,9,10
 909 246 909 246 906.5 274.5 c 128,-1,11
 904 303 904 303 895.5 331.5 c 128,-1,12
 887 360 887 360 872 376.5 c 128,-1,13
 857 393 857 393 830 403 c 128,-1,14
 803 413 803 413 765 413 c 0,15,16
 718 413 718 413 688.5 399 c 128,-1,17
 659 385 659 385 645 354.5 c 128,-1,18
 631 324 631 324 626.5 290.5 c 128,-1,19
 622 257 622 257 622 203 c 0,20,21
 622 148 622 148 626.5 114.5 c 128,-1,22
 631 81 631 81 645 50.5 c 128,-1,23
 659 20 659 20 688.5 6 c 128,-1,24
 718 -8 718 -8 765 -8 c 256,4,5
765 36 m 0,25,26
 710 36 710 36 693.5 73.5 c 128,-1,27
 677 111 677 111 677 203 c 0,28,29
 677 294 677 294 693.5 331.5 c 128,-1,30
 710 369 710 369 765 369 c 0,31,32
 821 369 821 369 837.5 331.5 c 128,-1,33
 854 294 854 294 854 203 c 0,34,35
 854 111 854 111 837.5 73.5 c 128,-1,36
 821 36 821 36 765 36 c 0,25,26
214 262 m 256,37,38
 261 262 261 262 291 276 c 128,-1,39
 321 290 321 290 335 320.5 c 128,-1,40
 349 351 349 351 353.5 384.5 c 128,-1,41
 358 418 358 418 358 473 c 0,42,43
 358 516 358 516 355.5 544.5 c 128,-1,44
 353 573 353 573 344.5 601.5 c 128,-1,45
 336 630 336 630 321 646.5 c 128,-1,46
 306 663 306 663 279 673 c 128,-1,47
 252 683 252 683 214 683 c 0,48,49
 167 683 167 683 137.5 669 c 128,-1,50
 108 655 108 655 94 624.5 c 128,-1,51
 80 594 80 594 75.5 560.5 c 128,-1,52
 71 527 71 527 71 473 c 0,53,54
 71 418 71 418 75.5 384.5 c 128,-1,55
 80 351 80 351 94 320.5 c 128,-1,56
 108 290 108 290 137.5 276 c 128,-1,57
 167 262 167 262 214 262 c 256,37,38
214 306 m 0,58,59
 159 306 159 306 142.5 343.5 c 128,-1,60
 126 381 126 381 126 473 c 0,61,62
 126 564 126 564 142.5 601.5 c 128,-1,63
 159 639 159 639 214 639 c 0,64,65
 270 639 270 639 286.5 601.5 c 128,-1,66
 303 564 303 564 303 473 c 0,67,68
 303 381 303 381 286.5 343.5 c 128,-1,69
 270 306 270 306 214 306 c 0,58,59
EndSplineSet
Validated: 9
Layer: 2
SplineSet
348 -66 m 1
 400 -66 l 1
 615 735 l 1
 562 735 l 1
 348 -66 l 1
765 -8 m 0
 895 -8 909 74 909 203 c 0
 909 331 895 413 765 413 c 0
 636 413 622 331 622 203 c 0
 622 74 636 -8 765 -8 c 0
765 36 m 0
 686 36 677 92 677 203 c 0
 677 313 686 369 765 369 c 0
 845 369 854 313 854 203 c 0
 854 92 845 36 765 36 c 0
214 262 m 0
 344 262 358 344 358 473 c 0
 358 601 344 683 214 683 c 0
 85 683 71 601 71 473 c 0
 71 344 85 262 214 262 c 0
214 306 m 0
 135 306 126 362 126 473 c 0
 126 583 135 639 214 639 c 0
 294 639 303 583 303 473 c 0
 303 362 294 306 214 306 c 0
EndSplineSet
EndChar

StartChar: ampersand
Encoding: 7 38 9
Width: 609
GlyphClass: 2
Flags: W
HStem: -14 59<181.061 381.58> 331 54<197.507 434 496 609> 655 59<187.171 353.69>
VStem: 55 70<98.9224 272.402> 74 70<440.839 609.246> 401 62<520 607.407> 434 62<97.1444 331>
LayerCount: 3
Fore
SplineSet
55 182 m 0,0,1
 55 252 55 252 86 298 c 128,-1,2
 117 344 117 344 169 364 c 1,3,4
 125 387 125 387 99.5 429 c 128,-1,5
 74 471 74 471 74 525 c 0,6,7
 74 714 74 714 275 714 c 0,8,9
 463 714 463 714 463 520 c 1,10,-1
 401 520 l 1,11,12
 401 655 401 655 276 655 c 0,13,14
 203 655 203 655 173.5 621 c 128,-1,15
 144 587 144 587 144 521 c 0,16,17
 144 463 144 463 178.5 424 c 128,-1,18
 213 385 213 385 272 385 c 2,19,-1
 609 385 l 1,20,-1
 609 331 l 1,21,-1
 496 331 l 1,22,-1
 496 179 l 2,23,24
 496 83 496 83 447 34.5 c 128,-1,25
 398 -14 398 -14 281 -14 c 0,26,27
 55 -14 55 -14 55 182 c 0,0,1
125 178 m 0,28,29
 125 45 125 45 281 45 c 0,30,31
 363 45 363 45 398.5 79.5 c 128,-1,32
 434 114 434 114 434 179 c 2,33,-1
 434 331 l 1,34,-1
 263 331 l 2,35,36
 191 331 191 331 158 289.5 c 128,-1,37
 125 248 125 248 125 178 c 0,28,29
EndSplineSet
Validated: 1
Layer: 2
SplineSet
55 182 m 0
 55 279 103 339 169 364 c 1
 112 394 74 451 74 525 c 0
 74 638 125 714 275 714 c 0
 412 714 463 638 463 520 c 1
 401 520 l 1
 401 601 369 655 276 655 c 0
 173 655 144 602 144 521 c 0
 144 447 190 385 272 385 c 2
 609 385 l 1
 609 331 l 1
 496 331 l 1
 496 179 l 2
 496 58 443 -14 281 -14 c 0
 124 -14 55 56 55 182 c 0
125 178 m 0
 125 94 168 45 281 45 c 0
 396 45 434 98 434 179 c 2
 434 331 l 1
 263 331 l 2
 161 331 125 264 125 178 c 0
EndSplineSet
EndChar

StartChar: quotesingle
Encoding: 8 39 10
Width: 240
GlyphClass: 2
Flags: W
HStem: 491 239
VStem: 80 80<588.167 650>
LayerCount: 3
Fore
SplineSet
80 730 m 1,0,-1
 80 650 l 1,1,-1
 98 491 l 1,2,-1
 142 491 l 1,3,-1
 160 650 l 1,4,-1
 160 730 l 1,5,-1
 80 730 l 1,0,-1
EndSplineSet
Validated: 9
Layer: 2
SplineSet
80 730 m 1
 80 650 l 1
 98 491 l 1
 142 491 l 1
 160 650 l 1
 160 730 l 1
 80 730 l 1
EndSplineSet
EndChar

StartChar: parenleft
Encoding: 9 40 11
Width: 294
GlyphClass: 2
Flags: W
HStem: -66 62<211.836 289> 673 62<211.782 289>
VStem: 65 77<91.4763 576.935>
LayerCount: 3
Fore
SplineSet
289 -66 m 1,0,1
 239 -66 239 -66 202.5 -54.5 c 128,-1,2
 166 -43 166 -43 141.5 -17.5 c 128,-1,3
 117 8 117 8 101.5 39.5 c 128,-1,4
 86 71 86 71 78 120 c 128,-1,5
 70 169 70 169 67.5 217.5 c 128,-1,6
 65 266 65 266 65 335 c 0,7,8
 65 418 65 418 69 473 c 128,-1,9
 73 528 73 528 86 582 c 128,-1,10
 99 636 99 636 123 666.5 c 128,-1,11
 147 697 147 697 188.5 716 c 128,-1,12
 230 735 230 735 289 735 c 1,13,-1
 289 673 l 1,14,15
 256 673 256 673 232 663 c 128,-1,16
 208 653 208 653 192 631.5 c 128,-1,17
 176 610 176 610 166 584 c 128,-1,18
 156 558 156 558 150.5 516 c 128,-1,19
 145 474 145 474 143.5 434 c 128,-1,20
 142 394 142 394 142 335 c 128,-1,21
 142 276 142 276 143.5 235.5 c 128,-1,22
 145 195 145 195 150.5 153.5 c 128,-1,23
 156 112 156 112 166 85.5 c 128,-1,24
 176 59 176 59 192 37.5 c 128,-1,25
 208 16 208 16 232 6 c 128,-1,26
 256 -4 256 -4 289 -4 c 1,27,-1
 289 -66 l 1,0,1
EndSplineSet
Validated: 1
Layer: 2
SplineSet
289 -66 m 1
 88 -66 65 84 65 335 c 0
 65 583 88 735 289 735 c 1
 289 673 l 1
 156 673 142 546 142 335 c 0
 142 123 156 -4 289 -4 c 1
 289 -66 l 1
EndSplineSet
EndChar

StartChar: parenright
Encoding: 10 41 12
Width: 294
GlyphClass: 2
Flags: W
HStem: -66 62<5 82.2184> 673 62<5 82.1641>
VStem: 152 77<92.0647 577.524>
LayerCount: 3
Fore
SplineSet
5 735 m 1,0,1
 55 735 55 735 91.5 723.5 c 128,-1,2
 128 712 128 712 152.5 686.5 c 128,-1,3
 177 661 177 661 192.5 629.5 c 128,-1,4
 208 598 208 598 216 549 c 128,-1,5
 224 500 224 500 226.5 451.5 c 128,-1,6
 229 403 229 403 229 334 c 0,7,8
 229 251 229 251 225 196 c 128,-1,9
 221 141 221 141 208 87 c 128,-1,10
 195 33 195 33 171 2.5 c 128,-1,11
 147 -28 147 -28 105.5 -47 c 128,-1,12
 64 -66 64 -66 5 -66 c 1,13,-1
 5 -4 l 1,14,15
 38 -4 38 -4 62 6 c 128,-1,16
 86 16 86 16 102 37.5 c 128,-1,17
 118 59 118 59 128 85 c 128,-1,18
 138 111 138 111 143.5 153 c 128,-1,19
 149 195 149 195 150.5 235 c 128,-1,20
 152 275 152 275 152 334 c 128,-1,21
 152 393 152 393 150.5 433.5 c 128,-1,22
 149 474 149 474 143.5 515.5 c 128,-1,23
 138 557 138 557 128 583.5 c 128,-1,24
 118 610 118 610 102 631.5 c 128,-1,25
 86 653 86 653 62 663 c 128,-1,26
 38 673 38 673 5 673 c 1,27,-1
 5 735 l 1,0,1
EndSplineSet
Validated: 1
Layer: 2
SplineSet
5 735 m 1
 206 735 229 585 229 334 c 0
 229 86 206 -66 5 -66 c 1
 5 -4 l 1
 138 -4 152 123 152 334 c 0
 152 546 138 673 5 673 c 1
 5 735 l 1
EndSplineSet
EndChar

StartChar: asterisk
Encoding: 11 42 13
Width: 552
GlyphClass: 2
Flags: W
VStem: 236 80<669.25 700> 264 24<577 607.75>
LayerCount: 3
Fore
SplineSet
236 779 m 1,0,-1
 236 700 l 1,1,-1
 264 577 l 1,2,-1
 288 577 l 1,3,-1
 316 700 l 1,4,-1
 316 779 l 1,5,-1
 236 779 l 1,0,-1
27 570 m 1,6,-1
 102 545 l 1,7,-1
 228 534 l 1,8,-1
 236 556 l 1,9,-1
 127 621 l 1,10,-1
 52 645 l 1,11,-1
 27 570 l 1,6,-1
162 306 m 1,12,-1
 209 370 l 1,13,-1
 258 486 l 1,14,-1
 239 501 l 1,15,-1
 144 418 l 1,16,-1
 98 353 l 1,17,-1
 162 306 l 1,12,-1
454 353 m 1,18,-1
 408 418 l 1,19,-1
 313 500 l 1,20,-1
 293 486 l 1,21,-1
 343 370 l 1,22,-1
 390 306 l 1,23,-1
 454 353 l 1,18,-1
500 645 m 1,24,-1
 424 621 l 1,25,-1
 317 556 l 1,26,-1
 324 533 l 1,27,-1
 450 545 l 1,28,-1
 525 570 l 1,29,-1
 500 645 l 1,24,-1
EndSplineSet
Validated: 9
Layer: 2
SplineSet
236 779 m 1
 236 700 l 1
 264 577 l 1
 288 577 l 1
 316 700 l 1
 316 779 l 1
 236 779 l 1
27 570 m 1
 102 545 l 1
 228 534 l 1
 236 556 l 1
 127 621 l 1
 52 645 l 1
 27 570 l 1
162 306 m 1
 209 370 l 1
 258 486 l 1
 239 501 l 1
 144 418 l 1
 98 353 l 1
 162 306 l 1
454 353 m 1
 408 418 l 1
 313 500 l 1
 293 486 l 1
 343 370 l 1
 390 306 l 1
 454 353 l 1
500 645 m 1
 424 621 l 1
 317 556 l 1
 324 533 l 1
 450 545 l 1
 525 570 l 1
 500 645 l 1
EndSplineSet
EndChar

StartChar: plus
Encoding: 12 43 14
Width: 580
GlyphClass: 2
Flags: W
LayerCount: 3
Fore
SplineSet
94 288 m 1,0,-1
 260 288 l 1,1,-1
 260 122 l 1,2,-1
 320 122 l 1,3,-1
 320 288 l 1,4,-1
 486 288 l 1,5,-1
 486 348 l 1,6,-1
 320 348 l 1,7,-1
 320 514 l 1,8,-1
 260 514 l 1,9,-1
 260 348 l 1,10,-1
 94 348 l 1,11,-1
 94 288 l 1,0,-1
EndSplineSet
Validated: 9
Layer: 2
SplineSet
94 288 m 1
 260 288 l 1
 260 122 l 1
 320 122 l 1
 320 288 l 1
 486 288 l 1
 486 348 l 1
 320 348 l 1
 320 514 l 1
 260 514 l 1
 260 348 l 1
 94 348 l 1
 94 288 l 1
EndSplineSet
EndChar

StartChar: comma
Encoding: 13 44 15
Width: 226
GlyphClass: 2
Flags: W
VStem: 65 96<-13.7158 92.4973> 77 84<-31.1113 76.8416>
LayerCount: 3
Fore
SplineSet
65 50 m 0,0,1
 65 37 65 37 71 16 c 128,-1,2
 77 -5 77 -5 77 -14 c 0,3,4
 77 -34 77 -34 71 -49.5 c 128,-1,5
 65 -65 65 -65 58 -73 c 128,-1,6
 51 -81 51 -81 38 -93 c 1,7,-1
 61 -120 l 1,8,9
 65 -117 65 -117 72 -112 c 128,-1,10
 79 -107 79 -107 96 -89.5 c 128,-1,11
 113 -72 113 -72 126 -53.5 c 128,-1,12
 139 -35 139 -35 150 -6.5 c 128,-1,13
 161 22 161 22 161 50 c 0,14,15
 161 63 161 63 159.5 71.5 c 128,-1,16
 158 80 158 80 153.5 89.5 c 128,-1,17
 149 99 149 99 138.5 104 c 128,-1,18
 128 109 128 109 112 109 c 0,19,20
 83 109 83 109 74 93 c 128,-1,21
 65 77 65 77 65 50 c 0,0,1
EndSplineSet
Validated: 9
Layer: 2
SplineSet
65 50 m 0
 65 25 77 5 77 -14 c 0
 77 -57 59 -74 38 -93 c 1
 61 -120 l 1
 61 -120 161 -51 161 50 c 0
 161 78 158 109 112 109 c 0
 68 109 65 78 65 50 c 0
EndSplineSet
EndChar

StartChar: hyphen
Encoding: 14 45 16
Width: 492
GlyphClass: 2
Flags: W
HStem: 288 60
LayerCount: 3
Fore
SplineSet
70 288 m 1,0,-1
 422 288 l 1,1,-1
 422 348 l 1,2,-1
 70 348 l 1,3,-1
 70 288 l 1,0,-1
EndSplineSet
Validated: 9
Layer: 2
SplineSet
70 288 m 1
 422 288 l 1
 422 348 l 1
 70 348 l 1
 70 288 l 1
EndSplineSet
EndChar

StartChar: period
Encoding: 15 46 17
Width: 226
GlyphClass: 2
Flags: W
HStem: -8 117<74.2861 151.713>
VStem: 65 96<7.98718 92.4973>
LayerCount: 3
Fore
SplineSet
112 -8 m 0,0,1
 143 -8 143 -8 152 7.5 c 128,-1,2
 161 23 161 23 161 50 c 0,3,4
 161 63 161 63 159.5 71.5 c 128,-1,5
 158 80 158 80 153.5 89.5 c 128,-1,6
 149 99 149 99 138.5 104 c 128,-1,7
 128 109 128 109 112 109 c 0,8,9
 83 109 83 109 74 93 c 128,-1,10
 65 77 65 77 65 50 c 0,11,12
 65 33 65 33 67 22.5 c 128,-1,13
 69 12 69 12 80.5 2 c 128,-1,14
 92 -8 92 -8 112 -8 c 0,0,1
EndSplineSet
Validated: 9
Layer: 2
SplineSet
112 -8 m 0
 158 -8 161 23 161 50 c 0
 161 78 158 109 112 109 c 0
 68 109 65 78 65 50 c 0
 65 23 68 -8 112 -8 c 0
EndSplineSet
EndChar

StartChar: slash
Encoding: 16 47 18
Width: 308
GlyphClass: 2
Flags: W
LayerCount: 3
Fore
SplineSet
0 -106 m 1,0,-1
 71 -106 l 1,1,-1
 308 775 l 1,2,-1
 237 775 l 1,3,-1
 0 -106 l 1,0,-1
EndSplineSet
Validated: 9
Layer: 2
SplineSet
0 -106 m 1
 71 -106 l 1
 308 775 l 1
 237 775 l 1
 0 -106 l 1
EndSplineSet
EndChar

StartChar: zero
Encoding: 17 48 19
Width: 580
GlyphClass: 2
Flags: W
HStem: -14 59<201.094 377.53> 624 59<201.094 377.53>
VStem: 62.5 67.5<129.25 539.75> 449 70<131.139 335 437.5 537.115>
LayerCount: 3
Fore
SplineSet
289 -14 m 0,0,1
 350 -14 350 -14 392.5 3 c 128,-1,2
 435 20 435 20 459.5 47 c 128,-1,3
 484 74 484 74 497.5 122 c 128,-1,4
 511 170 511 170 515 217 c 128,-1,5
 519 264 519 264 519 335 c 128,-1,6
 519 406 519 406 515 453 c 128,-1,7
 511 500 511 500 497.5 547.5 c 128,-1,8
 484 595 484 595 459.5 622 c 128,-1,9
 435 649 435 649 392.5 666 c 128,-1,10
 350 683 350 683 289 683 c 0,11,12
 238 683 238 683 200 672.5 c 128,-1,13
 162 662 162 662 137.5 639 c 128,-1,14
 113 616 113 616 97 588.5 c 128,-1,15
 81 561 81 561 73 518 c 128,-1,16
 65 475 65 475 62.5 434.5 c 128,-1,17
 60 394 60 394 60 335 c 128,-1,18
 60 276 60 276 62.5 235 c 128,-1,19
 65 194 65 194 73 151 c 128,-1,20
 81 108 81 108 97 80.5 c 128,-1,21
 113 53 113 53 137.5 30 c 128,-1,22
 162 7 162 7 200 -3.5 c 128,-1,23
 238 -14 238 -14 289 -14 c 0,0,1
289 45 m 256,24,25
 247 45 247 45 218 58 c 128,-1,26
 189 71 189 71 171.5 92.5 c 128,-1,27
 154 114 154 114 145 152.5 c 128,-1,28
 136 191 136 191 133 232 c 128,-1,29
 130 273 130 273 130 335 c 128,-1,30
 130 397 130 397 133 437.5 c 128,-1,31
 136 478 136 478 145 516.5 c 128,-1,32
 154 555 154 555 171.5 576.5 c 128,-1,33
 189 598 189 598 218 611 c 128,-1,34
 247 624 247 624 289 624 c 128,-1,35
 331 624 331 624 360.5 611 c 128,-1,36
 390 598 390 598 407 576.5 c 128,-1,37
 424 555 424 555 433.5 516.5 c 128,-1,38
 443 478 443 478 446 437.5 c 128,-1,39
 449 397 449 397 449 335 c 128,-1,40
 449 273 449 273 446 232 c 128,-1,41
 443 191 443 191 433.5 152.5 c 128,-1,42
 424 114 424 114 407 92.5 c 128,-1,43
 390 71 390 71 360.5 58 c 128,-1,44
 331 45 331 45 289 45 c 256,24,25
EndSplineSet
Validated: 9
Layer: 2
SplineSet
289 -14 m 0
 497 -14 519 124 519 335 c 0
 519 545 497 683 289 683 c 0
 82 683 60 545 60 335 c 0
 60 124 82 -14 289 -14 c 0
289 45 m 0
 147 45 130 147 130 335 c 0
 130 522 147 624 289 624 c 0
 432 624 449 522 449 335 c 0
 449 147 432 45 289 45 c 0
EndSplineSet
EndChar

StartChar: one
Encoding: 18 49 20
Width: 580
GlyphClass: 2
Flags: W
HStem: 575 45<138 238.585>
LayerCount: 3
Fore
SplineSet
138 575 m 1,0,-1
 273 575 l 1,1,-1
 273 59 l 1,2,-1
 133 59 l 1,3,-1
 133 0 l 1,4,-1
 485 0 l 1,5,-1
 485 59 l 1,6,-1
 345 59 l 1,7,-1
 345 670 l 1,8,-1
 293 670 l 1,9,10
 238 630 238 630 138 620 c 1,11,-1
 138 575 l 1,0,-1
EndSplineSet
Validated: 9
Layer: 2
SplineSet
138 575 m 1
 273 575 l 1
 273 59 l 1
 133 59 l 1
 133 0 l 1
 485 0 l 1
 485 59 l 1
 345 59 l 1
 345 670 l 1
 293 670 l 1
 258 645 205 627 138 620 c 1
 138 575 l 1
EndSplineSet
EndChar

StartChar: two
Encoding: 19 50 21
Width: 580
GlyphClass: 2
Flags: W
HStem: 625 59<196.231 384.194>
VStem: 90 62<490 579.569> 428 70<427.157 583.554>
LayerCount: 3
Fore
SplineSet
171 59 m 1,0,-1
 377 281 l 2,1,2
 434 343 434 343 466 395.5 c 128,-1,3
 498 448 498 448 498 506 c 0,4,5
 498 684 498 684 292 684 c 0,6,7
 183 684 183 684 136.5 634 c 128,-1,8
 90 584 90 584 90 490 c 1,9,-1
 152 490 l 1,10,11
 152 557 152 557 182 591 c 128,-1,12
 212 625 212 625 292 625 c 0,13,14
 366 625 366 625 397 594.5 c 128,-1,15
 428 564 428 564 428 507 c 0,16,17
 428 463 428 463 405.5 426 c 128,-1,18
 383 389 383 389 338 340 c 2,19,-1
 76 57 l 1,20,-1
 76 0 l 1,21,-1
 505 0 l 1,22,-1
 505 59 l 1,23,-1
 171 59 l 1,0,-1
EndSplineSet
Validated: 9
Layer: 2
SplineSet
171 59 m 1
 377 281 l 2
 438 347 498 420 498 506 c 0
 498 613 445 684 292 684 c 0
 140 684 90 608 90 490 c 1
 152 490 l 1
 152 571 178 625 292 625 c 0
 397 625 428 577 428 507 c 0
 428 442 388 394 338 340 c 2
 76 57 l 1
 76 0 l 1
 505 0 l 1
 505 59 l 1
 171 59 l 1
EndSplineSet
EndChar

StartChar: three
Encoding: 20 51 22
Width: 580
GlyphClass: 2
Flags: W
HStem: -14 59<189.733 393.989> 305 54<308 384.244> 625 59<201.806 389.44>
VStem: 75 62<96.125 179> 88 62<490 574.869> 437 70<412.333 577.291> 446 70<94.3696 251.389>
LayerCount: 3
Fore
SplineSet
516 167 m 0,0,1
 516 231 516 231 485.5 273.5 c 128,-1,2
 455 316 455 316 403 335 c 1,3,4
 450 356 450 356 478.5 396.5 c 128,-1,5
 507 437 507 437 507 490 c 0,6,7
 507 584 507 584 456.5 634 c 128,-1,8
 406 684 406 684 290 684 c 0,9,10
 88 684 88 684 88 490 c 1,11,-1
 150 490 l 1,12,13
 150 625 150 625 290 625 c 0,14,15
 372 625 372 625 404.5 591 c 128,-1,16
 437 557 437 557 437 491 c 0,17,18
 437 434 437 434 403 396.5 c 128,-1,19
 369 359 369 359 309 359 c 2,20,-1
 202 359 l 1,21,-1
 202 305 l 1,22,-1
 308 305 l 2,23,24
 380 305 380 305 413 267 c 128,-1,25
 446 229 446 229 446 166 c 0,26,27
 446 45 446 45 290 45 c 0,28,29
 208 45 208 45 172.5 79.5 c 128,-1,30
 137 114 137 114 137 179 c 1,31,-1
 75 179 l 1,32,33
 75 85 75 85 124.5 35.5 c 128,-1,34
 174 -14 174 -14 290 -14 c 0,35,36
 516 -14 516 -14 516 167 c 0,0,1
EndSplineSet
Validated: 9
Layer: 2
SplineSet
516 167 m 0
 516 256 469 311 403 335 c 1
 464 362 507 417 507 490 c 0
 507 608 452 684 290 684 c 0
 143 684 88 608 88 490 c 1
 150 490 l 1
 150 571 186 625 290 625 c 0
 405 625 437 572 437 491 c 0
 437 417 391 359 309 359 c 2
 202 359 l 1
 202 305 l 1
 308 305 l 2
 410 305 446 244 446 166 c 0
 446 90 403 45 290 45 c 0
 175 45 137 98 137 179 c 1
 75 179 l 1
 75 61 128 -14 290 -14 c 0
 445 -14 516 51 516 167 c 0
EndSplineSet
EndChar

StartChar: four
Encoding: 21 52 23
Width: 580
GlyphClass: 2
Flags: W
LayerCount: 3
Fore
SplineSet
437 0 m 1,0,-1
 437 150 l 1,1,-1
 521 150 l 1,2,-1
 521 209 l 1,3,-1
 437 209 l 1,4,-1
 437 670 l 1,5,-1
 325 670 l 1,6,-1
 32 208 l 1,7,-1
 32 150 l 1,8,-1
 366 150 l 1,9,-1
 366 0 l 1,10,-1
 437 0 l 1,0,-1
111 209 m 1,11,-1
 366 611 l 1,12,-1
 366 209 l 1,13,-1
 111 209 l 1,11,-1
EndSplineSet
Validated: 9
Layer: 2
SplineSet
437 0 m 1
 437 150 l 1
 521 150 l 1
 521 209 l 1
 437 209 l 1
 437 670 l 1
 325 670 l 1
 32 208 l 1
 32 150 l 1
 366 150 l 1
 366 0 l 1
 437 0 l 1
111 209 m 1
 366 611 l 1
 366 209 l 1
 111 209 l 1
EndSplineSet
EndChar

StartChar: five
Encoding: 22 53 24
Width: 580
GlyphClass: 2
Flags: W
HStem: -14 59<195.719 390.327> 341 59<206 364.399>
VStem: 83 62<97.2974 195> 444 70<99.6082 276.841>
LayerCount: 3
Fore
SplineSet
97 341 m 1,0,-1
 206 341 l 2,1,2
 338 341 338 341 391 307 c 128,-1,3
 444 273 444 273 444 196 c 0,4,5
 444 120 444 120 410 82.5 c 128,-1,6
 376 45 376 45 292 45 c 0,7,8
 209 45 209 45 177 83 c 128,-1,9
 145 121 145 121 145 195 c 1,10,-1
 83 195 l 1,11,12
 83 92 83 92 131 39 c 128,-1,13
 179 -14 179 -14 292 -14 c 0,14,15
 412 -14 412 -14 463 39 c 128,-1,16
 514 92 514 92 514 196 c 0,17,18
 514 309 514 309 441.5 354.5 c 128,-1,19
 369 400 369 400 207 400 c 2,20,-1
 164 400 l 1,21,-1
 177 611 l 1,22,-1
 477 611 l 1,23,-1
 477 670 l 1,24,-1
 118 670 l 1,25,-1
 97 341 l 1,0,-1
EndSplineSet
Validated: 9
Layer: 2
SplineSet
97 341 m 1
 206 341 l 2
 387 341 444 295 444 196 c 0
 444 101 410 45 292 45 c 0
 174 45 145 105 145 195 c 1
 83 195 l 1
 83 64 135 -14 292 -14 c 0
 458 -14 514 64 514 196 c 0
 514 350 417 400 207 400 c 2
 164 400 l 1
 177 611 l 1
 477 611 l 1
 477 670 l 1
 118 670 l 1
 97 341 l 1
EndSplineSet
EndChar

StartChar: six
Encoding: 23 54 25
Width: 580
GlyphClass: 2
Flags: W
HStem: -14 59<197.915 387.09> 327 56<146.148 388.077> 625 59<202.422 389.076>
VStem: 61 70<127.525 308.537 430.5 531.417> 439 62<482 574.627> 443 70<103.014 273.837>
LayerCount: 3
Fore
SplineSet
513 202 m 0,0,1
 513 383 513 383 289 383 c 0,2,3
 218 383 218 383 131 357 c 1,4,5
 131 412 131 412 134.5 449 c 128,-1,6
 138 486 138 486 147.5 522 c 128,-1,7
 157 558 157 558 174 579 c 128,-1,8
 191 600 191 600 220 612.5 c 128,-1,9
 249 625 249 625 290 625 c 0,10,11
 370 625 370 625 404.5 591.5 c 128,-1,12
 439 558 439 558 439 482 c 1,13,-1
 501 482 l 1,14,15
 500 586 500 586 452 635 c 128,-1,16
 404 684 404 684 288 684 c 0,17,18
 230 684 230 684 189.5 667 c 128,-1,19
 149 650 149 650 124 620.5 c 128,-1,20
 99 591 99 591 85 539.5 c 128,-1,21
 71 488 71 488 66 430.5 c 128,-1,22
 61 373 61 373 61 289 c 0,23,24
 61 130 61 130 109.5 58 c 128,-1,25
 158 -14 158 -14 293 -14 c 0,26,27
 411 -14 411 -14 462 42.5 c 128,-1,28
 513 99 513 99 513 202 c 0,0,1
288 327 m 0,29,30
 369 327 369 327 406 292.5 c 128,-1,31
 443 258 443 258 443 202 c 0,32,33
 443 125 443 125 409.5 85 c 128,-1,34
 376 45 376 45 290 45 c 0,35,36
 198 45 198 45 165.5 99 c 128,-1,37
 133 153 133 153 131 302 c 1,38,39
 206 327 206 327 288 327 c 0,29,30
EndSplineSet
Validated: 9
Layer: 2
SplineSet
513 202 m 0
 513 302 460 383 289 383 c 0
 247 383 188 374 131 357 c 1
 132 522 150 625 290 625 c 0
 398 625 439 583 439 482 c 1
 501 482 l 1
 500 616 447 684 288 684 c 0
 94 684 61 549 61 289 c 0
 61 90 104 -14 293 -14 c 0
 458 -14 513 73 513 202 c 0
288 327 m 0
 403 327 443 271 443 202 c 0
 443 107 411 45 290 45 c 0
 166 45 133 106 131 302 c 1
 185 320 228 327 288 327 c 0
EndSplineSet
EndChar

StartChar: seven
Encoding: 24 55 26
Width: 580
GlyphClass: 2
Flags: W
LayerCount: 3
Fore
SplineSet
86 508 m 1,0,-1
 139 508 l 1,1,-1
 139 611 l 1,2,-1
 438 611 l 1,3,-1
 174 0 l 1,4,-1
 251 0 l 1,5,-1
 515 614 l 1,6,-1
 515 670 l 1,7,-1
 86 670 l 1,8,-1
 86 508 l 1,0,-1
EndSplineSet
Validated: 9
Layer: 2
SplineSet
86 508 m 1
 139 508 l 1
 139 611 l 1
 438 611 l 1
 174 0 l 1
 251 0 l 1
 515 614 l 1
 515 670 l 1
 86 670 l 1
 86 508 l 1
EndSplineSet
EndChar

StartChar: eight
Encoding: 25 56 27
Width: 580
GlyphClass: 2
Flags: W
HStem: -14 59<190.969 388.678> 625 59<192.624 387.376>
VStem: 66 70<93.8428 255.775> 75 70<409.536 577.584> 435 70<412.428 577.584> 444 70<93.8428 257.378>
LayerCount: 3
Fore
SplineSet
75 490 m 0,0,1
 75 584 75 584 124.5 634 c 128,-1,2
 174 684 174 684 290 684 c 128,-1,3
 406 684 406 684 455.5 634 c 128,-1,4
 505 584 505 584 505 490 c 0,5,6
 505 381 505 381 401 339 c 1,7,8
 459 319 459 319 486.5 279 c 128,-1,9
 514 239 514 239 514 170 c 0,10,11
 514 -14 514 -14 290 -14 c 128,-1,12
 66 -14 66 -14 66 170 c 0,13,14
 66 292 66 292 176 334 c 1,15,16
 75 372 75 372 75 490 c 0,0,1
136 170 m 0,17,18
 136 45 136 45 289 45 c 0,19,20
 444 45 444 45 444 170 c 0,21,22
 444 231 444 231 419.5 261.5 c 128,-1,23
 395 292 395 292 334 302 c 2,24,-1
 257 314 l 1,25,26
 136 293 136 293 136 170 c 0,17,18
435 490 m 0,27,28
 435 556 435 556 403 590.5 c 128,-1,29
 371 625 371 625 290 625 c 128,-1,30
 209 625 209 625 177 590.5 c 128,-1,31
 145 556 145 556 145 490 c 0,32,33
 145 433 145 433 169.5 405.5 c 128,-1,34
 194 378 194 378 256 368 c 2,35,-1
 314 358 l 1,36,37
 435 379 435 379 435 490 c 0,27,28
EndSplineSet
Validated: 1
Layer: 2
SplineSet
75 490 m 0
 75 608 128 684 290 684 c 0
 452 684 505 608 505 490 c 0
 505 411 468 366 401 339 c 1
 477 313 514 264 514 170 c 0
 514 52 445 -14 290 -14 c 0
 135 -14 66 52 66 170 c 0
 66 258 105 307 176 334 c 1
 107 360 75 409 75 490 c 0
136 170 m 0
 136 94 175 45 289 45 c 0
 403 45 444 94 444 170 c 0
 444 250 417 289 334 302 c 2
 257 314 l 1
 175 300 136 254 136 170 c 0
435 490 m 0
 435 571 405 625 290 625 c 0
 175 625 145 571 145 490 c 0
 145 416 171 381 256 368 c 2
 314 358 l 1
 395 372 435 417 435 490 c 0
EndSplineSet
EndChar

StartChar: nine
Encoding: 26 57 28
Width: 580
GlyphClass: 2
Flags: W
HStem: -14 59<187.834 374.433> 278 57<194.297 437.689> 625 59<190.903 381.903>
VStem: 63 70<395.553 566.003> 73 62<98.535 188> 442 71<130.562 301 349.771 552.108>
LayerCount: 3
Fore
SplineSet
63 473 m 0,0,1
 63 278 63 278 288 278 c 0,2,3
 364 278 364 278 442 301 c 1,4,5
 439 151 439 151 405.5 98 c 128,-1,6
 372 45 372 45 284 45 c 0,7,8
 205 45 205 45 170 81 c 128,-1,9
 135 117 135 117 135 188 c 1,10,-1
 73 188 l 1,11,12
 74 89 74 89 123 37.5 c 128,-1,13
 172 -14 172 -14 286 -14 c 0,14,15
 345 -14 345 -14 386.5 2.5 c 128,-1,16
 428 19 428 19 452.5 47 c 128,-1,17
 477 75 477 75 490.5 122.5 c 128,-1,18
 504 170 504 170 508.5 220 c 128,-1,19
 513 270 513 270 513 344 c 0,20,21
 513 439 513 439 505 497.5 c 128,-1,22
 497 556 497 556 473 601 c 128,-1,23
 449 646 449 646 405 665 c 128,-1,24
 361 684 361 684 291 684 c 0,25,26
 172 684 172 684 118.5 629.5 c 128,-1,27
 65 575 65 575 63 473 c 0,0,1
292 335 m 0,28,29
 208 335 208 335 170.5 374.5 c 128,-1,30
 133 414 133 414 133 473 c 0,31,32
 133 548 133 548 169.5 586.5 c 128,-1,33
 206 625 206 625 290 625 c 0,34,35
 382 625 382 625 412 571.5 c 128,-1,36
 442 518 442 518 443 355 c 1,37,38
 367 335 367 335 292 335 c 0,28,29
EndSplineSet
Validated: 9
Layer: 2
SplineSet
63 473 m 0
 63 368 112 278 288 278 c 0
 340 278 391 286 442 301 c 1
 438 99 400 45 284 45 c 0
 176 45 135 97 135 188 c 1
 73 188 l 1
 74 64 127 -14 286 -14 c 0
 486 -14 513 121 513 344 c 0
 513 580 480 684 291 684 c 0
 126 684 66 602 63 473 c 0
292 335 m 0
 170 335 133 404 133 473 c 0
 133 568 173 625 290 625 c 0
 413 625 442 571 443 355 c 1
 386 340 349 335 292 335 c 0
EndSplineSet
EndChar

StartChar: colon
Encoding: 27 58 29
Width: 226
GlyphClass: 2
Flags: W
HStem: -8 117<74.2861 151.713> 413 117<74.2861 151.713>
VStem: 65 96<7.98718 92.4973 428.987 513.497>
LayerCount: 3
Fore
SplineSet
112 -8 m 0,0,1
 143 -8 143 -8 152 7.5 c 128,-1,2
 161 23 161 23 161 50 c 0,3,4
 161 63 161 63 159.5 71.5 c 128,-1,5
 158 80 158 80 153.5 89.5 c 128,-1,6
 149 99 149 99 138.5 104 c 128,-1,7
 128 109 128 109 112 109 c 0,8,9
 83 109 83 109 74 93 c 128,-1,10
 65 77 65 77 65 50 c 0,11,12
 65 33 65 33 67 22.5 c 128,-1,13
 69 12 69 12 80.5 2 c 128,-1,14
 92 -8 92 -8 112 -8 c 0,0,1
112 413 m 0,15,16
 143 413 143 413 152 428.5 c 128,-1,17
 161 444 161 444 161 471 c 0,18,19
 161 484 161 484 159.5 492.5 c 128,-1,20
 158 501 158 501 153.5 510.5 c 128,-1,21
 149 520 149 520 138.5 525 c 128,-1,22
 128 530 128 530 112 530 c 0,23,24
 83 530 83 530 74 514 c 128,-1,25
 65 498 65 498 65 471 c 0,26,27
 65 454 65 454 67 443.5 c 128,-1,28
 69 433 69 433 80.5 423 c 128,-1,29
 92 413 92 413 112 413 c 0,15,16
EndSplineSet
Validated: 9
Layer: 2
SplineSet
112 -8 m 0
 158 -8 161 23 161 50 c 0
 161 78 158 109 112 109 c 0
 68 109 65 78 65 50 c 0
 65 23 68 -8 112 -8 c 0
112 413 m 0
 158 413 161 444 161 471 c 0
 161 499 158 530 112 530 c 0
 68 530 65 499 65 471 c 0
 65 444 68 413 112 413 c 0
EndSplineSet
EndChar

StartChar: semicolon
Encoding: 28 59 30
Width: 226
GlyphClass: 2
Flags: W
HStem: 413 117<74.2861 151.713>
VStem: 65 96<-13.7158 92.4973 428.987 513.497> 77 84<-31.1113 76.8416>
LayerCount: 3
Fore
SplineSet
65 50 m 0,0,1
 65 37 65 37 71 16 c 128,-1,2
 77 -5 77 -5 77 -14 c 0,3,4
 77 -34 77 -34 71 -49.5 c 128,-1,5
 65 -65 65 -65 58 -73 c 128,-1,6
 51 -81 51 -81 38 -93 c 1,7,-1
 61 -120 l 1,8,9
 65 -117 65 -117 72 -112 c 128,-1,10
 79 -107 79 -107 96 -89.5 c 128,-1,11
 113 -72 113 -72 126 -53.5 c 128,-1,12
 139 -35 139 -35 150 -6.5 c 128,-1,13
 161 22 161 22 161 50 c 0,14,15
 161 63 161 63 159.5 71.5 c 128,-1,16
 158 80 158 80 153.5 89.5 c 128,-1,17
 149 99 149 99 138.5 104 c 128,-1,18
 128 109 128 109 112 109 c 0,19,20
 83 109 83 109 74 93 c 128,-1,21
 65 77 65 77 65 50 c 0,0,1
112 413 m 0,22,23
 143 413 143 413 152 428.5 c 128,-1,24
 161 444 161 444 161 471 c 0,25,26
 161 484 161 484 159.5 492.5 c 128,-1,27
 158 501 158 501 153.5 510.5 c 128,-1,28
 149 520 149 520 138.5 525 c 128,-1,29
 128 530 128 530 112 530 c 0,30,31
 83 530 83 530 74 514 c 128,-1,32
 65 498 65 498 65 471 c 0,33,34
 65 454 65 454 67 443.5 c 128,-1,35
 69 433 69 433 80.5 423 c 128,-1,36
 92 413 92 413 112 413 c 0,22,23
EndSplineSet
Validated: 9
Layer: 2
SplineSet
65 50 m 0
 65 25 77 5 77 -14 c 0
 77 -57 59 -74 38 -93 c 1
 61 -120 l 1
 61 -120 161 -51 161 50 c 0
 161 78 158 109 112 109 c 0
 68 109 65 78 65 50 c 0
112 413 m 0
 158 413 161 444 161 471 c 0
 161 499 158 530 112 530 c 0
 68 530 65 499 65 471 c 0
 65 444 68 413 112 413 c 0
EndSplineSet
EndChar

StartChar: less
Encoding: 29 60 31
Width: 580
GlyphClass: 2
Flags: W
LayerCount: 3
Fore
SplineSet
89 279 m 1,0,-1
 491 111 l 1,1,-1
 491 177 l 1,2,-1
 148 317 l 1,3,-1
 491 457 l 1,4,-1
 491 523 l 1,5,-1
 89 355 l 1,6,-1
 89 279 l 1,0,-1
EndSplineSet
Validated: 9
Layer: 2
SplineSet
89 279 m 1
 491 111 l 1
 491 177 l 1
 148 317 l 1
 491 457 l 1
 491 523 l 1
 89 355 l 1
 89 279 l 1
EndSplineSet
EndChar

StartChar: equal
Encoding: 30 61 32
Width: 580
GlyphClass: 2
Flags: W
LayerCount: 3
Fore
SplineSet
94 388 m 1,0,-1
 486 388 l 1,1,-1
 486 448 l 1,2,-1
 94 448 l 1,3,-1
 94 388 l 1,0,-1
94 188 m 1,4,-1
 486 188 l 1,5,-1
 486 248 l 1,6,-1
 94 248 l 1,7,-1
 94 188 l 1,4,-1
EndSplineSet
Validated: 9
Layer: 2
SplineSet
94 388 m 1
 486 388 l 1
 486 448 l 1
 94 448 l 1
 94 388 l 1
94 188 m 1
 486 188 l 1
 486 248 l 1
 94 248 l 1
 94 188 l 1
EndSplineSet
EndChar

StartChar: greater
Encoding: 31 62 33
Width: 580
GlyphClass: 2
Flags: W
LayerCount: 3
Fore
SplineSet
491 355 m 1,0,-1
 89 523 l 1,1,-1
 89 457 l 1,2,-1
 432 317 l 1,3,-1
 89 177 l 1,4,-1
 89 111 l 1,5,-1
 491 279 l 1,6,-1
 491 355 l 1,0,-1
EndSplineSet
Validated: 9
Layer: 2
SplineSet
491 355 m 1
 89 523 l 1
 89 457 l 1
 432 317 l 1
 89 177 l 1
 89 111 l 1
 491 279 l 1
 491 355 l 1
EndSplineSet
EndChar

StartChar: question
Encoding: 32 63 34
Width: 484
GlyphClass: 2
Flags: W
HStem: -8 117<184.286 261.713> 685 59<144.88 332.593>
VStem: 42 60<572 643.039> 175 96<7.98718 92.4973> 200 46<185 277.909> 384 68<437.457 631.257>
LayerCount: 3
Fore
SplineSet
222 -8 m 0,0,1
 193 -8 193 -8 184 7.5 c 128,-1,2
 175 23 175 23 175 50 c 0,3,4
 175 68 175 68 177 78.5 c 128,-1,5
 179 89 179 89 190 99 c 128,-1,6
 201 109 201 109 222 109 c 0,7,8
 253 109 253 109 262 93 c 128,-1,9
 271 77 271 77 271 50 c 0,10,11
 271 38 271 38 269.5 29.5 c 128,-1,12
 268 21 268 21 263.5 11.5 c 128,-1,13
 259 2 259 2 248.5 -3 c 128,-1,14
 238 -8 238 -8 222 -8 c 0,0,1
273 333 m 2,15,16
 365 347 365 347 408.5 389 c 128,-1,17
 452 431 452 431 452 535 c 0,18,19
 452 638 452 638 403 691 c 128,-1,20
 354 744 354 744 239 744 c 0,21,22
 135 744 135 744 88.5 700 c 128,-1,23
 42 656 42 656 42 572 c 1,24,-1
 102 572 l 1,25,26
 102 685 102 685 238 685 c 0,27,28
 320 685 320 685 352 646.5 c 128,-1,29
 384 608 384 608 384 533 c 0,30,31
 384 453 384 453 348 421 c 128,-1,32
 312 389 312 389 244 381 c 2,33,-1
 193 375 l 1,34,-1
 200 185 l 1,35,-1
 246 185 l 1,36,-1
 257 331 l 1,37,-1
 273 333 l 2,15,16
EndSplineSet
Validated: 9
Layer: 2
SplineSet
222 -8 m 0
 178 -8 175 23 175 50 c 0
 175 78 178 109 222 109 c 0
 268 109 271 78 271 50 c 0
 271 23 268 -8 222 -8 c 0
273 333 m 2
 384 350 452 387 452 535 c 0
 452 666 399 744 239 744 c 0
 95 744 42 680 42 572 c 1
 102 572 l 1
 102 640 137 685 238 685 c 0
 354 685 384 625 384 533 c 0
 384 418 323 390 244 381 c 2
 193 375 l 1
 200 185 l 1
 246 185 l 1
 257 331 l 1
 273 333 l 2
EndSplineSet
EndChar

StartChar: at
Encoding: 33 64 35
Width: 980
GlyphClass: 2
Flags: W
HStem: -89 55<326.621 490> 106 52<386.327 535.016> 531 55<404.77 563.068> 690 55<326.342 653.648>
VStem: 90 70<134.512 521.488> 303 65<175.947 303.965> 323 58<442 506.679> 584 64<196.404 214 456 510.969> 820 70<136.097 517.685>
LayerCount: 3
Fore
SplineSet
584 -87 m 1,0,1
 757 -68 757 -68 823.5 31.5 c 128,-1,2
 890 131 890 131 890 328 c 0,3,4
 890 437 890 437 872.5 510.5 c 128,-1,5
 855 584 855 584 810.5 639 c 128,-1,6
 766 694 766 694 687.5 719.5 c 128,-1,7
 609 745 609 745 490 745 c 128,-1,8
 371 745 371 745 292.5 719.5 c 128,-1,9
 214 694 214 694 169.5 639 c 128,-1,10
 125 584 125 584 107.5 510.5 c 128,-1,11
 90 437 90 437 90 328 c 128,-1,12
 90 219 90 219 107.5 145.5 c 128,-1,13
 125 72 125 72 169.5 17 c 128,-1,14
 214 -38 214 -38 292.5 -63.5 c 128,-1,15
 371 -89 371 -89 490 -89 c 1,16,-1
 490 -34 l 1,17,18
 408 -34 408 -34 349.5 -19 c 128,-1,19
 291 -4 291 -4 254 23.5 c 128,-1,20
 217 51 217 51 196 97.5 c 128,-1,21
 175 144 175 144 167.5 197.5 c 128,-1,22
 160 251 160 251 160 328 c 128,-1,23
 160 405 160 405 167.5 458.5 c 128,-1,24
 175 512 175 512 196 558.5 c 128,-1,25
 217 605 217 605 254 632.5 c 128,-1,26
 291 660 291 660 349.5 675 c 128,-1,27
 408 690 408 690 490 690 c 128,-1,28
 572 690 572 690 630.5 675 c 128,-1,29
 689 660 689 660 725.5 632.5 c 128,-1,30
 762 605 762 605 783 558.5 c 128,-1,31
 804 512 804 512 812 458.5 c 128,-1,32
 820 405 820 405 820 328 c 0,33,34
 820 253 820 253 813 199.5 c 128,-1,35
 806 146 806 146 788 98.5 c 128,-1,36
 770 51 770 51 735.5 21.5 c 128,-1,37
 701 -8 701 -8 648 -20 c 1,38,-1
 648 458 l 2,39,40
 648 586 648 586 490 586 c 0,41,42
 398 586 398 586 363 550 c 128,-1,43
 328 514 328 514 323 442 c 1,44,-1
 381 440 l 1,45,46
 384 488 384 488 405 509.5 c 128,-1,47
 426 531 426 531 488 531 c 0,48,49
 537 531 537 531 560.5 514 c 128,-1,50
 584 497 584 497 584 456 c 2,51,-1
 584 378 l 1,52,-1
 444 370 l 2,53,54
 362 365 362 365 332.5 333.5 c 128,-1,55
 303 302 303 302 303 233 c 0,56,57
 303 170 303 170 333.5 138 c 128,-1,58
 364 106 364 106 438 106 c 0,59,60
 519 106 519 106 584 159 c 1,61,-1
 584 -87 l 1,0,1
452 158 m 0,62,63
 406 158 406 158 387 176.5 c 128,-1,64
 368 195 368 195 368 233 c 0,65,66
 368 284 368 284 385.5 302.5 c 128,-1,67
 403 321 403 321 452 324 c 2,68,-1
 584 332 l 1,69,-1
 584 214 l 1,70,71
 523 158 523 158 452 158 c 0,62,63
EndSplineSet
Validated: 9
Layer: 2
SplineSet
584 -87 m 1
 826 -61 890 81 890 328 c 0
 890 604 810 745 490 745 c 0
 169 745 90 604 90 328 c 0
 90 52 169 -89 490 -89 c 1
 490 -34 l 1
 213 -34 160 88 160 328 c 0
 160 568 213 690 490 690 c 0
 766 690 820 568 820 328 c 0
 820 144 792 13 648 -20 c 1
 648 458 l 2
 648 557 578 586 490 586 c 0
 359 586 329 528 323 442 c 1
 381 440 l 1
 385 497 399 531 488 531 c 0
 551 531 584 512 584 456 c 2
 584 378 l 1
 444 370 l 2
 330 363 303 321 303 233 c 0
 303 154 335 106 438 106 c 0
 498 106 551 132 584 159 c 1
 584 -87 l 1
452 158 m 0
 389 158 368 185 368 233 c 0
 368 301 387 320 452 324 c 2
 584 332 l 1
 584 214 l 1
 544 177 498 158 452 158 c 0
EndSplineSet
EndChar

StartChar: A
Encoding: 34 65 36
Width: 653
GlyphClass: 2
Flags: W
LayerCount: 3
Fore
SplineSet
278 730 m 1,0,-1
 51 50 l 1,1,-1
 5 50 l 1,2,-1
 5 0 l 1,3,-1
 183 0 l 1,4,-1
 183 50 l 1,5,-1
 123 50 l 1,6,-1
 184 236 l 1,7,-1
 468 236 l 1,8,-1
 529 50 l 1,9,-1
 470 50 l 1,10,-1
 470 0 l 1,11,-1
 648 0 l 1,12,-1
 648 50 l 1,13,-1
 601 50 l 1,14,-1
 375 730 l 1,15,-1
 278 730 l 1,0,-1
326 667 m 1,16,-1
 449 295 l 1,17,-1
 204 295 l 1,18,-1
 326 667 l 1,16,-1
EndSplineSet
Validated: 9
Layer: 2
SplineSet
278 730 m 1
 51 50 l 1
 5 50 l 1
 5 0 l 1
 183 0 l 1
 183 50 l 1
 123 50 l 1
 184 236 l 1
 468 236 l 1
 529 50 l 1
 470 50 l 1
 470 0 l 1
 648 0 l 1
 648 50 l 1
 601 50 l 1
 375 730 l 1
 278 730 l 1
326 667 m 1
 449 295 l 1
 204 295 l 1
 326 667 l 1
EndSplineSet
Position2: "'cpsp' Capital Spacing lookup 0 subtable" dx=5 dy=0 dh=10 dv=0
EndChar

StartChar: B
Encoding: 35 66 37
Width: 629
GlyphClass: 2
Flags: W
HStem: 0 59<360 461.496> 343 61<320 421.845> 671 59<320 423.102>
VStem: 467 72<448.024 627.506> 507 72<105.331 295.172>
LayerCount: 3
Fore
SplineSet
360 0 m 2,0,1
 416 0 416 0 456.5 11 c 128,-1,2
 497 22 497 22 520.5 39 c 128,-1,3
 544 56 544 56 557.5 83 c 128,-1,4
 571 110 571 110 575 135.5 c 128,-1,5
 579 161 579 161 579 195 c 0,6,7
 579 270 579 270 551 316.5 c 128,-1,8
 523 363 523 363 442 378 c 1,9,10
 499 399 499 399 519 440 c 128,-1,11
 539 481 539 481 539 543 c 0,12,13
 539 576 539 576 535 600.5 c 128,-1,14
 531 625 531 625 517.5 650.5 c 128,-1,15
 504 676 504 676 480.5 692.5 c 128,-1,16
 457 709 457 709 416.5 719.5 c 128,-1,17
 376 730 376 730 320 730 c 2,18,-1
 70 730 l 1,19,-1
 70 680 l 1,20,-1
 130 680 l 1,21,-1
 130 50 l 1,22,-1
 70 50 l 1,23,-1
 70 0 l 1,24,-1
 360 0 l 2,0,1
202 59 m 1,25,-1
 202 343 l 1,26,-1
 360 343 l 2,27,28
 448 343 448 343 477.5 306.5 c 128,-1,29
 507 270 507 270 507 199 c 0,30,31
 507 130 507 130 477.5 94.5 c 128,-1,32
 448 59 448 59 360 59 c 2,33,-1
 202 59 l 1,25,-1
202 404 m 1,34,-1
 202 671 l 1,35,-1
 320 671 l 2,36,37
 408 671 408 671 437.5 637.5 c 128,-1,38
 467 604 467 604 467 537 c 0,39,40
 467 472 467 472 437.5 438 c 128,-1,41
 408 404 408 404 320 404 c 2,42,-1
 202 404 l 1,34,-1
EndSplineSet
Validated: 9
Layer: 2
SplineSet
360 0 m 2
 553 0 579 93 579 195 c 0
 579 280 560 356 442 378 c 1
 525 408 539 472 539 543 c 0
 539 640 513 730 320 730 c 2
 70 730 l 1
 70 680 l 1
 130 680 l 1
 130 50 l 1
 70 50 l 1
 70 0 l 1
 360 0 l 2
202 59 m 1
 202 343 l 1
 360 343 l 2
 488 343 507 280 507 199 c 0
 507 120 488 59 360 59 c 2
 202 59 l 1
202 404 m 1
 202 671 l 1
 320 671 l 2
 448 671 467 614 467 537 c 0
 467 462 448 404 320 404 c 2
 202 404 l 1
EndSplineSet
Position2: "'cpsp' Capital Spacing lookup 0 subtable" dx=5 dy=0 dh=10 dv=0
EndChar

StartChar: C
Encoding: 36 67 38
Width: 619
GlyphClass: 2
Flags: W
HStem: -14 60<225.84 437.014> 684 60<224.847 431.942>
VStem: 60 72<148.74 255 365 571.844> 508 54<514 604.133>
LayerCount: 3
Fore
SplineSet
508 730 m 1,0,-1
 508 656 l 1,1,2
 457 744 457 744 326 744 c 0,3,4
 242 744 242 744 188 719.5 c 128,-1,5
 134 695 134 695 106.5 642 c 128,-1,6
 79 589 79 589 69.5 526 c 128,-1,7
 60 463 60 463 60 365 c 0,8,9
 60 300 60 300 63 255 c 128,-1,10
 66 210 66 210 75.5 163 c 128,-1,11
 85 116 85 116 104 86.5 c 128,-1,12
 123 57 123 57 153 32.5 c 128,-1,13
 183 8 183 8 228.5 -3 c 128,-1,14
 274 -14 274 -14 336 -14 c 0,15,16
 400 -14 400 -14 444 1.5 c 128,-1,17
 488 17 488 17 512 48.5 c 128,-1,18
 536 80 536 80 547 117.5 c 128,-1,19
 558 155 558 155 562 209 c 1,20,-1
 503 212 l 1,21,22
 500 134 500 134 463.5 90 c 128,-1,23
 427 46 427 46 336 46 c 0,24,25
 279 46 279 46 240 61.5 c 128,-1,26
 201 77 201 77 180 100 c 128,-1,27
 159 123 159 123 148 169 c 128,-1,28
 137 215 137 215 134.5 255 c 128,-1,29
 132 295 132 295 132 365 c 0,30,31
 132 431 132 431 135.5 474.5 c 128,-1,32
 139 518 139 518 150.5 561.5 c 128,-1,33
 162 605 162 605 182.5 629.5 c 128,-1,34
 203 654 203 654 239 669 c 128,-1,35
 275 684 275 684 326 684 c 0,36,37
 421 684 421 684 461.5 640.5 c 128,-1,38
 502 597 502 597 508 514 c 1,39,-1
 562 514 l 1,40,-1
 562 730 l 1,41,-1
 508 730 l 1,0,-1
EndSplineSet
Validated: 9
Layer: 2
SplineSet
508 730 m 1
 508 656 l 1
 477 710 420 744 326 744 c 0
 96 744 60 602 60 365 c 0
 60 130 86 -14 336 -14 c 0
 512 -14 553 77 562 209 c 1
 503 212 l 1
 500 120 467 46 336 46 c 0
 141 46 132 168 132 365 c 0
 132 562 152 684 326 684 c 0
 461 684 501 616 508 514 c 1
 562 514 l 1
 562 730 l 1
 508 730 l 1
EndSplineSet
Position2: "'cpsp' Capital Spacing lookup 0 subtable" dx=5 dy=0 dh=10 dv=0
EndChar

StartChar: D
Encoding: 37 68 39
Width: 688
GlyphClass: 2
Flags: W
HStem: 0 59<345 460.35> 671 59<345 461.529>
VStem: 556 72<172.865 238.5 471.5 557.587>
LayerCount: 3
Fore
SplineSet
202 730 m 1,0,-1
 70 730 l 1,1,-1
 70 680 l 1,2,-1
 130 680 l 1,3,-1
 130 50 l 1,4,-1
 70 50 l 1,5,-1
 70 0 l 1,6,-1
 345 0 l 2,7,8
 420 0 420 0 472 17 c 128,-1,9
 524 34 524 34 554.5 62 c 128,-1,10
 585 90 585 90 601.5 139 c 128,-1,11
 618 188 618 188 623 238.5 c 128,-1,12
 628 289 628 289 628 365 c 0,13,14
 628 428 628 428 624.5 471.5 c 128,-1,15
 621 515 621 515 611 559.5 c 128,-1,16
 601 604 601 604 582 632.5 c 128,-1,17
 563 661 563 661 532 685 c 128,-1,18
 501 709 501 709 454.5 719.5 c 128,-1,19
 408 730 408 730 345 730 c 2,20,-1
 202 730 l 1,0,-1
345 671 m 2,21,22
 414 671 414 671 457.5 651 c 128,-1,23
 501 631 501 631 522 587 c 128,-1,24
 543 543 543 543 549.5 494 c 128,-1,25
 556 445 556 445 556 365 c 128,-1,26
 556 285 556 285 549.5 236 c 128,-1,27
 543 187 543 187 522 143 c 128,-1,28
 501 99 501 99 457.5 79 c 128,-1,29
 414 59 414 59 345 59 c 2,30,-1
 202 59 l 1,31,-1
 202 671 l 1,32,-1
 345 671 l 2,21,22
EndSplineSet
Validated: 9
Layer: 2
SplineSet
202 730 m 1
 70 730 l 1
 70 680 l 1
 130 680 l 1
 130 50 l 1
 70 50 l 1
 70 0 l 1
 345 0 l 2
 600 0 628 137 628 365 c 0
 628 591 600 730 345 730 c 2
 202 730 l 1
345 671 m 2
 535 671 556 553 556 365 c 0
 556 177 535 59 345 59 c 2
 202 59 l 1
 202 671 l 1
 345 671 l 2
EndSplineSet
Position2: "'cpsp' Capital Spacing lookup 0 subtable" dx=5 dy=0 dh=10 dv=0
EndChar

StartChar: E
Encoding: 38 69 40
Width: 620
GlyphClass: 2
Flags: W
HStem: 651 20G<202 484>
LayerCount: 3
Fore
SplineSet
70 0 m 1,0,-1
 560 0 l 1,1,-1
 560 158 l 1,2,-1
 504 158 l 1,3,-1
 504 59 l 1,4,-1
 202 59 l 1,5,-1
 202 341 l 1,6,-1
 490 341 l 1,7,-1
 490 401 l 1,8,-1
 202 401 l 1,9,-1
 202 671 l 1,10,-1
 484 671 l 1,11,-1
 484 572 l 1,12,-1
 540 572 l 1,13,-1
 540 730 l 1,14,-1
 70 730 l 1,15,-1
 70 680 l 1,16,-1
 130 680 l 1,17,-1
 130 50 l 1,18,-1
 70 50 l 1,19,-1
 70 0 l 1,0,-1
EndSplineSet
Validated: 9
Layer: 2
SplineSet
70 0 m 1
 560 0 l 1
 560 158 l 1
 504 158 l 1
 504 59 l 1
 202 59 l 1
 202 341 l 1
 490 341 l 1
 490 401 l 1
 202 401 l 1
 202 671 l 1
 484 671 l 1
 484 572 l 1
 540 572 l 1
 540 730 l 1
 70 730 l 1
 70 680 l 1
 130 680 l 1
 130 50 l 1
 70 50 l 1
 70 0 l 1
EndSplineSet
Position2: "'cpsp' Capital Spacing lookup 0 subtable" dx=5 dy=0 dh=10 dv=0
EndChar

StartChar: F
Encoding: 39 70 41
Width: 560
GlyphClass: 2
Flags: W
HStem: 651 20G<202 464>
LayerCount: 3
Fore
SplineSet
70 680 m 1,0,-1
 130 680 l 1,1,-1
 130 671 l 1,2,-1
 130 51 l 1,3,-1
 70 51 l 1,4,-1
 70 0 l 1,5,-1
 282 0 l 1,6,-1
 282 51 l 1,7,-1
 202 51 l 1,8,-1
 202 341 l 1,9,-1
 470 341 l 1,10,-1
 470 401 l 1,11,-1
 202 401 l 1,12,-1
 202 671 l 1,13,-1
 464 671 l 1,14,-1
 464 572 l 1,15,-1
 520 572 l 1,16,-1
 520 730 l 1,17,-1
 70 730 l 1,18,-1
 70 680 l 1,0,-1
EndSplineSet
Validated: 9
Layer: 2
SplineSet
70 680 m 1
 130 680 l 1
 130 671 l 1
 130 51 l 1
 70 51 l 1
 70 0 l 1
 282 0 l 1
 282 51 l 1
 202 51 l 1
 202 341 l 1
 470 341 l 1
 470 401 l 1
 202 401 l 1
 202 671 l 1
 464 671 l 1
 464 572 l 1
 520 572 l 1
 520 730 l 1
 70 730 l 1
 70 680 l 1
EndSplineSet
Position2: "'cpsp' Capital Spacing lookup 0 subtable" dx=5 dy=0 dh=10 dv=0
EndChar

StartChar: G
Encoding: 40 71 42
Width: 672
GlyphClass: 2
Flags: W
HStem: -14 60<214.844 431.639> 684 60<230.166 438.771>
VStem: 60 72<139.445 269.5 474.5 570.004> 508 64<120.935 315 514 611.964> 531 41<0 53.4545>
LayerCount: 3
Fore
SplineSet
394 315 m 1,0,-1
 508 315 l 1,1,-1
 508 212 l 1,2,3
 503 46 503 46 327 46 c 0,4,5
 281 46 281 46 248 54.5 c 128,-1,6
 215 63 215 63 193.5 83.5 c 128,-1,7
 172 104 172 104 159.5 127 c 128,-1,8
 147 150 147 150 141 191.5 c 128,-1,9
 135 233 135 233 133.5 268.5 c 128,-1,10
 132 304 132 304 132 365 c 0,11,12
 132 431 132 431 135.5 474.5 c 128,-1,13
 139 518 139 518 151 561.5 c 128,-1,14
 163 605 163 605 185 629.5 c 128,-1,15
 207 654 207 654 245 669 c 128,-1,16
 283 684 283 684 337 684 c 0,17,18
 430 684 430 684 468.5 638.5 c 128,-1,19
 507 593 507 593 513 514 c 1,20,-1
 567 514 l 1,21,-1
 567 730 l 1,22,-1
 513 730 l 1,23,-1
 513 653 l 1,24,25
 463 744 463 744 337 744 c 0,26,27
 266 744 266 744 215.5 726.5 c 128,-1,28
 165 709 165 709 135 679.5 c 128,-1,29
 105 650 105 650 88 600 c 128,-1,30
 71 550 71 550 65.5 496.5 c 128,-1,31
 60 443 60 443 60 365 c 0,32,33
 60 307 60 307 61.5 269.5 c 128,-1,34
 63 232 63 232 69 188 c 128,-1,35
 75 144 75 144 86 116.5 c 128,-1,36
 97 89 97 89 116.5 61.5 c 128,-1,37
 136 34 136 34 164.5 19.5 c 128,-1,38
 193 5 193 5 233.5 -4.5 c 128,-1,39
 274 -14 274 -14 327 -14 c 0,40,41
 465 -14 465 -14 520 84 c 1,42,-1
 531 0 l 1,43,-1
 572 0 l 1,44,-1
 572 365 l 1,45,-1
 394 365 l 1,46,-1
 394 315 l 1,0,-1
EndSplineSet
Validated: 9
Layer: 2
SplineSet
394 315 m 1
 508 315 l 1
 508 212 l 2
 505 120 461 46 327 46 c 0
 141 46 132 158 132 365 c 0
 132 562 152 684 337 684 c 0
 471 684 506 606 513 514 c 1
 567 514 l 1
 567 730 l 1
 513 730 l 1
 513 653 l 1
 482 709 427 744 337 744 c 0
 96 744 60 602 60 365 c 0
 60 130 76 -14 327 -14 c 0
 430 -14 487 25 520 84 c 1
 531 0 l 1
 572 0 l 1
 572 365 l 1
 394 365 l 1
 394 315 l 1
EndSplineSet
Position2: "'cpsp' Capital Spacing lookup 0 subtable" dx=5 dy=0 dh=10 dv=0
EndChar

StartChar: H
Encoding: 41 72 43
Width: 752
GlyphClass: 2
Flags: W
LayerCount: 3
Fore
SplineSet
490 0 m 1,0,-1
 682 0 l 1,1,-1
 682 50 l 1,2,-1
 622 50 l 1,3,-1
 622 680 l 1,4,-1
 682 680 l 1,5,-1
 682 730 l 1,6,-1
 490 730 l 1,7,-1
 490 680 l 1,8,-1
 550 680 l 1,9,-1
 550 395 l 1,10,-1
 202 395 l 1,11,-1
 202 680 l 1,12,-1
 262 680 l 1,13,-1
 262 730 l 1,14,-1
 70 730 l 1,15,-1
 70 680 l 1,16,-1
 130 680 l 1,17,-1
 130 50 l 1,18,-1
 70 50 l 1,19,-1
 70 0 l 1,20,-1
 262 0 l 1,21,-1
 262 50 l 1,22,-1
 202 50 l 1,23,-1
 202 335 l 1,24,-1
 550 335 l 1,25,-1
 550 50 l 1,26,-1
 490 50 l 1,27,-1
 490 0 l 1,0,-1
EndSplineSet
Validated: 9
Layer: 2
SplineSet
490 0 m 1
 682 0 l 1
 682 50 l 1
 622 50 l 1
 622 680 l 1
 682 680 l 1
 682 730 l 1
 490 730 l 1
 490 680 l 1
 550 680 l 1
 550 395 l 1
 202 395 l 1
 202 680 l 1
 262 680 l 1
 262 730 l 1
 70 730 l 1
 70 680 l 1
 130 680 l 1
 130 50 l 1
 70 50 l 1
 70 0 l 1
 262 0 l 1
 262 50 l 1
 202 50 l 1
 202 335 l 1
 550 335 l 1
 550 50 l 1
 490 50 l 1
 490 0 l 1
EndSplineSet
Position2: "'cpsp' Capital Spacing lookup 0 subtable" dx=5 dy=0 dh=10 dv=0
EndChar

StartChar: I
Encoding: 42 73 44
Width: 352
GlyphClass: 2
Flags: W
VStem: 70 212
LayerCount: 3
Fore
SplineSet
70 680 m 1,0,-1
 140 680 l 1,1,-1
 140 50 l 1,2,-1
 70 50 l 1,3,-1
 70 0 l 1,4,-1
 282 0 l 1,5,-1
 282 50 l 1,6,-1
 212 50 l 1,7,-1
 212 680 l 1,8,-1
 282 680 l 1,9,-1
 282 730 l 1,10,-1
 70 730 l 1,11,-1
 70 680 l 1,0,-1
EndSplineSet
Validated: 9
Layer: 2
SplineSet
70 680 m 1
 140 680 l 1
 140 50 l 1
 70 50 l 1
 70 0 l 1
 282 0 l 1
 282 50 l 1
 212 50 l 1
 212 680 l 1
 282 680 l 1
 282 730 l 1
 70 730 l 1
 70 680 l 1
EndSplineSet
Position2: "'cpsp' Capital Spacing lookup 0 subtable" dx=5 dy=0 dh=10 dv=0
EndChar

StartChar: J
Encoding: 43 74 45
Width: 471
GlyphClass: 2
Flags: W
HStem: -14 60<112.221 266.908>
VStem: 21 61<76.949 183> 294 72<73.3438 183>
LayerCount: 3
Fore
SplineSet
214 680 m 1,0,-1
 294 680 l 1,1,-1
 294 183 l 2,2,3
 294 104 294 104 273.5 75 c 128,-1,4
 253 46 253 46 190 46 c 128,-1,5
 127 46 127 46 104.5 76 c 128,-1,6
 82 106 82 106 82 183 c 1,7,-1
 20 183 l 1,8,9
 20 151 20 151 21 132 c 128,-1,10
 22 113 22 113 27 87 c 128,-1,11
 32 61 32 61 43 45.5 c 128,-1,12
 54 30 54 30 72 15 c 128,-1,13
 90 0 90 0 119 -7 c 128,-1,14
 148 -14 148 -14 188 -14 c 0,15,16
 236 -14 236 -14 269 -3.5 c 128,-1,17
 302 7 302 7 321 23 c 128,-1,18
 340 39 340 39 350 66.5 c 128,-1,19
 360 94 360 94 363 119.5 c 128,-1,20
 366 145 366 145 366 183 c 2,21,-1
 366 680 l 1,22,-1
 426 680 l 1,23,-1
 426 730 l 1,24,-1
 214 730 l 1,25,-1
 214 680 l 1,0,-1
EndSplineSet
Validated: 9
Layer: 2
SplineSet
214 680 m 1
 294 680 l 1
 294 183 l 2
 294 80 276 46 190 46 c 0
 104 46 82 83 82 183 c 1
 20 183 l 1
 20 81 25 -14 188 -14 c 0
 351 -14 366 73 366 183 c 2
 366 680 l 1
 426 680 l 1
 426 730 l 1
 214 730 l 1
 214 680 l 1
EndSplineSet
Position2: "'cpsp' Capital Spacing lookup 0 subtable" dx=5 dy=0 dh=10 dv=0
EndChar

StartChar: K
Encoding: 44 75 46
Width: 629
GlyphClass: 2
Flags: W
LayerCount: 3
Fore
SplineSet
427 0 m 1,0,-1
 609 0 l 1,1,-1
 609 50 l 1,2,-1
 556 50 l 1,3,-1
 342 368 l 1,4,-1
 545 680 l 1,5,-1
 599 680 l 1,6,-1
 599 730 l 1,7,-1
 417 730 l 1,8,-1
 417 680 l 1,9,-1
 470 680 l 1,10,-1
 289 399 l 1,11,-1
 202 399 l 1,12,-1
 202 680 l 1,13,-1
 262 680 l 1,14,-1
 262 730 l 1,15,-1
 70 730 l 1,16,-1
 70 680 l 1,17,-1
 130 680 l 1,18,-1
 130 50 l 1,19,-1
 70 50 l 1,20,-1
 70 0 l 1,21,-1
 262 0 l 1,22,-1
 262 50 l 1,23,-1
 202 50 l 1,24,-1
 202 340 l 1,25,-1
 285 340 l 1,26,-1
 478 50 l 1,27,-1
 427 50 l 1,28,-1
 427 0 l 1,0,-1
EndSplineSet
Validated: 9
Layer: 2
SplineSet
427 0 m 1
 609 0 l 1
 609 50 l 1
 556 50 l 1
 342 368 l 1
 545 680 l 1
 599 680 l 1
 599 730 l 1
 417 730 l 1
 417 680 l 1
 470 680 l 1
 289 399 l 1
 202 399 l 1
 202 680 l 1
 262 680 l 1
 262 730 l 1
 70 730 l 1
 70 680 l 1
 130 680 l 1
 130 50 l 1
 70 50 l 1
 70 0 l 1
 262 0 l 1
 262 50 l 1
 202 50 l 1
 202 340 l 1
 285 340 l 1
 478 50 l 1
 427 50 l 1
 427 0 l 1
EndSplineSet
Position2: "'cpsp' Capital Spacing lookup 0 subtable" dx=5 dy=0 dh=10 dv=0
EndChar

StartChar: L
Encoding: 45 76 47
Width: 507
GlyphClass: 2
Flags: W
LayerCount: 3
Fore
SplineSet
70 680 m 1,0,-1
 130 680 l 1,1,-1
 130 50 l 1,2,-1
 70 50 l 1,3,-1
 70 0 l 1,4,-1
 497 0 l 1,5,-1
 497 158 l 1,6,-1
 441 158 l 1,7,-1
 441 59 l 1,8,-1
 202 59 l 1,9,-1
 202 680 l 1,10,-1
 282 680 l 1,11,-1
 282 730 l 1,12,-1
 70 730 l 1,13,-1
 70 680 l 1,0,-1
EndSplineSet
Validated: 9
Layer: 2
SplineSet
70 680 m 1
 130 680 l 1
 130 50 l 1
 70 50 l 1
 70 0 l 1
 497 0 l 1
 497 158 l 1
 441 158 l 1
 441 59 l 1
 202 59 l 1
 202 680 l 1
 282 680 l 1
 282 730 l 1
 70 730 l 1
 70 680 l 1
EndSplineSet
Position2: "'cpsp' Capital Spacing lookup 0 subtable" dx=5 dy=0 dh=10 dv=0
EndChar

StartChar: M
Encoding: 46 77 48
Width: 896
GlyphClass: 2
Flags: W
LayerCount: 3
Fore
SplineSet
634 0 m 1,0,-1
 826 0 l 1,1,-1
 826 50 l 1,2,-1
 766 50 l 1,3,-1
 766 680 l 1,4,-1
 826 680 l 1,5,-1
 826 730 l 1,6,-1
 667 730 l 1,7,-1
 441 142 l 1,8,-1
 229 730 l 1,9,-1
 70 730 l 1,10,-1
 70 680 l 1,11,-1
 130 680 l 1,12,-1
 130 50 l 1,13,-1
 70 50 l 1,14,-1
 70 0 l 1,15,-1
 262 0 l 1,16,-1
 262 50 l 1,17,-1
 202 50 l 1,18,-1
 202 609 l 1,19,-1
 404 56 l 1,20,-1
 476 56 l 1,21,-1
 694 617 l 1,22,-1
 694 50 l 1,23,-1
 634 50 l 1,24,-1
 634 0 l 1,0,-1
EndSplineSet
Validated: 9
Layer: 2
SplineSet
634 0 m 1
 826 0 l 1
 826 50 l 1
 766 50 l 1
 766 680 l 1
 826 680 l 1
 826 730 l 1
 667 730 l 1
 441 142 l 1
 229 730 l 1
 70 730 l 1
 70 680 l 1
 130 680 l 1
 130 50 l 1
 70 50 l 1
 70 0 l 1
 262 0 l 1
 262 50 l 1
 202 50 l 1
 202 609 l 1
 404 56 l 1
 476 56 l 1
 694 617 l 1
 694 50 l 1
 634 50 l 1
 634 0 l 1
EndSplineSet
Position2: "'cpsp' Capital Spacing lookup 0 subtable" dx=5 dy=0 dh=10 dv=0
EndChar

StartChar: N
Encoding: 47 78 49
Width: 770
GlyphClass: 2
Flags: W
LayerCount: 3
Fore
SplineSet
518 680 m 1,0,-1
 578 680 l 1,1,-1
 578 119 l 1,2,-1
 210 730 l 1,3,-1
 70 730 l 1,4,-1
 70 680 l 1,5,-1
 130 680 l 1,6,-1
 130 50 l 1,7,-1
 70 50 l 1,8,-1
 70 0 l 1,9,-1
 262 0 l 1,10,-1
 262 50 l 1,11,-1
 202 50 l 1,12,-1
 202 610 l 1,13,-1
 570 0 l 1,14,-1
 650 0 l 1,15,-1
 650 680 l 1,16,-1
 710 680 l 1,17,-1
 710 730 l 1,18,-1
 518 730 l 1,19,-1
 518 680 l 1,0,-1
EndSplineSet
Validated: 9
Layer: 2
SplineSet
518 680 m 1
 578 680 l 1
 578 119 l 1
 210 730 l 1
 70 730 l 1
 70 680 l 1
 130 680 l 1
 130 50 l 1
 70 50 l 1
 70 0 l 1
 262 0 l 1
 262 50 l 1
 202 50 l 1
 202 610 l 1
 570 0 l 1
 650 0 l 1
 650 680 l 1
 710 680 l 1
 710 730 l 1
 518 730 l 1
 518 680 l 1
EndSplineSet
Position2: "'cpsp' Capital Spacing lookup 0 subtable" dx=5 dy=0 dh=10 dv=0
EndChar

StartChar: O
Encoding: 48 79 50
Width: 685
GlyphClass: 2
Flags: W
HStem: -14 60<229.477 451.845> 684 60<229.242 451.845>
VStem: 60 72<157.859 572.807> 553 72<160.511 255.5 474.5 568.631>
LayerCount: 3
Fore
SplineSet
342 -14 m 256,0,1
 417 -14 417 -14 469 3.5 c 128,-1,2
 521 21 521 21 551.5 50 c 128,-1,3
 582 79 582 79 598.5 130 c 128,-1,4
 615 181 615 181 620 233.5 c 128,-1,5
 625 286 625 286 625 365 c 128,-1,6
 625 444 625 444 620 496 c 128,-1,7
 615 548 615 548 598.5 599 c 128,-1,8
 582 650 582 650 551.5 679 c 128,-1,9
 521 708 521 708 469 726 c 128,-1,10
 417 744 417 744 342 744 c 0,11,12
 279 744 279 744 232.5 733 c 128,-1,13
 186 722 186 722 155.5 697.5 c 128,-1,14
 125 673 125 673 105.5 643.5 c 128,-1,15
 86 614 86 614 76.5 567 c 128,-1,16
 67 520 67 520 63.5 475 c 128,-1,17
 60 430 60 430 60 365 c 0,18,19
 60 285 60 285 65 233.5 c 128,-1,20
 70 182 70 182 86 130.5 c 128,-1,21
 102 79 102 79 132.5 50 c 128,-1,22
 163 21 163 21 215 3.5 c 128,-1,23
 267 -14 267 -14 342 -14 c 256,0,1
342 46 m 0,24,25
 295 46 295 46 260.5 55.5 c 128,-1,26
 226 65 226 65 203 85.5 c 128,-1,27
 180 106 180 106 165.5 131 c 128,-1,28
 151 156 151 156 144 195.5 c 128,-1,29
 137 235 137 235 134.5 272.5 c 128,-1,30
 132 310 132 310 132 365 c 128,-1,31
 132 420 132 420 134.5 457.5 c 128,-1,32
 137 495 137 495 144 534.5 c 128,-1,33
 151 574 151 574 165.5 599 c 128,-1,34
 180 624 180 624 203 644.5 c 128,-1,35
 226 665 226 665 260.5 674.5 c 128,-1,36
 295 684 295 684 342 684 c 0,37,38
 398 684 398 684 436.5 669 c 128,-1,39
 475 654 475 654 498 629.5 c 128,-1,40
 521 605 521 605 533.5 561.5 c 128,-1,41
 546 518 546 518 549.5 474.5 c 128,-1,42
 553 431 553 431 553 365 c 128,-1,43
 553 299 553 299 549.5 255.5 c 128,-1,44
 546 212 546 212 533.5 168.5 c 128,-1,45
 521 125 521 125 498 100.5 c 128,-1,46
 475 76 475 76 436.5 61 c 128,-1,47
 398 46 398 46 342 46 c 0,24,25
EndSplineSet
Validated: 9
Layer: 2
SplineSet
342 -14 m 0
 596 -14 625 128 625 365 c 0
 625 600 596 744 342 744 c 0
 87 744 60 600 60 365 c 0
 60 128 87 -14 342 -14 c 0
342 46 m 0
 152 46 132 168 132 365 c 0
 132 562 152 684 342 684 c 0
 531 684 553 562 553 365 c 0
 553 168 531 46 342 46 c 0
EndSplineSet
Position2: "'cpsp' Capital Spacing lookup 0 subtable" dx=5 dy=0 dh=10 dv=0
EndChar

StartChar: P
Encoding: 49 80 51
Width: 599
GlyphClass: 2
Flags: W
HStem: 275 59<330 427.199> 671 59<330 427.281>
VStem: 477 72<386.835 435 502 618.309>
LayerCount: 3
Fore
SplineSet
330 275 m 2,0,1
 387 275 387 275 428.5 288 c 128,-1,2
 470 301 470 301 493 320.5 c 128,-1,3
 516 340 516 340 529 372 c 128,-1,4
 542 404 542 404 545.5 433 c 128,-1,5
 549 462 549 462 549 502 c 0,6,7
 549 554 549 554 542 589 c 128,-1,8
 535 624 535 624 514 659 c 128,-1,9
 493 694 493 694 447 712 c 128,-1,10
 401 730 401 730 330 730 c 2,11,-1
 130 730 l 1,12,-1
 70 730 l 1,13,-1
 70 680 l 1,14,-1
 130 680 l 1,15,-1
 130 50 l 1,16,-1
 70 50 l 1,17,-1
 70 0 l 1,18,-1
 282 0 l 1,19,-1
 282 50 l 1,20,-1
 202 50 l 1,21,-1
 202 275 l 1,22,-1
 330 275 l 2,0,1
202 334 m 1,23,-1
 202 671 l 1,24,-1
 330 671 l 2,25,26
 378 671 378 671 408.5 659 c 128,-1,27
 439 647 439 647 453.5 621.5 c 128,-1,28
 468 596 468 596 472.5 569.5 c 128,-1,29
 477 543 477 543 477 502 c 128,-1,30
 477 461 477 461 472.5 435 c 128,-1,31
 468 409 468 409 453.5 383.5 c 128,-1,32
 439 358 439 358 408.5 346 c 128,-1,33
 378 334 378 334 330 334 c 2,34,-1
 202 334 l 1,23,-1
EndSplineSet
Validated: 9
Layer: 2
SplineSet
330 275 m 2
 528 275 549 385 549 502 c 0
 549 620 528 730 330 730 c 2
 130 730 l 1
 70 730 l 1
 70 680 l 1
 130 680 l 1
 130 50 l 1
 70 50 l 1
 70 0 l 1
 282 0 l 1
 282 50 l 1
 202 50 l 1
 202 275 l 1
 330 275 l 2
202 334 m 1
 202 671 l 1
 330 671 l 2
 463 671 477 597 477 502 c 0
 477 408 463 334 330 334 c 2
 202 334 l 1
EndSplineSet
Position2: "'cpsp' Capital Spacing lookup 0 subtable" dx=5 dy=0 dh=10 dv=0
EndChar

StartChar: Q
Encoding: 50 81 52
Width: 675
GlyphClass: 2
Flags: W
HStem: -13 59<230.223 312> 684 60<230.217 443.794>
VStem: 60 72<159.212 255.5 474.5 570.788> 543 72<159.859 255.5 474.5 570.233>
LayerCount: 3
Fore
SplineSet
402 -192 m 1,0,-1
 477 -192 l 1,1,-1
 386 -12 l 1,2,3
 446 -7 446 -7 488 13.5 c 128,-1,4
 530 34 530 34 554.5 64 c 128,-1,5
 579 94 579 94 593 143 c 128,-1,6
 607 192 607 192 611 241.5 c 128,-1,7
 615 291 615 291 615 365 c 0,8,9
 615 444 615 444 610 496 c 128,-1,10
 605 548 605 548 589 599 c 128,-1,11
 573 650 573 650 543 679 c 128,-1,12
 513 708 513 708 462 726 c 128,-1,13
 411 744 411 744 337 744 c 128,-1,14
 263 744 263 744 212 726 c 128,-1,15
 161 708 161 708 131.5 679 c 128,-1,16
 102 650 102 650 85.5 598.5 c 128,-1,17
 69 547 69 547 64.5 495.5 c 128,-1,18
 60 444 60 444 60 365 c 0,19,20
 60 288 60 288 64.5 237.5 c 128,-1,21
 69 187 69 187 83.5 136.5 c 128,-1,22
 98 86 98 86 125 57 c 128,-1,23
 152 28 152 28 198.5 9 c 128,-1,24
 245 -10 245 -10 312 -13 c 1,25,-1
 402 -192 l 1,0,-1
337 46 m 256,26,27
 283 46 283 46 245 61 c 128,-1,28
 207 76 207 76 185 100.5 c 128,-1,29
 163 125 163 125 151 168.5 c 128,-1,30
 139 212 139 212 135.5 255.5 c 128,-1,31
 132 299 132 299 132 365 c 128,-1,32
 132 431 132 431 135.5 474.5 c 128,-1,33
 139 518 139 518 151 561.5 c 128,-1,34
 163 605 163 605 185 629.5 c 128,-1,35
 207 654 207 654 245 669 c 128,-1,36
 283 684 283 684 337 684 c 128,-1,37
 391 684 391 684 429 669 c 128,-1,38
 467 654 467 654 489.5 629.5 c 128,-1,39
 512 605 512 605 524 561.5 c 128,-1,40
 536 518 536 518 539.5 474.5 c 128,-1,41
 543 431 543 431 543 365 c 128,-1,42
 543 299 543 299 539.5 255.5 c 128,-1,43
 536 212 536 212 524 168.5 c 128,-1,44
 512 125 512 125 489.5 100.5 c 128,-1,45
 467 76 467 76 429 61 c 128,-1,46
 391 46 391 46 337 46 c 256,26,27
EndSplineSet
Validated: 9
Layer: 2
SplineSet
402 -192 m 1
 477 -192 l 1
 386 -12 l 1
 590 6 615 144 615 365 c 0
 615 600 587 744 337 744 c 0
 87 744 60 600 60 365 c 0
 60 136 85 -4 312 -13 c 1
 402 -192 l 1
337 46 m 0
 152 46 132 168 132 365 c 0
 132 562 152 684 337 684 c 0
 522 684 543 562 543 365 c 0
 543 168 522 46 337 46 c 0
EndSplineSet
Position2: "'cpsp' Capital Spacing lookup 0 subtable" dx=5 dy=0 dh=10 dv=0
EndChar

StartChar: R
Encoding: 51 82 53
Width: 659
GlyphClass: 2
Flags: W
HStem: 305 59<281 363.088> 671 59<340 439.792>
VStem: 487 72<412.158 457 578 622.842>
LayerCount: 3
Fore
SplineSet
281 305 m 2,0,1
 335 305 335 305 364 291.5 c 128,-1,2
 393 278 393 278 411 237 c 2,3,-1
 512 0 l 1,4,-1
 629 0 l 1,5,-1
 629 50 l 1,6,-1
 567 50 l 1,7,-1
 481 249 l 2,8,9
 460 295 460 295 432 315 c 1,10,11
 473 325 473 325 499.5 345 c 128,-1,12
 526 365 526 365 538.5 394 c 128,-1,13
 551 423 551 423 555 451 c 128,-1,14
 559 479 559 479 559 517 c 128,-1,15
 559 555 559 555 555.5 582 c 128,-1,16
 552 609 552 609 539 639 c 128,-1,17
 526 669 526 669 503 687.5 c 128,-1,18
 480 706 480 706 438.5 718 c 128,-1,19
 397 730 397 730 340 730 c 2,20,-1
 130 730 l 1,21,-1
 70 730 l 1,22,-1
 70 680 l 1,23,-1
 130 680 l 1,24,-1
 130 50 l 1,25,-1
 70 50 l 1,26,-1
 70 0 l 1,27,-1
 262 0 l 1,28,-1
 262 50 l 1,29,-1
 202 50 l 1,30,-1
 202 305 l 1,31,-1
 281 305 l 2,0,1
202 364 m 1,32,-1
 202 671 l 1,33,-1
 340 671 l 2,34,35
 388 671 388 671 419 659.5 c 128,-1,36
 450 648 450 648 464 625 c 128,-1,37
 478 602 478 602 482.5 578 c 128,-1,38
 487 554 487 554 487 517 c 0,39,40
 487 481 487 481 482.5 457 c 128,-1,41
 478 433 478 433 464 410 c 128,-1,42
 450 387 450 387 419 375.5 c 128,-1,43
 388 364 388 364 340 364 c 2,44,-1
 202 364 l 1,32,-1
EndSplineSet
Validated: 9
Layer: 2
SplineSet
281 305 m 2
 347 305 386 295 411 237 c 2
 512 0 l 1
 629 0 l 1
 629 50 l 1
 567 50 l 1
 481 249 l 2
 467 280 452 301 432 315 c 1
 545 343 559 428 559 517 c 0
 559 627 538 730 340 730 c 2
 130 730 l 1
 70 730 l 1
 70 680 l 1
 130 680 l 1
 130 50 l 1
 70 50 l 1
 70 0 l 1
 262 0 l 1
 262 50 l 1
 202 50 l 1
 202 305 l 1
 281 305 l 2
202 364 m 1
 202 671 l 1
 340 671 l 2
 473 671 487 602 487 517 c 0
 487 433 473 364 340 364 c 2
 202 364 l 1
EndSplineSet
Position2: "'cpsp' Capital Spacing lookup 0 subtable" dx=5 dy=0 dh=10 dv=0
EndChar

StartChar: S
Encoding: 52 83 54
Width: 576
GlyphClass: 2
Flags: W
HStem: -14 60<189.044 403.886> 684 60<177.902 381.06>
VStem: 47 54<131.192 216> 54 72<448.013 631.378> 459 72<98.9556 272.255> 459 54<552 612.812>
LayerCount: 3
Fore
SplineSet
101 0 m 1,0,-1
 101 86 l 1,1,2
 162 -14 162 -14 302 -14 c 0,3,4
 428 -14 428 -14 479.5 38 c 128,-1,5
 531 90 531 90 531 192 c 0,6,7
 531 285 531 285 488 326.5 c 128,-1,8
 445 368 445 368 335 389 c 2,9,-1
 246 406 l 2,10,11
 172 420 172 420 149 446 c 128,-1,12
 126 472 126 472 126 534 c 0,13,14
 126 610 126 610 159 647 c 128,-1,15
 192 684 192 684 283 684 c 0,16,17
 439 684 439 684 459 552 c 1,18,-1
 513 552 l 1,19,-1
 513 730 l 1,20,-1
 459 730 l 1,21,-1
 459 652 l 1,22,23
 405 744 405 744 268 744 c 0,24,25
 150 744 150 744 102 690 c 128,-1,26
 54 636 54 636 54 533 c 0,27,28
 54 439 54 439 94.5 399 c 128,-1,29
 135 359 135 359 243 338 c 2,30,-1
 333 321 l 2,31,32
 405 307 405 307 432 279 c 128,-1,33
 459 251 459 251 459 182 c 0,34,35
 459 114 459 114 421.5 80 c 128,-1,36
 384 46 384 46 292 46 c 0,37,38
 197 46 197 46 150 93.5 c 128,-1,39
 103 141 103 141 101 216 c 1,40,-1
 47 216 l 1,41,-1
 47 0 l 1,42,-1
 101 0 l 1,0,-1
EndSplineSet
Validated: 9
Layer: 2
SplineSet
101 0 m 1
 101 86 l 1
 137 27 203 -14 302 -14 c 0
 478 -14 531 64 531 192 c 0
 531 319 479 362 335 389 c 2
 246 406 l 2
 145 425 126 454 126 534 c 0
 126 626 153 684 283 684 c 0
 389 684 446 636 459 552 c 1
 513 552 l 1
 513 730 l 1
 459 730 l 1
 459 652 l 1
 423 713 360 744 268 744 c 0
 102 744 54 661 54 533 c 0
 54 406 101 365 243 338 c 2
 333 321 l 2
 426 303 459 277 459 182 c 0
 459 96 420 46 292 46 c 0
 158 46 104 124 101 216 c 1
 47 216 l 1
 47 0 l 1
 101 0 l 1
EndSplineSet
Position2: "'cpsp' Capital Spacing lookup 0 subtable" dx=5 dy=0 dh=10 dv=0
EndChar

StartChar: T
Encoding: 53 84 55
Width: 538
GlyphClass: 2
Flags: W
HStem: 651 20G<66 233 305 472>
LayerCount: 3
Fore
SplineSet
528 572 m 1,0,-1
 528 730 l 1,1,-1
 10 730 l 1,2,-1
 10 572 l 1,3,-1
 66 572 l 1,4,-1
 66 671 l 1,5,-1
 233 671 l 1,6,-1
 233 50 l 1,7,-1
 153 50 l 1,8,-1
 153 0 l 1,9,-1
 385 0 l 1,10,-1
 385 50 l 1,11,-1
 305 50 l 1,12,-1
 305 671 l 1,13,-1
 472 671 l 1,14,-1
 472 572 l 1,15,-1
 528 572 l 1,0,-1
EndSplineSet
Validated: 9
Layer: 2
SplineSet
528 572 m 1
 528 730 l 1
 10 730 l 1
 10 572 l 1
 66 572 l 1
 66 671 l 1
 233 671 l 1
 233 50 l 1
 153 50 l 1
 153 0 l 1
 385 0 l 1
 385 50 l 1
 305 50 l 1
 305 671 l 1
 472 671 l 1
 472 572 l 1
 528 572 l 1
EndSplineSet
Position2: "'cpsp' Capital Spacing lookup 0 subtable" dx=5 dy=0 dh=10 dv=0
EndChar

StartChar: U
Encoding: 54 85 56
Width: 750
GlyphClass: 2
Flags: W
HStem: -14 61<262.51 303.5 445.5 486.657>
VStem: 115 72<123.021 241> 563 72<123.021 241>
LayerCount: 3
Fore
SplineSet
55 680 m 1,0,-1
 115 680 l 1,1,-1
 115 241 l 2,2,3
 115 174 115 174 130 126 c 128,-1,4
 145 78 145 78 167.5 51.5 c 128,-1,5
 190 25 190 25 226 9.5 c 128,-1,6
 262 -6 262 -6 295 -10 c 128,-1,7
 328 -14 328 -14 374 -14 c 128,-1,8
 420 -14 420 -14 453.5 -10 c 128,-1,9
 487 -6 487 -6 523.5 9.5 c 128,-1,10
 560 25 560 25 582.5 51.5 c 128,-1,11
 605 78 605 78 620 126 c 128,-1,12
 635 174 635 174 635 241 c 2,13,-1
 635 680 l 1,14,-1
 695 680 l 1,15,-1
 695 730 l 1,16,-1
 503 730 l 1,17,-1
 503 680 l 1,18,-1
 563 680 l 1,19,-1
 563 241 l 2,20,21
 563 179 563 179 548 138 c 128,-1,22
 533 97 533 97 504 78.5 c 128,-1,23
 475 60 475 60 445.5 53.5 c 128,-1,24
 416 47 416 47 374 47 c 0,25,26
 333 47 333 47 303.5 53.5 c 128,-1,27
 274 60 274 60 245.5 78.5 c 128,-1,28
 217 97 217 97 202 138 c 128,-1,29
 187 179 187 179 187 241 c 2,30,-1
 187 680 l 1,31,-1
 247 680 l 1,32,-1
 247 730 l 1,33,-1
 55 730 l 1,34,-1
 55 680 l 1,0,-1
EndSplineSet
Validated: 9
Layer: 2
SplineSet
55 680 m 1
 115 680 l 1
 115 241 l 2
 115 10 241 -14 374 -14 c 0
 509 -14 635 10 635 241 c 2
 635 680 l 1
 695 680 l 1
 695 730 l 1
 503 730 l 1
 503 680 l 1
 563 680 l 1
 563 241 l 2
 563 68 472 47 374 47 c 0
 278 47 187 68 187 241 c 2
 187 680 l 1
 247 680 l 1
 247 730 l 1
 55 730 l 1
 55 680 l 1
EndSplineSet
Position2: "'cpsp' Capital Spacing lookup 0 subtable" dx=5 dy=0 dh=10 dv=0
EndChar

StartChar: V
Encoding: 55 86 57
Width: 647
GlyphClass: 2
Flags: W
LayerCount: 3
Fore
SplineSet
372 0 m 1,0,-1
 581 680 l 1,1,-1
 627 680 l 1,2,-1
 627 730 l 1,3,-1
 445 730 l 1,4,-1
 445 680 l 1,5,-1
 508 680 l 1,6,-1
 323 68 l 1,7,-1
 139 680 l 1,8,-1
 202 680 l 1,9,-1
 202 730 l 1,10,-1
 20 730 l 1,11,-1
 20 680 l 1,12,-1
 65 680 l 1,13,-1
 275 0 l 1,14,-1
 372 0 l 1,0,-1
EndSplineSet
Validated: 9
Layer: 2
SplineSet
372 0 m 1
 581 680 l 1
 627 680 l 1
 627 730 l 1
 445 730 l 1
 445 680 l 1
 508 680 l 1
 323 68 l 1
 139 680 l 1
 202 680 l 1
 202 730 l 1
 20 730 l 1
 20 680 l 1
 65 680 l 1
 275 0 l 1
 372 0 l 1
EndSplineSet
Position2: "'cpsp' Capital Spacing lookup 0 subtable" dx=5 dy=0 dh=10 dv=0
EndChar

StartChar: W
Encoding: 56 87 58
Width: 889
GlyphClass: 2
Flags: W
LayerCount: 3
Fore
SplineSet
315 0 m 1,0,-1
 444 591 l 1,1,-1
 574 0 l 1,2,-1
 679 0 l 1,3,-1
 832 680 l 1,4,-1
 874 680 l 1,5,-1
 874 730 l 1,6,-1
 692 730 l 1,7,-1
 692 680 l 1,8,-1
 759 680 l 1,9,-1
 624 66 l 1,10,-1
 480 730 l 1,11,-1
 409 730 l 1,12,-1
 264 66 l 1,13,-1
 130 680 l 1,14,-1
 197 680 l 1,15,-1
 197 730 l 1,16,-1
 15 730 l 1,17,-1
 15 680 l 1,18,-1
 56 680 l 1,19,-1
 210 0 l 1,20,-1
 315 0 l 1,0,-1
EndSplineSet
Validated: 9
Layer: 2
SplineSet
315 0 m 1
 444 591 l 1
 574 0 l 1
 679 0 l 1
 832 680 l 1
 874 680 l 1
 874 730 l 1
 692 730 l 1
 692 680 l 1
 759 680 l 1
 624 66 l 1
 480 730 l 1
 409 730 l 1
 264 66 l 1
 130 680 l 1
 197 680 l 1
 197 730 l 1
 15 730 l 1
 15 680 l 1
 56 680 l 1
 210 0 l 1
 315 0 l 1
EndSplineSet
Position2: "'cpsp' Capital Spacing lookup 0 subtable" dx=5 dy=0 dh=10 dv=0
EndChar

StartChar: X
Encoding: 57 88 59
Width: 631
GlyphClass: 2
Flags: W
LayerCount: 3
Fore
SplineSet
417 680 m 1,0,-1
 467 680 l 1,1,-1
 320 436 l 1,2,-1
 164 680 l 1,3,-1
 214 680 l 1,4,-1
 214 730 l 1,5,-1
 32 730 l 1,6,-1
 32 680 l 1,7,-1
 82 680 l 1,8,-1
 272 382 l 1,9,-1
 65 50 l 1,10,-1
 15 50 l 1,11,-1
 15 0 l 1,12,-1
 197 0 l 1,13,-1
 197 50 l 1,14,-1
 146 50 l 1,15,-1
 310 322 l 1,16,-1
 484 50 l 1,17,-1
 434 50 l 1,18,-1
 434 0 l 1,19,-1
 616 0 l 1,20,-1
 616 50 l 1,21,-1
 566 50 l 1,22,-1
 358 376 l 1,23,-1
 548 680 l 1,24,-1
 599 680 l 1,25,-1
 599 730 l 1,26,-1
 417 730 l 1,27,-1
 417 680 l 1,0,-1
EndSplineSet
Validated: 9
Layer: 2
SplineSet
417 680 m 1
 467 680 l 1
 320 436 l 1
 164 680 l 1
 214 680 l 1
 214 730 l 1
 32 730 l 1
 32 680 l 1
 82 680 l 1
 272 382 l 1
 65 50 l 1
 15 50 l 1
 15 0 l 1
 197 0 l 1
 197 50 l 1
 146 50 l 1
 310 322 l 1
 484 50 l 1
 434 50 l 1
 434 0 l 1
 616 0 l 1
 616 50 l 1
 566 50 l 1
 358 376 l 1
 548 680 l 1
 599 680 l 1
 599 730 l 1
 417 730 l 1
 417 680 l 1
EndSplineSet
Position2: "'cpsp' Capital Spacing lookup 0 subtable" dx=5 dy=0 dh=10 dv=0
EndChar

StartChar: Y
Encoding: 58 89 60
Width: 582
GlyphClass: 2
Flags: W
LayerCount: 3
Fore
SplineSet
185 0 m 1,0,-1
 397 0 l 1,1,-1
 397 50 l 1,2,-1
 327 50 l 1,3,-1
 327 255 l 1,4,-1
 528 680 l 1,5,-1
 572 680 l 1,6,-1
 572 730 l 1,7,-1
 400 730 l 1,8,-1
 400 680 l 1,9,-1
 455 680 l 1,10,-1
 291 326 l 1,11,-1
 127 680 l 1,12,-1
 182 680 l 1,13,-1
 182 730 l 1,14,-1
 10 730 l 1,15,-1
 10 680 l 1,16,-1
 53 680 l 1,17,-1
 255 255 l 1,18,-1
 255 50 l 1,19,-1
 185 50 l 1,20,-1
 185 0 l 1,0,-1
EndSplineSet
Validated: 9
Layer: 2
SplineSet
185 0 m 1
 397 0 l 1
 397 50 l 1
 327 50 l 1
 327 255 l 1
 528 680 l 1
 572 680 l 1
 572 730 l 1
 400 730 l 1
 400 680 l 1
 455 680 l 1
 291 326 l 1
 127 680 l 1
 182 680 l 1
 182 730 l 1
 10 730 l 1
 10 680 l 1
 53 680 l 1
 255 255 l 1
 255 50 l 1
 185 50 l 1
 185 0 l 1
EndSplineSet
Position2: "'cpsp' Capital Spacing lookup 0 subtable" dx=5 dy=0 dh=10 dv=0
EndChar

StartChar: Z
Encoding: 59 90 61
Width: 545
GlyphClass: 2
Flags: W
HStem: 651 20G<106 417>
LayerCount: 3
Fore
SplineSet
49 671 m 1,0,-1
 50 671 l 1,1,-1
 50 572 l 1,2,-1
 106 572 l 1,3,-1
 106 671 l 1,4,-1
 417 671 l 1,5,-1
 30 46 l 1,6,-1
 30 0 l 1,7,-1
 515 0 l 1,8,-1
 515 158 l 1,9,-1
 459 158 l 1,10,-1
 459 59 l 1,11,-1
 118 59 l 1,12,-1
 505 684 l 1,13,-1
 505 730 l 1,14,-1
 50 730 l 1,15,-1
 49 671 l 1,0,-1
EndSplineSet
Validated: 9
Layer: 2
SplineSet
49 671 m 1
 50 671 l 1
 50 572 l 1
 106 572 l 1
 106 671 l 1
 417 671 l 1
 30 46 l 1
 30 0 l 1
 515 0 l 1
 515 158 l 1
 459 158 l 1
 459 59 l 1
 118 59 l 1
 505 684 l 1
 505 730 l 1
 50 730 l 1
 49 671 l 1
EndSplineSet
Position2: "'cpsp' Capital Spacing lookup 0 subtable" dx=5 dy=0 dh=10 dv=0
EndChar

StartChar: bracketleft
Encoding: 60 91 62
Width: 284
GlyphClass: 2
Flags: W
VStem: 80 199
LayerCount: 3
Fore
SplineSet
80 -66 m 1,0,-1
 279 -66 l 1,1,-1
 279 -13 l 1,2,-1
 153 -13 l 1,3,-1
 153 682 l 1,4,-1
 279 682 l 1,5,-1
 279 735 l 1,6,-1
 80 735 l 1,7,-1
 80 -66 l 1,0,-1
EndSplineSet
Validated: 9
Layer: 2
SplineSet
80 -66 m 1
 279 -66 l 1
 279 -13 l 1
 153 -13 l 1
 153 682 l 1
 279 682 l 1
 279 735 l 1
 80 735 l 1
 80 -66 l 1
EndSplineSet
EndChar

StartChar: backslash
Encoding: 61 92 63
Width: 308
GlyphClass: 2
Flags: W
LayerCount: 3
Fore
SplineSet
71 775 m 1,0,-1
 0 775 l 1,1,-1
 237 -106 l 1,2,-1
 308 -106 l 1,3,-1
 71 775 l 1,0,-1
EndSplineSet
Validated: 9
Layer: 2
SplineSet
71 775 m 1
 0 775 l 1
 237 -106 l 1
 308 -106 l 1
 71 775 l 1
EndSplineSet
EndChar

StartChar: bracketright
Encoding: 62 93 64
Width: 284
GlyphClass: 2
Flags: W
VStem: 5 199
LayerCount: 3
Fore
SplineSet
204 735 m 1,0,-1
 5 735 l 1,1,-1
 5 682 l 1,2,-1
 131 682 l 1,3,-1
 131 -13 l 1,4,-1
 5 -13 l 1,5,-1
 5 -66 l 1,6,-1
 204 -66 l 1,7,-1
 204 735 l 1,0,-1
EndSplineSet
Validated: 9
Layer: 2
SplineSet
204 735 m 1
 5 735 l 1
 5 682 l 1
 131 682 l 1
 131 -13 l 1
 5 -13 l 1
 5 -66 l 1
 204 -66 l 1
 204 735 l 1
EndSplineSet
EndChar

StartChar: asciicircum
Encoding: 63 94 65
Width: 580
GlyphClass: 2
Flags: W
LayerCount: 3
Fore
SplineSet
252 618 m 1,0,-1
 104 316 l 1,1,-1
 170 316 l 1,2,-1
 290 567 l 1,3,-1
 410 316 l 1,4,-1
 476 316 l 1,5,-1
 328 618 l 1,6,-1
 252 618 l 1,0,-1
EndSplineSet
Validated: 9
Layer: 2
SplineSet
252 618 m 1
 104 316 l 1
 170 316 l 1
 290 567 l 1
 410 316 l 1
 476 316 l 1
 328 618 l 1
 252 618 l 1
EndSplineSet
EndChar

StartChar: underscore
Encoding: 64 95 66
Width: 580
GlyphClass: 2
Flags: W
HStem: -60 60
LayerCount: 3
Fore
SplineSet
70 -60 m 1,0,-1
 510 -60 l 1,1,-1
 510 0 l 1,2,-1
 70 0 l 1,3,-1
 70 -60 l 1,0,-1
EndSplineSet
Validated: 9
Layer: 2
SplineSet
70 -60 m 1
 510 -60 l 1
 510 0 l 1
 70 0 l 1
 70 -60 l 1
EndSplineSet
EndChar

StartChar: grave
Encoding: 65 96 67
Width: 314
GlyphClass: 2
Flags: W
HStem: 624 203
VStem: 50 214
LayerCount: 3
Fore
SplineSet
222 624 m 1,0,-1
 50 774 l 1,1,-1
 103 827 l 1,2,-1
 264 666 l 1,3,-1
 222 624 l 1,0,-1
EndSplineSet
Validated: 1
Layer: 2
SplineSet
222 624 m 1
 50 774 l 1
 103 827 l 1
 264 666 l 1
 222 624 l 1
EndSplineSet
EndChar

StartChar: a
Encoding: 66 97 68
Width: 612
GlyphClass: 2
Flags: W
HStem: -14 57<160.915 338.285> 527 59<189.353 384.468>
VStem: 64 68<71.3657 232.372> 89 59<409.644 484.711> 422 70<102.719 121 426 491.394>
LayerCount: 3
Fore
SplineSet
445 0 m 1,0,-1
 552 0 l 1,1,-1
 552 50 l 1,2,-1
 492 50 l 1,3,-1
 492 426 l 2,4,5
 492 586 492 586 294 586 c 0,6,7
 234 586 234 586 194 574 c 128,-1,8
 154 562 154 562 132.5 536.5 c 128,-1,9
 111 511 111 511 101.5 482 c 128,-1,10
 92 453 92 453 89 410 c 1,11,-1
 148 407 l 1,12,13
 152 469 152 469 180.5 498 c 128,-1,14
 209 527 209 527 294 527 c 0,15,16
 422 527 422 527 422 426 c 2,17,-1
 422 326 l 1,18,-1
 237 314 l 2,19,20
 136 307 136 307 100 269 c 128,-1,21
 64 231 64 231 64 145 c 0,22,23
 64 66 64 66 101.5 26 c 128,-1,24
 139 -14 139 -14 233 -14 c 0,25,26
 339 -14 339 -14 427 65 c 1,27,-1
 445 0 l 1,0,-1
243 43 m 0,28,29
 182 43 182 43 157 67.5 c 128,-1,30
 132 92 132 92 132 142 c 0,31,32
 132 210 132 210 154.5 233.5 c 128,-1,33
 177 257 177 257 241 261 c 2,34,-1
 422 272 l 1,35,-1
 422 121 l 1,36,37
 340 43 340 43 243 43 c 0,28,29
EndSplineSet
Validated: 9
Layer: 2
SplineSet
445 0 m 1
 552 0 l 1
 552 50 l 1
 492 50 l 1
 492 426 l 2
 492 550 405 586 294 586 c 0
 130 586 97 514 89 410 c 1
 148 407 l 1
 153 480 172 527 294 527 c 0
 365 527 422 502 422 426 c 2
 422 326 l 1
 237 314 l 2
 97 305 64 255 64 145 c 0
 64 46 102 -14 233 -14 c 0
 318 -14 386 28 427 65 c 1
 445 0 l 1
243 43 m 0
 157 43 132 80 132 142 c 0
 132 235 158 256 241 261 c 2
 422 272 l 1
 422 121 l 1
 366 68 305 43 243 43 c 0
EndSplineSet
EndChar

StartChar: b
Encoding: 67 98 69
Width: 616
GlyphClass: 2
Flags: W
HStem: -14 59<238.514 416.996> 527 59<236.939 418.92>
VStem: 100 70<87.0959 102 475 487.188> 100 47<0 25.5> 486 70<121.844 209.5 345.5 445.878>
LayerCount: 3
Fore
SplineSet
40 700 m 1,0,-1
 100 700 l 1,1,-1
 100 0 l 1,2,-1
 147 0 l 1,3,-1
 161 51 l 1,4,5
 251 -14 251 -14 346 -14 c 0,6,7
 401 -14 401 -14 440 3 c 128,-1,8
 479 20 479 20 501 46 c 128,-1,9
 523 72 523 72 536 114 c 128,-1,10
 549 156 549 156 552.5 194.5 c 128,-1,11
 556 233 556 233 556 286 c 0,12,13
 556 338 556 338 552 377 c 128,-1,14
 548 416 548 416 535.5 457.5 c 128,-1,15
 523 499 523 499 500.5 525.5 c 128,-1,16
 478 552 478 552 439 569 c 128,-1,17
 400 586 400 586 346 586 c 0,18,19
 261 586 261 586 170 532 c 1,20,-1
 170 750 l 1,21,-1
 100 750 l 1,22,-1
 40 750 l 1,23,-1
 40 700 l 1,0,-1
336 527 m 0,24,25
 369 527 369 527 394 518 c 128,-1,26
 419 509 419 509 435 491 c 128,-1,27
 451 473 451 473 461.5 451.5 c 128,-1,28
 472 430 472 430 477 400.5 c 128,-1,29
 482 371 482 371 484 345.5 c 128,-1,30
 486 320 486 320 486 286 c 0,31,32
 486 240 486 240 483.5 209.5 c 128,-1,33
 481 179 481 179 472 145 c 128,-1,34
 463 111 463 111 446.5 91 c 128,-1,35
 430 71 430 71 399.5 58 c 128,-1,36
 369 45 369 45 326 45 c 0,37,38
 245 45 245 45 170 102 c 1,39,-1
 170 475 l 1,40,41
 251 527 251 527 336 527 c 0,24,25
EndSplineSet
Validated: 9
Layer: 2
SplineSet
40 700 m 1
 100 700 l 1
 100 0 l 1
 147 0 l 1
 161 51 l 1
 208 17 277 -14 346 -14 c 0
 534 -14 556 131 556 286 c 0
 556 441 532 586 346 586 c 0
 286 586 224 564 170 532 c 1
 170 750 l 1
 100 750 l 1
 40 750 l 1
 40 700 l 1
336 527 m 0
 471 527 486 405 486 286 c 0
 486 154 474 45 326 45 c 0
 282 45 221 63 170 102 c 1
 170 475 l 1
 229 513 279 527 336 527 c 0
EndSplineSet
EndChar

StartChar: c
Encoding: 68 99 70
Width: 567
GlyphClass: 2
Flags: W
HStem: -14 59<200.699 403.038> 527 59<203.005 383.5>
VStem: 60 70<125.743 443.385> 447 51<89.4065 162.059 370 461.318>
LayerCount: 3
Fore
SplineSet
447 572 m 1,0,-1
 448 510 l 1,1,2
 398 586 398 586 290 586 c 0,3,4
 232 586 232 586 189.5 569.5 c 128,-1,5
 147 553 147 553 122.5 527 c 128,-1,6
 98 501 98 501 83.5 460 c 128,-1,7
 69 419 69 419 64.5 379 c 128,-1,8
 60 339 60 339 60 286 c 128,-1,9
 60 233 60 233 64 194.5 c 128,-1,10
 68 156 68 156 82 114 c 128,-1,11
 96 72 96 72 120.5 46 c 128,-1,12
 145 20 145 20 189.5 3 c 128,-1,13
 234 -14 234 -14 295 -14 c 128,-1,14
 356 -14 356 -14 397 -2 c 128,-1,15
 438 10 438 10 460 35.5 c 128,-1,16
 482 61 482 61 491.5 90 c 128,-1,17
 501 119 501 119 504 162 c 1,18,-1
 447 165 l 1,19,20
 443 103 443 103 412.5 74 c 128,-1,21
 382 45 382 45 294 45 c 0,22,23
 256 45 256 45 228 54 c 128,-1,24
 200 63 200 63 182.5 82 c 128,-1,25
 165 101 165 101 154 121 c 128,-1,26
 143 141 143 141 138 172 c 128,-1,27
 133 203 133 203 131.5 227 c 128,-1,28
 130 251 130 251 130 286 c 0,29,30
 130 327 130 327 132 355.5 c 128,-1,31
 134 384 134 384 143.5 419 c 128,-1,32
 153 454 153 454 169 475.5 c 128,-1,33
 185 497 185 497 215.5 512 c 128,-1,34
 246 527 246 527 289 527 c 0,35,36
 367 527 367 527 405 488 c 128,-1,37
 443 449 443 449 452 370 c 1,38,-1
 498 370 l 1,39,-1
 498 572 l 1,40,-1
 447 572 l 1,0,-1
EndSplineSet
Validated: 9
Layer: 2
SplineSet
447 572 m 1
 448 510 l 1
 417 557 365 586 290 586 c 0
 89 586 60 446 60 286 c 0
 60 131 83 -14 295 -14 c 0
 463 -14 496 58 504 162 c 1
 447 165 l 1
 442 92 420 45 294 45 c 0
 139 45 130 169 130 286 c 0
 130 399 141 527 289 527 c 0
 397 527 441 471 452 370 c 1
 498 370 l 1
 498 572 l 1
 447 572 l 1
EndSplineSet
EndChar

StartChar: d
Encoding: 69 100 71
Width: 636
GlyphClass: 2
Flags: W
HStem: -14 59<198.202 374.55> 527 59<201.693 407.588>
VStem: 60 70<129.627 286 377.5 439.792> 446 70<94.4812 112 493 501.89>
LayerCount: 3
Fore
SplineSet
469 0 m 1,0,-1
 576 0 l 1,1,-1
 576 50 l 1,2,-1
 516 50 l 1,3,-1
 516 750 l 1,4,-1
 386 750 l 1,5,-1
 386 700 l 1,6,-1
 446 700 l 1,7,-1
 446 550 l 1,8,9
 360 586 360 586 280 586 c 0,10,11
 223 586 223 586 181.5 569 c 128,-1,12
 140 552 140 552 117 526 c 128,-1,13
 94 500 94 500 80.5 458 c 128,-1,14
 67 416 67 416 63.5 377.5 c 128,-1,15
 60 339 60 339 60 286 c 128,-1,16
 60 233 60 233 63.5 194.5 c 128,-1,17
 67 156 67 156 80 114 c 128,-1,18
 93 72 93 72 115.5 46 c 128,-1,19
 138 20 138 20 178.5 3 c 128,-1,20
 219 -14 219 -14 275 -14 c 0,21,22
 372 -14 372 -14 456 60 c 1,23,-1
 469 0 l 1,0,-1
287 45 m 0,24,25
 194 45 194 45 162 106 c 128,-1,26
 130 167 130 167 130 286 c 0,27,28
 130 343 130 343 136.5 383 c 128,-1,29
 143 423 143 423 159.5 457.5 c 128,-1,30
 176 492 176 492 208.5 509.5 c 128,-1,31
 241 527 241 527 290 527 c 0,32,33
 373 527 373 527 446 493 c 1,34,-1
 446 112 l 1,35,36
 373 45 373 45 287 45 c 0,24,25
EndSplineSet
Validated: 9
Layer: 2
SplineSet
469 0 m 1
 576 0 l 1
 576 50 l 1
 516 50 l 1
 516 750 l 1
 386 750 l 1
 386 700 l 1
 446 700 l 1
 446 550 l 1
 396 571 337 586 280 586 c 0
 82 586 60 441 60 286 c 0
 60 131 82 -14 275 -14 c 0
 349 -14 413 22 456 60 c 1
 469 0 l 1
287 45 m 0
 152 45 130 147 130 286 c 0
 130 425 155 527 290 527 c 0
 332 527 390 519 446 493 c 1
 446 112 l 1
 399 69 349 45 287 45 c 0
EndSplineSet
EndChar

StartChar: e
Encoding: 70 101 72
Width: 598
GlyphClass: 2
Flags: W
HStem: -14 59<207.01 414.319> 527 59<209.657 401.289>
VStem: 70 70<123.148 270 325 446.257> 467 71<325 451.156> 471 58<104.139 177.362>
LayerCount: 3
Fore
SplineSet
309 -14 m 0,0,1
 373 -14 373 -14 416.5 1 c 128,-1,2
 460 16 460 16 482.5 44.5 c 128,-1,3
 505 73 505 73 515 103.5 c 128,-1,4
 525 134 525 134 529 177 c 1,5,-1
 471 180 l 1,6,7
 465 114 465 114 431 79.5 c 128,-1,8
 397 45 397 45 307 45 c 0,9,10
 208 45 208 45 174.5 96.5 c 128,-1,11
 141 148 141 148 140 270 c 1,12,-1
 538 270 l 1,13,-1
 538 286 l 2,14,15
 538 339 538 339 534 377.5 c 128,-1,16
 530 416 530 416 516 458 c 128,-1,17
 502 500 502 500 477.5 526 c 128,-1,18
 453 552 453 552 409.5 569 c 128,-1,19
 366 586 366 586 305 586 c 128,-1,20
 244 586 244 586 200 569 c 128,-1,21
 156 552 156 552 131 526 c 128,-1,22
 106 500 106 500 92 458 c 128,-1,23
 78 416 78 416 74 377.5 c 128,-1,24
 70 339 70 339 70 286 c 0,25,26
 70 129 70 129 119.5 57.5 c 128,-1,27
 169 -14 169 -14 309 -14 c 0,0,1
304 527 m 0,28,29
 355 527 355 527 388.5 512 c 128,-1,30
 422 497 422 497 438 466.5 c 128,-1,31
 454 436 454 436 460 404 c 128,-1,32
 466 372 466 372 467 325 c 1,33,-1
 140 325 l 1,34,35
 141 370 141 370 147.5 402 c 128,-1,36
 154 434 154 434 170.5 464.5 c 128,-1,37
 187 495 187 495 220.5 511 c 128,-1,38
 254 527 254 527 304 527 c 0,28,29
EndSplineSet
Validated: 9
Layer: 2
SplineSet
309 -14 m 0
 486 -14 519 76 529 177 c 1
 471 180 l 1
 464 103 438 45 307 45 c 0
 169 45 141 117 140 270 c 1
 538 270 l 1
 538 286 l 2
 538 441 515 586 305 586 c 0
 94 586 70 441 70 286 c 0
 70 92 112 -14 309 -14 c 0
304 527 m 0
 445 527 465 436 467 325 c 1
 140 325 l 1
 143 430 164 527 304 527 c 0
EndSplineSet
EndChar

StartChar: f
Encoding: 71 102 73
Width: 343
GlyphClass: 2
Flags: W
HStem: 705 50<267 328>
VStem: 128 70<606 676.399>
LayerCount: 3
Fore
SplineSet
198 611 m 2,0,1
 198 658 198 658 211.5 677 c 128,-1,2
 225 696 225 696 267 700 c 2,3,-1
 328 705 l 1,4,-1
 328 755 l 1,5,-1
 267 755 l 2,6,7
 182 755 182 755 155 719.5 c 128,-1,8
 128 684 128 684 128 606 c 2,9,-1
 128 572 l 1,10,-1
 60 572 l 1,11,-1
 60 522 l 1,12,-1
 128 522 l 1,13,-1
 128 50 l 1,14,-1
 68 50 l 1,15,-1
 68 0 l 1,16,-1
 278 0 l 1,17,-1
 278 50 l 1,18,-1
 198 50 l 1,19,-1
 198 522 l 1,20,-1
 318 522 l 1,21,-1
 318 572 l 1,22,-1
 198 572 l 1,23,-1
 198 611 l 2,0,1
EndSplineSet
Validated: 9
Layer: 2
SplineSet
198 611 m 2
 198 671 208 695 267 700 c 2
 328 705 l 1
 328 755 l 1
 267 755 l 2
 145 755 128 699 128 606 c 2
 128 572 l 1
 60 572 l 1
 60 522 l 1
 128 522 l 1
 128 50 l 1
 68 50 l 1
 68 0 l 1
 278 0 l 1
 278 50 l 1
 198 50 l 1
 198 522 l 1
 318 522 l 1
 318 572 l 1
 198 572 l 1
 198 611 l 2
EndSplineSet
EndChar

StartChar: g
Encoding: 72 103 74
Width: 580
GlyphClass: 2
Flags: W
HStem: -241 53<143.933 215.5 284 438.881> 0 53<136.202 163 372 449.671> 184 53<196.972 391.933> 533 53<197.41 391.408>
VStem: 50 61<-152.38 -31.6702 58.3585 150.57> 88 68<281.086 489.743> 433 68<280.257 489.32> 475 65<-154.769 -24.2646>
LayerCount: 3
Fore
SplineSet
294 184 m 0,0,1
 348 184 348 184 387 195.5 c 128,-1,2
 426 207 426 207 447.5 224.5 c 128,-1,3
 469 242 469 242 481.5 270 c 128,-1,4
 494 298 494 298 497.5 323.5 c 128,-1,5
 501 349 501 349 501 385 c 0,6,7
 501 479 501 479 469 523 c 1,8,-1
 536 590 l 1,9,-1
 494 632 l 1,10,-1
 423 561 l 1,11,12
 373 586 373 586 294 586 c 0,13,14
 240 586 240 586 201.5 574.5 c 128,-1,15
 163 563 163 563 141 545.5 c 128,-1,16
 119 528 119 528 107 500 c 128,-1,17
 95 472 95 472 91.5 446.5 c 128,-1,18
 88 421 88 421 88 385 c 0,19,20
 88 269 88 269 140 225 c 1,21,-1
 97 184 l 2,22,23
 53 140 53 140 53 91 c 0,24,25
 53 31 53 31 108 8 c 1,26,27
 50 -39 50 -39 50 -104 c 0,28,29
 50 -149 50 -149 66.5 -177 c 128,-1,30
 83 -205 83 -205 117.5 -218.5 c 128,-1,31
 152 -232 152 -232 189 -236.5 c 128,-1,32
 226 -241 226 -241 284 -241 c 0,33,34
 332 -241 332 -241 361 -239.5 c 128,-1,35
 390 -238 390 -238 428.5 -229 c 128,-1,36
 467 -220 467 -220 488 -204 c 128,-1,37
 509 -188 509 -188 524.5 -156.5 c 128,-1,38
 540 -125 540 -125 540 -80 c 0,39,40
 540 -15 540 -15 501.5 19 c 128,-1,41
 463 53 463 53 392 53 c 2,42,-1
 163 53 l 2,43,44
 110 53 110 53 110 96 c 0,45,46
 110 129 110 129 136 154 c 2,47,-1
 184 200 l 1,48,49
 229 184 229 184 294 184 c 0,0,1
294 237 m 0,50,51
 209 237 209 237 182.5 273 c 128,-1,52
 156 309 156 309 156 385 c 128,-1,53
 156 461 156 461 182.5 497 c 128,-1,54
 209 533 209 533 294 533 c 0,55,56
 380 533 380 533 406.5 497 c 128,-1,57
 433 461 433 461 433 385 c 128,-1,58
 433 309 433 309 406.5 273 c 128,-1,59
 380 237 380 237 294 237 c 0,50,51
284 -188 m 0,60,61
 242 -188 242 -188 215.5 -185.5 c 128,-1,62
 189 -183 189 -183 162.5 -174.5 c 128,-1,63
 136 -166 136 -166 123.5 -147.5 c 128,-1,64
 111 -129 111 -129 111 -100 c 0,65,66
 111 -38 111 -38 157 0 c 1,67,-1
 372 0 l 2,68,69
 475 0 475 0 475 -81 c 0,70,71
 475 -151 475 -151 432.5 -169.5 c 128,-1,72
 390 -188 390 -188 284 -188 c 0,60,61
EndSplineSet
Validated: 9
Layer: 2
SplineSet
294 184 m 0
 481 184 501 281 501 385 c 0
 501 436 496 486 469 523 c 1
 536 590 l 1
 494 632 l 1
 423 561 l 1
 393 576 351 586 294 586 c 0
 108 586 88 489 88 385 c 0
 88 323 95 263 140 225 c 1
 97 184 l 2
 62 149 53 118 53 91 c 0
 53 52 70 24 108 8 c 1
 70 -23 50 -62 50 -104 c 0
 50 -227 149 -241 284 -241 c 0
 412 -241 540 -236 540 -80 c 0
 540 7 486 53 392 53 c 2
 163 53 l 2
 135 53 110 64 110 96 c 0
 110 116 117 136 136 154 c 2
 184 200 l 1
 212 190 248 184 294 184 c 0
294 237 m 0
 170 237 156 298 156 385 c 0
 156 472 170 533 294 533 c 0
 419 533 433 472 433 385 c 0
 433 298 419 237 294 237 c 0
284 -188 m 0
 188 -188 111 -181 111 -100 c 0
 111 -59 129 -23 157 0 c 1
 372 0 l 2
 417 0 475 -8 475 -81 c 0
 475 -182 408 -188 284 -188 c 0
EndSplineSet
EndChar

StartChar: h
Encoding: 73 104 75
Width: 681
GlyphClass: 2
Flags: W
HStem: 527 59<282.031 459.599>
VStem: 491 70<407 495.154>
LayerCount: 3
Fore
SplineSet
60 700 m 1,0,-1
 120 700 l 1,1,-1
 120 50 l 1,2,-1
 60 50 l 1,3,-1
 60 0 l 1,4,-1
 250 0 l 1,5,-1
 250 50 l 1,6,-1
 190 50 l 1,7,-1
 190 453 l 1,8,9
 283 527 283 527 385 527 c 0,10,11
 442 527 442 527 466.5 499 c 128,-1,12
 491 471 491 471 491 408 c 2,13,-1
 491 50 l 1,14,-1
 431 50 l 1,15,-1
 431 0 l 1,16,-1
 621 0 l 1,17,-1
 621 50 l 1,18,-1
 561 50 l 1,19,-1
 561 407 l 2,20,21
 561 499 561 499 522.5 542.5 c 128,-1,22
 484 586 484 586 396 586 c 0,23,24
 290 586 290 586 190 513 c 1,25,-1
 190 750 l 1,26,-1
 60 750 l 1,27,-1
 60 700 l 1,0,-1
EndSplineSet
Validated: 9
Layer: 2
SplineSet
60 700 m 1
 120 700 l 1
 120 50 l 1
 60 50 l 1
 60 0 l 1
 250 0 l 1
 250 50 l 1
 190 50 l 1
 190 453 l 1
 249 500 314 527 385 527 c 0
 461 527 491 491 491 408 c 2
 491 50 l 1
 431 50 l 1
 431 0 l 1
 621 0 l 1
 621 50 l 1
 561 50 l 1
 561 407 l 2
 561 528 515 586 396 586 c 0
 317 586 242 551 190 513 c 1
 190 750 l 1
 60 750 l 1
 60 700 l 1
EndSplineSet
EndChar

StartChar: i
Encoding: 74 105 76
Width: 320
GlyphClass: 2
Flags: W
HStem: 672 107<125.893 201.745>
VStem: 122 88<686.44 725 751.5 774.746>
LayerCount: 3
Fore
SplineSet
70 522 m 1,0,-1
 130 522 l 1,1,-1
 130 50 l 1,2,-1
 70 50 l 1,3,-1
 70 0 l 1,4,-1
 260 0 l 1,5,-1
 260 50 l 1,6,-1
 200 50 l 1,7,-1
 200 572 l 1,8,-1
 70 572 l 1,9,-1
 70 522 l 1,0,-1
165 672 m 0,10,11
 194 672 194 672 202 686 c 128,-1,12
 210 700 210 700 210 725 c 0,13,14
 210 742 210 742 208 751.5 c 128,-1,15
 206 761 206 761 195.5 770 c 128,-1,16
 185 779 185 779 165 779 c 0,17,18
 146 779 146 779 136 770 c 128,-1,19
 126 761 126 761 124 751.5 c 128,-1,20
 122 742 122 742 122 725 c 0,21,22
 122 709 122 709 124 699.5 c 128,-1,23
 126 690 126 690 136 681 c 128,-1,24
 146 672 146 672 165 672 c 0,10,11
EndSplineSet
Validated: 9
Layer: 2
SplineSet
70 522 m 1
 130 522 l 1
 130 50 l 1
 70 50 l 1
 70 0 l 1
 260 0 l 1
 260 50 l 1
 200 50 l 1
 200 572 l 1
 70 572 l 1
 70 522 l 1
165 672 m 0
 208 672 210 700 210 725 c 0
 210 751 208 779 165 779 c 0
 124 779 122 751 122 725 c 0
 122 700 124 672 165 672 c 0
EndSplineSet
EndChar

StartChar: j
Encoding: 75 106 77
Width: 310
GlyphClass: 2
Flags: W
HStem: -227 55<-10 51> 672 107<125.893 201.745>
VStem: 120 70<-143.399 -78> 122 88<686.44 725 751.5 774.746>
LayerCount: 3
Fore
SplineSet
60 522 m 1,0,-1
 120 522 l 1,1,-1
 120 -78 l 2,2,3
 120 -125 120 -125 106.5 -144 c 128,-1,4
 93 -163 93 -163 51 -167 c 2,5,-1
 -10 -172 l 1,6,-1
 -10 -227 l 1,7,-1
 51 -227 l 2,8,9
 136 -227 136 -227 163 -191.5 c 128,-1,10
 190 -156 190 -156 190 -78 c 2,11,-1
 190 572 l 1,12,-1
 60 572 l 1,13,-1
 60 522 l 1,0,-1
165 672 m 0,14,15
 194 672 194 672 202 686 c 128,-1,16
 210 700 210 700 210 725 c 0,17,18
 210 742 210 742 208 751.5 c 128,-1,19
 206 761 206 761 195.5 770 c 128,-1,20
 185 779 185 779 165 779 c 0,21,22
 146 779 146 779 136 770 c 128,-1,23
 126 761 126 761 124 751.5 c 128,-1,24
 122 742 122 742 122 725 c 0,25,26
 122 709 122 709 124 699.5 c 128,-1,27
 126 690 126 690 136 681 c 128,-1,28
 146 672 146 672 165 672 c 0,14,15
EndSplineSet
Validated: 9
Layer: 2
SplineSet
60 522 m 1
 120 522 l 1
 120 -78 l 2
 120 -138 110 -162 51 -167 c 2
 -10 -172 l 1
 -10 -227 l 1
 51 -227 l 2
 173 -227 190 -171 190 -78 c 2
 190 572 l 1
 60 572 l 1
 60 522 l 1
165 672 m 0
 208 672 210 700 210 725 c 0
 210 751 208 779 165 779 c 0
 124 779 122 751 122 725 c 0
 122 700 124 672 165 672 c 0
EndSplineSet
EndChar

StartChar: k
Encoding: 76 107 78
Width: 596
GlyphClass: 2
Flags: W
LayerCount: 3
Fore
SplineSet
60 700 m 1,0,-1
 120 700 l 1,1,-1
 120 50 l 1,2,-1
 60 50 l 1,3,-1
 60 0 l 1,4,-1
 250 0 l 1,5,-1
 250 50 l 1,6,-1
 190 50 l 1,7,-1
 190 282 l 1,8,-1
 270 282 l 1,9,-1
 429 50 l 1,10,-1
 376 50 l 1,11,-1
 376 0 l 1,12,-1
 566 0 l 1,13,-1
 566 50 l 1,14,-1
 507 50 l 1,15,-1
 333 303 l 1,16,-1
 488 522 l 1,17,-1
 548 522 l 1,18,-1
 548 572 l 1,19,-1
 358 572 l 1,20,-1
 358 522 l 1,21,-1
 410 522 l 1,22,-1
 280 336 l 1,23,-1
 190 336 l 1,24,-1
 190 750 l 1,25,-1
 60 750 l 1,26,-1
 60 700 l 1,0,-1
EndSplineSet
Validated: 9
Layer: 2
SplineSet
60 700 m 1
 120 700 l 1
 120 50 l 1
 60 50 l 1
 60 0 l 1
 250 0 l 1
 250 50 l 1
 190 50 l 1
 190 282 l 1
 270 282 l 1
 429 50 l 1
 376 50 l 1
 376 0 l 1
 566 0 l 1
 566 50 l 1
 507 50 l 1
 333 303 l 1
 488 522 l 1
 548 522 l 1
 548 572 l 1
 358 572 l 1
 358 522 l 1
 410 522 l 1
 280 336 l 1
 190 336 l 1
 190 750 l 1
 60 750 l 1
 60 700 l 1
EndSplineSet
EndChar

StartChar: l
Encoding: 77 108 79
Width: 310
GlyphClass: 2
Flags: W
VStem: 60 190
LayerCount: 3
Fore
SplineSet
60 700 m 1,0,-1
 120 700 l 1,1,-1
 120 50 l 1,2,-1
 60 50 l 1,3,-1
 60 0 l 1,4,-1
 250 0 l 1,5,-1
 250 50 l 1,6,-1
 190 50 l 1,7,-1
 190 750 l 1,8,-1
 60 750 l 1,9,-1
 60 700 l 1,0,-1
EndSplineSet
Validated: 9
Layer: 2
SplineSet
60 700 m 1
 120 700 l 1
 120 50 l 1
 60 50 l 1
 60 0 l 1
 250 0 l 1
 250 50 l 1
 190 50 l 1
 190 750 l 1
 60 750 l 1
 60 700 l 1
EndSplineSet
EndChar

StartChar: m
Encoding: 78 109 80
Width: 1022
GlyphClass: 2
Flags: W
HStem: 527 59<276.832 444.569 629.051 795.778>
VStem: 481 70<408 452.343> 832 70<408 490.003>
LayerCount: 3
Fore
SplineSet
421 0 m 1,0,-1
 611 0 l 1,1,-1
 611 50 l 1,2,-1
 551 50 l 1,3,-1
 551 408 l 2,4,5
 551 432 551 432 548 453 c 1,6,7
 628 527 628 527 725 527 c 0,8,9
 832 527 832 527 832 408 c 2,10,-1
 832 50 l 1,11,-1
 772 50 l 1,12,-1
 772 0 l 1,13,-1
 962 0 l 1,14,-1
 962 50 l 1,15,-1
 902 50 l 1,16,-1
 902 408 l 2,17,18
 902 586 902 586 734 586 c 0,19,20
 678 586 678 586 623.5 562 c 128,-1,21
 569 538 569 538 534 503 c 1,22,23
 497 586 497 586 383 586 c 0,24,25
 277 586 277 586 193 510 c 1,26,-1
 177 572 l 1,27,-1
 130 572 l 1,28,-1
 70 572 l 1,29,-1
 70 522 l 1,30,-1
 130 522 l 1,31,-1
 130 50 l 1,32,-1
 70 50 l 1,33,-1
 70 0 l 1,34,-1
 260 0 l 1,35,-1
 260 50 l 1,36,-1
 200 50 l 1,37,-1
 200 455 l 1,38,39
 278 527 278 527 374 527 c 0,40,41
 481 527 481 527 481 408 c 2,42,-1
 481 50 l 1,43,-1
 421 50 l 1,44,-1
 421 0 l 1,0,-1
EndSplineSet
Validated: 9
Layer: 2
SplineSet
421 0 m 1
 611 0 l 1
 611 50 l 1
 551 50 l 1
 551 408 l 2
 551 424 550 439 548 453 c 1
 603 504 659 527 725 527 c 0
 803 527 832 483 832 408 c 2
 832 50 l 1
 772 50 l 1
 772 0 l 1
 962 0 l 1
 962 50 l 1
 902 50 l 1
 902 408 l 2
 902 515 857 586 734 586 c 0
 654 586 577 545 534 503 c 1
 511 555 464 586 383 586 c 0
 308 586 237 550 193 510 c 1
 177 572 l 1
 130 572 l 1
 70 572 l 1
 70 522 l 1
 130 522 l 1
 130 50 l 1
 70 50 l 1
 70 0 l 1
 260 0 l 1
 260 50 l 1
 200 50 l 1
 200 455 l 1
 254 505 309 527 374 527 c 0
 452 527 481 483 481 408 c 2
 481 50 l 1
 421 50 l 1
 421 0 l 1
EndSplineSet
EndChar

StartChar: n
Encoding: 79 110 81
Width: 691
GlyphClass: 2
Flags: W
HStem: 527 59<293.198 469.599>
VStem: 501 70<407 495.154>
LayerCount: 3
Fore
SplineSet
70 522 m 1,0,-1
 130 522 l 1,1,-1
 130 50 l 1,2,-1
 70 50 l 1,3,-1
 70 0 l 1,4,-1
 260 0 l 1,5,-1
 260 50 l 1,6,-1
 200 50 l 1,7,-1
 200 453 l 1,8,9
 293 527 293 527 395 527 c 0,10,11
 452 527 452 527 476.5 499 c 128,-1,12
 501 471 501 471 501 408 c 2,13,-1
 501 50 l 1,14,-1
 441 50 l 1,15,-1
 441 0 l 1,16,-1
 631 0 l 1,17,-1
 631 50 l 1,18,-1
 571 50 l 1,19,-1
 571 407 l 2,20,21
 571 499 571 499 532.5 542.5 c 128,-1,22
 494 586 494 586 406 586 c 0,23,24
 295 586 295 586 194 508 c 1,25,-1
 177 572 l 1,26,-1
 70 572 l 1,27,-1
 70 522 l 1,0,-1
EndSplineSet
Validated: 9
Layer: 2
SplineSet
70 522 m 1
 130 522 l 1
 130 50 l 1
 70 50 l 1
 70 0 l 1
 260 0 l 1
 260 50 l 1
 200 50 l 1
 200 453 l 1
 259 500 324 527 395 527 c 0
 471 527 501 491 501 408 c 2
 501 50 l 1
 441 50 l 1
 441 0 l 1
 631 0 l 1
 631 50 l 1
 571 50 l 1
 571 407 l 2
 571 528 525 586 406 586 c 0
 324 586 246 548 194 508 c 1
 177 572 l 1
 70 572 l 1
 70 522 l 1
EndSplineSet
EndChar

StartChar: o
Encoding: 80 111 82
Width: 608
GlyphClass: 2
Flags: W
HStem: -14 59<207.401 400.599> 527 59<207.401 400.599>
VStem: 60 72<123.217 448.783> 476 72<123.217 448.783>
LayerCount: 3
Fore
SplineSet
304 45 m 256,0,1
 256 45 256 45 222.5 59.5 c 128,-1,2
 189 74 189 74 171.5 94.5 c 128,-1,3
 154 115 154 115 144 150.5 c 128,-1,4
 134 186 134 186 132 214.5 c 128,-1,5
 130 243 130 243 130 286 c 128,-1,6
 130 329 130 329 132 357.5 c 128,-1,7
 134 386 134 386 144 421.5 c 128,-1,8
 154 457 154 457 171.5 477.5 c 128,-1,9
 189 498 189 498 222.5 512.5 c 128,-1,10
 256 527 256 527 304 527 c 128,-1,11
 352 527 352 527 385.5 512.5 c 128,-1,12
 419 498 419 498 436.5 477.5 c 128,-1,13
 454 457 454 457 464 421.5 c 128,-1,14
 474 386 474 386 476 357.5 c 128,-1,15
 478 329 478 329 478 286 c 128,-1,16
 478 243 478 243 476 214.5 c 128,-1,17
 474 186 474 186 464 150.5 c 128,-1,18
 454 115 454 115 436.5 94.5 c 128,-1,19
 419 74 419 74 385.5 59.5 c 128,-1,20
 352 45 352 45 304 45 c 256,0,1
304 -14 m 256,21,22
 350 -14 350 -14 386.5 -5 c 128,-1,23
 423 4 423 4 448.5 18.5 c 128,-1,24
 474 33 474 33 492.5 56 c 128,-1,25
 511 79 511 79 521.5 103 c 128,-1,26
 532 127 532 127 538 159.5 c 128,-1,27
 544 192 544 192 546 220.5 c 128,-1,28
 548 249 548 249 548 286 c 128,-1,29
 548 323 548 323 546 351.5 c 128,-1,30
 544 380 544 380 538 412.5 c 128,-1,31
 532 445 532 445 521.5 469 c 128,-1,32
 511 493 511 493 492.5 516 c 128,-1,33
 474 539 474 539 448.5 553.5 c 128,-1,34
 423 568 423 568 386.5 577 c 128,-1,35
 350 586 350 586 304 586 c 128,-1,36
 258 586 258 586 221.5 577 c 128,-1,37
 185 568 185 568 159.5 553.5 c 128,-1,38
 134 539 134 539 115.5 516 c 128,-1,39
 97 493 97 493 86.5 469 c 128,-1,40
 76 445 76 445 70 412.5 c 128,-1,41
 64 380 64 380 62 351.5 c 128,-1,42
 60 323 60 323 60 286 c 128,-1,43
 60 249 60 249 62 220.5 c 128,-1,44
 64 192 64 192 70 159.5 c 128,-1,45
 76 127 76 127 86.5 103 c 128,-1,46
 97 79 97 79 115.5 56 c 128,-1,47
 134 33 134 33 159.5 18.5 c 128,-1,48
 185 4 185 4 221.5 -5 c 128,-1,49
 258 -14 258 -14 304 -14 c 256,21,22
EndSplineSet
Validated: 9
Layer: 2
SplineSet
304 45 m 0
 139 45 130 167 130 286 c 0
 130 405 139 527 304 527 c 0
 469 527 478 405 478 286 c 0
 478 167 469 45 304 45 c 0
304 -14 m 0
 524 -14 548 131 548 286 c 0
 548 441 524 586 304 586 c 0
 84 586 60 441 60 286 c 0
 60 131 84 -14 304 -14 c 0
EndSplineSet
EndChar

StartChar: p
Encoding: 81 112 83
Width: 636
GlyphClass: 2
Flags: W
HStem: -14 59<224.489 435.541> 522 50<367.715 445.288> 527 59<261.722 438.715>
VStem: 120 70<68.6328 77 468 483.427> 506 70<123.146 208.5 345.5 444.96>
LayerCount: 3
Fore
SplineSet
167 572 m 1,0,-1
 120 572 l 1,1,-1
 60 572 l 1,2,-1
 60 522 l 1,3,-1
 120 522 l 1,4,-1
 120 -177 l 1,5,-1
 60 -177 l 1,6,-1
 60 -227 l 1,7,-1
 270 -227 l 1,8,-1
 270 -177 l 1,9,-1
 190 -177 l 1,10,-1
 190 21 l 1,11,12
 270 -14 270 -14 356 -14 c 0,13,14
 413 -14 413 -14 454.5 3 c 128,-1,15
 496 20 496 20 519 46 c 128,-1,16
 542 72 542 72 555.5 114 c 128,-1,17
 569 156 569 156 572.5 194.5 c 128,-1,18
 576 233 576 233 576 286 c 128,-1,19
 576 339 576 339 572.5 377.5 c 128,-1,20
 569 416 569 416 556 458 c 128,-1,21
 543 500 543 500 521 526 c 128,-1,22
 499 552 499 552 460 569 c 128,-1,23
 421 586 421 586 366 586 c 0,24,25
 272 586 272 586 181 518 c 1,26,-1
 167 572 l 1,0,-1
356 527 m 0,27,28
 389 527 389 527 414 518 c 128,-1,29
 439 509 439 509 455 491 c 128,-1,30
 471 473 471 473 481.5 451.5 c 128,-1,31
 492 430 492 430 497 400.5 c 128,-1,32
 502 371 502 371 504 345.5 c 128,-1,33
 506 320 506 320 506 286 c 0,34,35
 506 240 506 240 503.5 208.5 c 128,-1,36
 501 177 501 177 491.5 143.5 c 128,-1,37
 482 110 482 110 465 90.5 c 128,-1,38
 448 71 448 71 418 58 c 128,-1,39
 388 45 388 45 346 45 c 0,40,41
 260 45 260 45 190 77 c 1,42,-1
 190 468 l 1,43,44
 267 527 267 527 356 527 c 0,27,28
EndSplineSet
Validated: 9
Layer: 2
SplineSet
167 572 m 1
 120 572 l 1
 60 572 l 1
 60 522 l 1
 120 522 l 1
 120 -177 l 1
 60 -177 l 1
 60 -227 l 1
 270 -227 l 1
 270 -177 l 1
 190 -177 l 1
 190 21 l 1
 236 1 294 -14 356 -14 c 0
 554 -14 576 131 576 286 c 0
 576 441 554 586 366 586 c 0
 300 586 232 556 181 518 c 1
 167 572 l 1
356 527 m 0
 491 527 506 405 506 286 c 0
 506 152 491 45 346 45 c 0
 303 45 251 49 190 77 c 1
 190 468 l 1
 241 507 303 527 356 527 c 0
EndSplineSet
EndChar

StartChar: q
Encoding: 82 113 84
Width: 636
GlyphClass: 2
Flags: W
HStem: -14 59<199.003 399.052> 527 59<201.723 393.698>
VStem: 60 70<127.283 194.5 364.5 443.666> 446 70<73.8025 84 477 491.404>
LayerCount: 3
Fore
SplineSet
576 -177 m 1,0,-1
 516 -177 l 1,1,-1
 516 522 l 1,2,-1
 576 522 l 1,3,-1
 576 572 l 1,4,-1
 469 572 l 1,5,-1
 457 528 l 1,6,7
 380 586 380 586 280 586 c 0,8,9
 223 586 223 586 181.5 569 c 128,-1,10
 140 552 140 552 117 526 c 128,-1,11
 94 500 94 500 80.5 458 c 128,-1,12
 67 416 67 416 63.5 377.5 c 128,-1,13
 60 339 60 339 60 286 c 128,-1,14
 60 233 60 233 63.5 194.5 c 128,-1,15
 67 156 67 156 80.5 114 c 128,-1,16
 94 72 94 72 117 46 c 128,-1,17
 140 20 140 20 181.5 3 c 128,-1,18
 223 -14 223 -14 280 -14 c 0,19,20
 357 -14 357 -14 446 26 c 1,21,-1
 446 -177 l 1,22,-1
 366 -177 l 1,23,-1
 366 -227 l 1,24,-1
 576 -227 l 1,25,-1
 576 -177 l 1,0,-1
290 45 m 0,26,27
 240 45 240 45 207 62 c 128,-1,28
 174 79 174 79 157.5 114 c 128,-1,29
 141 149 141 149 135.5 188.5 c 128,-1,30
 130 228 130 228 130 286 c 0,31,32
 130 331 130 331 133.5 364.5 c 128,-1,33
 137 398 137 398 147 430.5 c 128,-1,34
 157 463 157 463 174.5 483 c 128,-1,35
 192 503 192 503 221 515 c 128,-1,36
 250 527 250 527 290 527 c 0,37,38
 382 527 382 527 446 477 c 1,39,-1
 446 84 l 1,40,41
 371 45 371 45 290 45 c 0,26,27
EndSplineSet
Validated: 9
Layer: 2
SplineSet
576 -177 m 1
 516 -177 l 1
 516 522 l 1
 576 522 l 1
 576 572 l 1
 469 572 l 1
 457 528 l 1
 416 559 355 586 280 586 c 0
 82 586 60 441 60 286 c 0
 60 131 82 -14 280 -14 c 0
 337 -14 397 4 446 26 c 1
 446 -177 l 1
 366 -177 l 1
 366 -227 l 1
 576 -227 l 1
 576 -177 l 1
290 45 m 0
 151 45 130 147 130 286 c 0
 130 425 153 527 290 527 c 0
 345 527 397 515 446 477 c 1
 446 84 l 1
 396 58 345 45 290 45 c 0
EndSplineSet
EndChar

StartChar: r
Encoding: 83 114 85
Width: 419
GlyphClass: 2
Flags: W
HStem: 519 67<313.844 409>
VStem: 130 70<389 421.783>
LayerCount: 3
Fore
SplineSet
177 572 m 1,0,-1
 130 572 l 1,1,-1
 70 572 l 1,2,-1
 70 522 l 1,3,-1
 130 522 l 1,4,-1
 130 50 l 1,5,-1
 70 50 l 1,6,-1
 70 0 l 1,7,-1
 280 0 l 1,8,-1
 280 50 l 1,9,-1
 200 50 l 1,10,-1
 200 389 l 1,11,12
 268 514 268 514 409 519 c 1,13,-1
 409 586 l 1,14,15
 269 581 269 581 199 462 c 1,16,-1
 177 572 l 1,0,-1
EndSplineSet
Validated: 9
Layer: 2
SplineSet
177 572 m 1
 130 572 l 1
 70 572 l 1
 70 522 l 1
 130 522 l 1
 130 50 l 1
 70 50 l 1
 70 0 l 1
 280 0 l 1
 280 50 l 1
 200 50 l 1
 200 389 l 1
 236 455 299 515 409 519 c 1
 409 586 l 1
 296 582 236 525 199 462 c 1
 177 572 l 1
EndSplineSet
EndChar

StartChar: s
Encoding: 84 115 86
Width: 568
GlyphClass: 2
Flags: W
HStem: -14 59<198.02 387.257> 527 59<178.749 369.642>
VStem: 73 70<368.555 492.555> 75 49<119.207 202> 428 70<83.0807 202.628> 430 46<370 467.446>
LayerCount: 3
Fore
SplineSet
425 572 m 1,0,-1
 426 514 l 1,1,2
 380 586 380 586 261 586 c 0,3,4
 168 586 168 586 120.5 542.5 c 128,-1,5
 73 499 73 499 73 428 c 0,6,7
 73 353 73 353 113 319.5 c 128,-1,8
 153 286 153 286 246 262 c 2,9,-1
 324 241 l 2,10,11
 382 226 382 226 405 204 c 128,-1,12
 428 182 428 182 428 146 c 0,13,14
 428 45 428 45 292 45 c 0,15,16
 138 45 138 45 121 202 c 1,17,-1
 75 202 l 1,18,-1
 75 0 l 1,19,-1
 126 0 l 1,20,-1
 124 74 l 1,21,22
 176 -14 176 -14 301 -14 c 0,23,24
 498 -14 498 -14 498 146 c 0,25,26
 498 217 498 217 458.5 250.5 c 128,-1,27
 419 284 419 284 327 309 c 2,28,-1
 249 330 l 2,29,30
 190 345 190 345 166.5 366.5 c 128,-1,31
 143 388 143 388 143 429 c 0,32,33
 143 473 143 473 171.5 500 c 128,-1,34
 200 527 200 527 261 527 c 0,35,36
 306 527 306 527 333 521.5 c 128,-1,37
 360 516 360 516 382 499.5 c 128,-1,38
 404 483 404 483 415 452 c 128,-1,39
 426 421 426 421 430 370 c 1,40,-1
 476 370 l 1,41,-1
 476 572 l 1,42,-1
 425 572 l 1,0,-1
EndSplineSet
Validated: 9
Layer: 2
SplineSet
425 572 m 1
 426 514 l 1
 393 566 336 586 261 586 c 0
 132 586 73 518 73 428 c 0
 73 320 136 291 246 262 c 2
 324 241 l 2
 403 220 428 193 428 146 c 0
 428 79 384 45 292 45 c 0
 188 45 132 101 121 202 c 1
 75 202 l 1
 75 0 l 1
 126 0 l 1
 124 74 l 1
 159 15 221 -14 301 -14 c 0
 446 -14 498 52 498 146 c 0
 498 246 440 278 327 309 c 2
 249 330 l 2
 173 350 143 373 143 429 c 0
 143 482 174 527 261 527 c 0
 372 527 418 506 430 370 c 1
 476 370 l 1
 476 572 l 1
 425 572 l 1
EndSplineSet
EndChar

StartChar: t
Encoding: 85 116 87
Width: 363
GlyphClass: 2
Flags: W
HStem: -14 55<207.097 305.627>
VStem: 125 70<60.6003 125>
LayerCount: 3
Fore
SplineSet
35 522 m 1,0,-1
 125 522 l 1,1,-1
 125 125 l 2,2,3
 125 100 125 100 126.5 83 c 128,-1,4
 128 66 128 66 134 46 c 128,-1,5
 140 26 140 26 150.5 14 c 128,-1,6
 161 2 161 2 180.5 -6 c 128,-1,7
 200 -14 200 -14 227 -14 c 0,8,9
 263 -14 263 -14 313 0 c 1,10,-1
 304 49 l 1,11,12
 269 41 269 41 249 41 c 0,13,14
 220 41 220 41 207.5 60 c 128,-1,15
 195 79 195 79 195 125 c 2,16,-1
 195 522 l 1,17,-1
 300 522 l 1,18,-1
 300 572 l 1,19,-1
 195 572 l 1,20,-1
 195 700 l 1,21,-1
 125 686 l 1,22,-1
 125 572 l 1,23,-1
 35 572 l 1,24,-1
 35 522 l 1,0,-1
EndSplineSet
Validated: 9
Layer: 2
SplineSet
35 522 m 1
 125 522 l 1
 125 125 l 2
 125 55 133 -14 227 -14 c 0
 250 -14 277 -10 313 0 c 1
 304 49 l 1
 282 44 264 41 249 41 c 0
 210 41 195 63 195 125 c 2
 195 522 l 1
 300 522 l 1
 300 572 l 1
 195 572 l 1
 195 700 l 1
 125 686 l 1
 125 572 l 1
 35 572 l 1
 35 522 l 1
EndSplineSet
EndChar

StartChar: u
Encoding: 86 117 88
Width: 696
GlyphClass: 2
Flags: W
HStem: -14 59<221.738 401.588>
VStem: 120 70<78.5811 164>
LayerCount: 3
Fore
SplineSet
120 572 m 1,0,-1
 60 572 l 1,1,-1
 60 522 l 1,2,-1
 120 522 l 1,3,-1
 120 163 l 2,4,5
 120 70 120 70 157.5 28 c 128,-1,6
 195 -14 195 -14 289 -14 c 0,7,8
 404 -14 404 -14 509 73 c 1,9,-1
 529 0 l 1,10,-1
 636 0 l 1,11,-1
 636 50 l 1,12,-1
 576 50 l 1,13,-1
 576 572 l 1,14,-1
 446 572 l 1,15,-1
 446 522 l 1,16,-1
 506 522 l 1,17,-1
 506 132 l 1,18,19
 411 45 411 45 304 45 c 0,20,21
 241 45 241 45 215.5 72.5 c 128,-1,22
 190 100 190 100 190 164 c 2,23,-1
 190 572 l 1,24,-1
 120 572 l 1,0,-1
EndSplineSet
Validated: 9
Layer: 2
SplineSet
120 572 m 1
 60 572 l 1
 60 522 l 1
 120 522 l 1
 120 163 l 2
 120 44 160 -14 289 -14 c 0
 376 -14 457 30 509 73 c 1
 529 0 l 1
 636 0 l 1
 636 50 l 1
 576 50 l 1
 576 572 l 1
 446 572 l 1
 446 522 l 1
 506 522 l 1
 506 132 l 1
 459 89 390 45 304 45 c 0
 219 45 190 79 190 164 c 2
 190 572 l 1
 120 572 l 1
EndSplineSet
EndChar

StartChar: v
Encoding: 87 118 89
Width: 572
GlyphClass: 2
Flags: W
LayerCount: 3
Fore
SplineSet
176 572 m 1,0,-1
 10 572 l 1,1,-1
 10 522 l 1,2,-1
 49 522 l 1,3,-1
 248 0 l 1,4,-1
 324 0 l 1,5,-1
 523 522 l 1,6,-1
 562 522 l 1,7,-1
 562 572 l 1,8,-1
 396 572 l 1,9,-1
 396 522 l 1,10,-1
 452 522 l 1,11,-1
 286 77 l 1,12,-1
 119 522 l 1,13,-1
 176 522 l 1,14,-1
 176 572 l 1,0,-1
EndSplineSet
Validated: 9
Layer: 2
SplineSet
176 572 m 1
 10 572 l 1
 10 522 l 1
 49 522 l 1
 248 0 l 1
 324 0 l 1
 523 522 l 1
 562 522 l 1
 562 572 l 1
 396 572 l 1
 396 522 l 1
 452 522 l 1
 286 77 l 1
 119 522 l 1
 176 522 l 1
 176 572 l 1
EndSplineSet
EndChar

StartChar: w
Encoding: 88 119 90
Width: 786
GlyphClass: 2
Flags: W
LayerCount: 3
Fore
SplineSet
776 572 m 1,0,-1
 610 572 l 1,1,-1
 610 522 l 1,2,-1
 671 522 l 1,3,-1
 548 87 l 1,4,-1
 422 522 l 1,5,-1
 363 522 l 1,6,-1
 238 87 l 1,7,-1
 115 522 l 1,8,-1
 176 522 l 1,9,-1
 176 572 l 1,10,-1
 10 572 l 1,11,-1
 10 522 l 1,12,-1
 44 522 l 1,13,-1
 195 0 l 1,14,-1
 272 0 l 1,15,-1
 393 418 l 1,16,-1
 514 0 l 1,17,-1
 591 0 l 1,18,-1
 741 522 l 1,19,-1
 776 522 l 1,20,-1
 776 572 l 1,0,-1
EndSplineSet
Validated: 9
Layer: 2
SplineSet
776 572 m 1
 610 572 l 1
 610 522 l 1
 671 522 l 1
 548 87 l 1
 422 522 l 1
 363 522 l 1
 238 87 l 1
 115 522 l 1
 176 522 l 1
 176 572 l 1
 10 572 l 1
 10 522 l 1
 44 522 l 1
 195 0 l 1
 272 0 l 1
 393 418 l 1
 514 0 l 1
 591 0 l 1
 741 522 l 1
 776 522 l 1
 776 572 l 1
EndSplineSet
EndChar

StartChar: x
Encoding: 89 120 91
Width: 569
GlyphClass: 2
Flags: W
LayerCount: 3
Fore
SplineSet
201 50 m 1,0,-1
 144 50 l 1,1,-1
 281 246 l 1,2,-1
 418 50 l 1,3,-1
 368 50 l 1,4,-1
 368 0 l 1,5,-1
 544 0 l 1,6,-1
 544 50 l 1,7,-1
 497 50 l 1,8,-1
 326 294 l 1,9,-1
 486 522 l 1,10,-1
 529 522 l 1,11,-1
 529 572 l 1,12,-1
 353 572 l 1,13,-1
 353 522 l 1,14,-1
 409 522 l 1,15,-1
 288 348 l 1,16,-1
 166 522 l 1,17,-1
 216 522 l 1,18,-1
 216 572 l 1,19,-1
 40 572 l 1,20,-1
 40 522 l 1,21,-1
 87 522 l 1,22,-1
 243 299 l 1,23,-1
 67 50 l 1,24,-1
 25 50 l 1,25,-1
 25 0 l 1,26,-1
 201 0 l 1,27,-1
 201 50 l 1,0,-1
EndSplineSet
Validated: 9
Layer: 2
SplineSet
201 50 m 1
 144 50 l 1
 281 246 l 1
 418 50 l 1
 368 50 l 1
 368 0 l 1
 544 0 l 1
 544 50 l 1
 497 50 l 1
 326 294 l 1
 486 522 l 1
 529 522 l 1
 529 572 l 1
 353 572 l 1
 353 522 l 1
 409 522 l 1
 288 348 l 1
 166 522 l 1
 216 522 l 1
 216 572 l 1
 40 572 l 1
 40 522 l 1
 87 522 l 1
 243 299 l 1
 67 50 l 1
 25 50 l 1
 25 0 l 1
 201 0 l 1
 201 50 l 1
EndSplineSet
EndChar

StartChar: y
Encoding: 90 121 92
Width: 572
GlyphClass: 2
Flags: W
LayerCount: 3
Fore
SplineSet
99 -227 m 1,0,-1
 189 -227 l 2,1,2
 220 -227 220 -227 235 -211.5 c 128,-1,3
 250 -196 250 -196 263 -162 c 2,4,-1
 523 522 l 1,5,-1
 562 522 l 1,6,-1
 562 572 l 1,7,-1
 396 572 l 1,8,-1
 396 522 l 1,9,-1
 452 522 l 1,10,-1
 286 76 l 1,11,-1
 119 522 l 1,12,-1
 176 522 l 1,13,-1
 176 572 l 1,14,-1
 10 572 l 1,15,-1
 10 522 l 1,16,-1
 49 522 l 1,17,-1
 253 -13 l 1,18,-1
 207 -136 l 2,19,20
 202 -150 202 -150 198 -156 c 128,-1,21
 194 -162 194 -162 185 -166.5 c 128,-1,22
 176 -171 176 -171 158 -172 c 2,23,-1
 99 -177 l 1,24,-1
 99 -227 l 1,0,-1
EndSplineSet
Validated: 9
Layer: 2
SplineSet
99 -227 m 1
 189 -227 l 2
 234 -227 248 -202 263 -162 c 2
 523 522 l 1
 562 522 l 1
 562 572 l 1
 396 572 l 1
 396 522 l 1
 452 522 l 1
 286 76 l 1
 119 522 l 1
 176 522 l 1
 176 572 l 1
 10 572 l 1
 10 522 l 1
 49 522 l 1
 253 -13 l 1
 207 -136 l 2
 198 -160 194 -169 158 -172 c 2
 99 -177 l 1
 99 -227 l 1
EndSplineSet
EndChar

StartChar: z
Encoding: 91 122 93
Width: 486
GlyphClass: 2
Flags: W
LayerCount: 3
Fore
SplineSet
386 166 m 1,0,-1
 386 56 l 1,1,-1
 76 56 l 1,2,-1
 432 522 l 1,3,-1
 432 572 l 1,4,-1
 14 572 l 1,5,-1
 14 406 l 1,6,-1
 64 406 l 1,7,-1
 64 516 l 1,8,-1
 346 516 l 1,9,-1
 -10 50 l 1,10,-1
 -10 0 l 1,11,-1
 436 0 l 1,12,-1
 436 166 l 1,13,-1
 386 166 l 1,0,-1
EndSplineSet
Validated: 9
Layer: 2
SplineSet
386 166 m 1
 386 56 l 1
 76 56 l 1
 432 522 l 1
 432 572 l 1
 14 572 l 1
 14 406 l 1
 64 406 l 1
 64 516 l 1
 346 516 l 1
 -10 50 l 1
 -10 0 l 1
 436 0 l 1
 436 166 l 1
 386 166 l 1
EndSplineSet
EndChar

StartChar: braceleft
Encoding: 92 123 94
Width: 294
GlyphClass: 2
Flags: W
HStem: -66 62<210.681 289> 310 50<21 71.7645> 674 62<210.681 289>
VStem: 88 74<46.4102 262.886 407.114 623.59> 96 74<144.815 297.934 372.066 525.185>
CounterMasks: 1 e0
LayerCount: 3
Fore
SplineSet
121 332 m 1,0,1
 141 332 141 332 155.5 314 c 128,-1,2
 170 296 170 296 170 266 c 0,3,4
 170 246 170 246 166 208 c 128,-1,5
 162 170 162 170 162 144 c 0,6,7
 162 73 162 73 190.5 34.5 c 128,-1,8
 219 -4 219 -4 289 -4 c 1,9,-1
 289 -66 l 1,10,11
 88 -66 88 -66 88 137 c 0,12,13
 88 161 88 161 92 201.5 c 128,-1,14
 96 242 96 242 96 261 c 0,15,16
 96 288 96 288 72.5 299 c 128,-1,17
 49 310 49 310 21 310 c 1,18,-1
 21 360 l 1,19,20
 49 360 49 360 72.5 371 c 128,-1,21
 96 382 96 382 96 409 c 0,22,23
 96 428 96 428 92 468.5 c 128,-1,24
 88 509 88 509 88 533 c 0,25,26
 88 736 88 736 289 736 c 1,27,-1
 289 674 l 1,28,29
 219 674 219 674 190.5 635.5 c 128,-1,30
 162 597 162 597 162 526 c 0,31,32
 162 500 162 500 166 462 c 128,-1,33
 170 424 170 424 170 404 c 0,34,35
 170 374 170 374 155.5 356 c 128,-1,36
 141 338 141 338 121 338 c 1,37,-1
 121 332 l 1,0,1
EndSplineSet
Validated: 1
Layer: 2
SplineSet
121 332 m 1
 146 332 170 308 170 266 c 0
 170 224 162 194 162 144 c 0
 162 58 190 -4 289 -4 c 1
 289 -66 l 1
 136 -66 88 24 88 137 c 0
 88 183 96 221 96 261 c 0
 96 301 49 310 21 310 c 1
 21 360 l 1
 49 360 96 369 96 409 c 0
 96 449 88 487 88 533 c 0
 88 646 136 736 289 736 c 1
 289 674 l 1
 190 674 162 612 162 526 c 0
 162 476 170 446 170 404 c 0
 170 362 146 338 121 338 c 1
 121 332 l 1
EndSplineSet
EndChar

StartChar: bar
Encoding: 93 124 95
Width: 321
GlyphClass: 2
Flags: W
VStem: 120 81
LayerCount: 3
Fore
SplineSet
120 -106 m 1,0,-1
 201 -106 l 1,1,-1
 201 775 l 1,2,-1
 120 775 l 1,3,-1
 120 -106 l 1,0,-1
EndSplineSet
Validated: 9
Layer: 2
SplineSet
120 -106 m 1
 201 -106 l 1
 201 775 l 1
 120 775 l 1
 120 -106 l 1
EndSplineSet
EndChar

StartChar: braceright
Encoding: 94 125 96
Width: 294
GlyphClass: 2
Flags: W
HStem: -66 62<5 83.3193> 310 50<222.235 273> 674 62<5 83.3193>
VStem: 124 74<144.815 297.934 372.066 525.185> 132 74<46.4102 262.886 407.114 623.59>
CounterMasks: 1 e0
LayerCount: 3
Fore
SplineSet
173 338 m 1,0,1
 153 338 153 338 138.5 356 c 128,-1,2
 124 374 124 374 124 404 c 0,3,4
 124 424 124 424 128 462 c 128,-1,5
 132 500 132 500 132 526 c 0,6,7
 132 597 132 597 103.5 635.5 c 128,-1,8
 75 674 75 674 5 674 c 1,9,-1
 5 736 l 1,10,11
 206 736 206 736 206 533 c 0,12,13
 206 509 206 509 202 468.5 c 128,-1,14
 198 428 198 428 198 409 c 0,15,16
 198 382 198 382 221.5 371 c 128,-1,17
 245 360 245 360 273 360 c 1,18,-1
 273 310 l 1,19,20
 245 310 245 310 221.5 299 c 128,-1,21
 198 288 198 288 198 261 c 0,22,23
 198 242 198 242 202 201.5 c 128,-1,24
 206 161 206 161 206 137 c 0,25,26
 206 -66 206 -66 5 -66 c 1,27,-1
 5 -4 l 1,28,29
 75 -4 75 -4 103.5 34.5 c 128,-1,30
 132 73 132 73 132 144 c 0,31,32
 132 170 132 170 128 208 c 128,-1,33
 124 246 124 246 124 266 c 0,34,35
 124 296 124 296 138.5 314 c 128,-1,36
 153 332 153 332 173 332 c 1,37,-1
 173 338 l 1,0,1
EndSplineSet
Validated: 1
Layer: 2
SplineSet
173 338 m 1
 148 338 124 362 124 404 c 0
 124 446 132 476 132 526 c 0
 132 612 104 674 5 674 c 1
 5 736 l 1
 158 736 206 646 206 533 c 0
 206 487 198 449 198 409 c 0
 198 369 245 360 273 360 c 1
 273 310 l 1
 245 310 198 301 198 261 c 0
 198 221 206 183 206 137 c 0
 206 24 158 -66 5 -66 c 1
 5 -4 l 1
 104 -4 132 58 132 144 c 0
 132 194 124 224 124 266 c 0
 124 308 148 332 173 332 c 1
 173 338 l 1
EndSplineSet
EndChar

StartChar: asciitilde
Encoding: 95 126 97
Width: 580
GlyphClass: 2
Flags: W
HStem: 266 58<97.3523 289.485> 309 58<289.515 484.826>
LayerCount: 3
Fore
SplineSet
94 288 m 1,0,1
 131 266 131 266 176 266 c 0,2,3
 213 266 213 266 289.5 287.5 c 128,-1,4
 366 309 366 309 404 309 c 0,5,6
 448 309 448 309 486 288 c 1,7,-1
 486 348 l 1,8,9
 449 367 449 367 404 367 c 0,10,11
 366 367 366 367 289.5 345.5 c 128,-1,12
 213 324 213 324 176 324 c 0,13,14
 128 324 128 324 94 348 c 1,15,-1
 94 288 l 1,0,1
EndSplineSet
Validated: 9
Layer: 2
SplineSet
94 288 m 1
 121 272 148 266 176 266 c 0
 251 266 328 309 404 309 c 0
 432 309 459 303 486 288 c 1
 486 348 l 1
 459 362 431 367 404 367 c 0
 328 367 251 324 176 324 c 0
 148 324 121 329 94 348 c 1
 94 288 l 1
EndSplineSet
EndChar

StartChar: exclamdown
Encoding: 96 161 98
Width: 316
GlyphClass: 2
Flags: W
HStem: 469 117<119.287 196.714>
VStem: 110 96<485.503 570.013> 119 80<6 156.5> 137 44<242.5 393>
LayerCount: 3
Fore
SplineSet
159 586 m 0,0,1
 188 586 188 586 197 570.5 c 128,-1,2
 206 555 206 555 206 528 c 0,3,4
 206 510 206 510 204 499.5 c 128,-1,5
 202 489 202 489 191 479 c 128,-1,6
 180 469 180 469 159 469 c 0,7,8
 128 469 128 469 119 485 c 128,-1,9
 110 501 110 501 110 528 c 0,10,11
 110 540 110 540 111.5 548.5 c 128,-1,12
 113 557 113 557 117.5 566.5 c 128,-1,13
 122 576 122 576 132.5 581 c 128,-1,14
 143 586 143 586 159 586 c 0,0,1
199 -152 m 1,15,-1
 199 6 l 1,16,-1
 181 393 l 1,17,-1
 137 393 l 1,18,-1
 119 6 l 1,19,-1
 119 -152 l 1,20,-1
 199 -152 l 1,15,-1
EndSplineSet
Validated: 9
Layer: 2
SplineSet
159 586 m 0
 203 586 206 555 206 528 c 0
 206 500 203 469 159 469 c 0
 113 469 110 500 110 528 c 0
 110 555 113 586 159 586 c 0
199 -152 m 1
 199 6 l 1
 181 393 l 1
 137 393 l 1
 119 6 l 1
 119 -152 l 1
 199 -152 l 1
EndSplineSet
EndChar

StartChar: cent
Encoding: 97 162 99
Width: 580
GlyphClass: 2
Flags: W
HStem: 35 60<224.045 293 343 423.156> 575 60<229.098 293 343 411.103>
VStem: 84 70<173.809 496.751> 462 57<445.632 522.25>
LayerCount: 3
Fore
SplineSet
293 -74 m 1,0,-1
 343 -74 l 1,1,-1
 343 36 l 1,2,3
 410 40 410 40 450.5 64 c 128,-1,4
 491 88 491 88 506.5 123 c 128,-1,5
 522 158 522 158 526 211 c 1,6,-1
 469 214 l 1,7,8
 467 159 467 159 439.5 129.5 c 128,-1,9
 412 100 412 100 343 95 c 1,10,-1
 343 575 l 1,11,12
 455 569 455 569 462 443 c 1,13,-1
 519 446 l 1,14,15
 512 531 512 531 473.5 581 c 128,-1,16
 435 631 435 631 343 635 c 1,17,-1
 343 744 l 1,18,-1
 293 744 l 1,19,-1
 293 633 l 1,20,21
 238 629 238 629 199 610 c 128,-1,22
 160 591 160 591 138 564.5 c 128,-1,23
 116 538 116 538 103.5 498 c 128,-1,24
 91 458 91 458 87.5 421.5 c 128,-1,25
 84 385 84 385 84 335 c 128,-1,26
 84 285 84 285 88 247 c 128,-1,27
 92 209 92 209 105 168.5 c 128,-1,28
 118 128 118 128 140 101.5 c 128,-1,29
 162 75 162 75 201 56.5 c 128,-1,30
 240 38 240 38 293 35 c 1,31,-1
 293 -74 l 1,0,-1
154 335 m 256,32,33
 154 377 154 377 155.5 404 c 128,-1,34
 157 431 157 431 165 464.5 c 128,-1,35
 173 498 173 498 187 517.5 c 128,-1,36
 201 537 201 537 228 553 c 128,-1,37
 255 569 255 569 293 574 c 1,38,-1
 293 95 l 1,39,40
 256 98 256 98 230 113 c 128,-1,41
 204 128 204 128 189.5 148.5 c 128,-1,42
 175 169 175 169 166.5 202 c 128,-1,43
 158 235 158 235 156 264 c 128,-1,44
 154 293 154 293 154 335 c 256,32,33
EndSplineSet
Validated: 9
Layer: 2
SplineSet
293 -74 m 1
 343 -74 l 1
 343 36 l 1
 482 44 518 113 526 211 c 1
 469 214 l 1
 466 147 441 102 343 95 c 1
 343 575 l 1
 433 570 458 512 462 443 c 1
 519 446 l 1
 511 546 475 629 343 635 c 1
 343 744 l 1
 293 744 l 1
 293 633 l 1
 105 618 84 481 84 335 c 0
 84 185 109 45 293 35 c 1
 293 -74 l 1
154 335 m 0
 154 452 161 558 293 574 c 1
 293 95 l 1
 166 105 154 214 154 335 c 0
EndSplineSet
EndChar

StartChar: sterling
Encoding: 98 163 100
Width: 580
GlyphClass: 2
Flags: W
HStem: 625 59<240.642 407.102>
VStem: 130 72<86.1465 174 489 584.907> 452 62<489 578.799>
LayerCount: 3
Fore
SplineSet
64 291 m 1,0,-1
 130 291 l 1,1,-1
 130 164 l 2,2,3
 130 98 130 98 82 56 c 1,4,-1
 82 0 l 1,5,-1
 531 0 l 1,6,-1
 531 59 l 1,7,-1
 157 59 l 1,8,9
 183 80 183 80 192.5 104.5 c 128,-1,10
 202 129 202 129 202 174 c 2,11,-1
 202 291 l 1,12,-1
 441 291 l 1,13,-1
 441 341 l 1,14,-1
 202 341 l 1,15,-1
 202 489 l 2,16,17
 202 558 202 558 228 591.5 c 128,-1,18
 254 625 254 625 323 625 c 0,19,20
 391 625 391 625 421.5 591.5 c 128,-1,21
 452 558 452 558 452 485 c 1,22,-1
 514 489 l 1,23,24
 514 590 514 590 469 637 c 128,-1,25
 424 684 424 684 319 684 c 0,26,27
 217 684 217 684 173.5 635 c 128,-1,28
 130 586 130 586 130 489 c 2,29,-1
 130 341 l 1,30,-1
 64 341 l 1,31,-1
 64 291 l 1,0,-1
EndSplineSet
Validated: 9
Layer: 2
SplineSet
64 291 m 1
 130 291 l 1
 130 164 l 2
 130 129 123 92 82 56 c 1
 82 0 l 1
 531 0 l 1
 531 59 l 1
 157 59 l 1
 193 87 202 115 202 174 c 2
 202 291 l 1
 441 291 l 1
 441 341 l 1
 202 341 l 1
 202 489 l 2
 202 574 225 625 323 625 c 0
 413 625 452 583 452 485 c 1
 514 489 l 1
 514 620 462 684 319 684 c 0
 178 684 130 612 130 489 c 2
 130 341 l 1
 64 341 l 1
 64 291 l 1
EndSplineSet
EndChar

StartChar: currency
Encoding: 99 164 101
Width: 582
GlyphClass: 2
Flags: W
HStem: 131 59<201.047 385.718> 480 59<206.547 390.467>
VStem: 97 63<229.381 437.047> 432 63<233.433 440.131>
LayerCount: 3
Fore
SplineSet
75 586 m 1,0,-1
 40 551 l 1,1,-1
 124 466 l 1,2,3
 97 424 97 424 97 335 c 0,4,5
 97 245 97 245 122 201 c 1,6,-1
 40 119 l 1,7,-1
 75 84 l 1,8,-1
 156 165 l 1,9,10
 201 131 201 131 287 131 c 0,11,12
 377 131 377 131 427 163 c 1,13,-1
 507 84 l 1,14,-1
 542 119 l 1,15,-1
 464 198 l 1,16,17
 495 242 495 242 495 335 c 0,18,19
 495 430 495 430 465 474 c 1,20,-1
 542 551 l 1,21,-1
 507 586 l 1,22,-1
 430 509 l 1,23,24
 386 539 386 539 304 539 c 0,25,26
 209 539 209 539 158 503 c 1,27,-1
 75 586 l 1,0,-1
287 190 m 0,28,29
 252 190 252 190 227.5 199 c 128,-1,30
 203 208 203 208 190 220 c 128,-1,31
 177 232 177 232 170 253.5 c 128,-1,32
 163 275 163 275 161.5 292 c 128,-1,33
 160 309 160 309 160 335 c 128,-1,34
 160 361 160 361 161.5 378 c 128,-1,35
 163 395 163 395 171 416.5 c 128,-1,36
 179 438 179 438 194 450 c 128,-1,37
 209 462 209 462 236.5 471 c 128,-1,38
 264 480 264 480 304 480 c 0,39,40
 339 480 339 480 364 471 c 128,-1,41
 389 462 389 462 402 450 c 128,-1,42
 415 438 415 438 422 416.5 c 128,-1,43
 429 395 429 395 430.5 378 c 128,-1,44
 432 361 432 361 432 335 c 128,-1,45
 432 309 432 309 430.5 292 c 128,-1,46
 429 275 429 275 421 253.5 c 128,-1,47
 413 232 413 232 398 220 c 128,-1,48
 383 208 383 208 355 199 c 128,-1,49
 327 190 327 190 287 190 c 0,28,29
EndSplineSet
Validated: 9
Layer: 2
SplineSet
75 586 m 1
 40 551 l 1
 124 466 l 1
 101 430 97 383 97 335 c 0
 97 286 101 238 122 201 c 1
 40 119 l 1
 75 84 l 1
 156 165 l 1
 184 144 226 131 287 131 c 0
 352 131 396 143 427 163 c 1
 507 84 l 1
 542 119 l 1
 464 198 l 1
 490 235 495 284 495 335 c 0
 495 386 490 437 465 474 c 1
 542 551 l 1
 507 586 l 1
 430 509 l 1
 402 528 361 539 304 539 c 0
 235 539 189 525 158 503 c 1
 75 586 l 1
287 190 m 0
 166 190 160 264 160 335 c 0
 160 406 167 480 304 480 c 0
 426 480 432 406 432 335 c 0
 432 264 425 190 287 190 c 0
EndSplineSet
EndChar

StartChar: yen
Encoding: 100 165 102
Width: 580
GlyphClass: 2
Flags: W
LayerCount: 3
Fore
SplineSet
326 276 m 1,0,-1
 367 356 l 1,1,-1
 504 356 l 1,2,-1
 504 406 l 1,3,-1
 393 406 l 1,4,-1
 531 670 l 1,5,-1
 455 670 l 1,6,-1
 290 343 l 1,7,-1
 125 670 l 1,8,-1
 49 670 l 1,9,-1
 186 406 l 1,10,-1
 77 406 l 1,11,-1
 77 356 l 1,12,-1
 212 356 l 1,13,-1
 254 276 l 1,14,-1
 77 276 l 1,15,-1
 77 226 l 1,16,-1
 254 226 l 1,17,-1
 254 0 l 1,18,-1
 326 0 l 1,19,-1
 326 226 l 1,20,-1
 504 226 l 1,21,-1
 504 276 l 1,22,-1
 326 276 l 1,0,-1
EndSplineSet
Validated: 9
Layer: 2
SplineSet
326 276 m 1
 367 356 l 1
 504 356 l 1
 504 406 l 1
 393 406 l 1
 531 670 l 1
 455 670 l 1
 290 343 l 1
 125 670 l 1
 49 670 l 1
 186 406 l 1
 77 406 l 1
 77 356 l 1
 212 356 l 1
 254 276 l 1
 77 276 l 1
 77 226 l 1
 254 226 l 1
 254 0 l 1
 326 0 l 1
 326 226 l 1
 504 226 l 1
 504 276 l 1
 326 276 l 1
EndSplineSet
EndChar

StartChar: brokenbar
Encoding: 101 166 103
Width: 321
GlyphClass: 2
Flags: W
VStem: 120 81
LayerCount: 3
Fore
SplineSet
120 424 m 1,0,-1
 201 424 l 1,1,-1
 201 775 l 1,2,-1
 120 775 l 1,3,-1
 120 424 l 1,0,-1
120 -106 m 1,4,-1
 201 -106 l 1,5,-1
 201 245 l 1,6,-1
 120 245 l 1,7,-1
 120 -106 l 1,4,-1
EndSplineSet
Validated: 9
Layer: 2
SplineSet
120 424 m 1
 201 424 l 1
 201 775 l 1
 120 775 l 1
 120 424 l 1
120 -106 m 1
 201 -106 l 1
 201 245 l 1
 120 245 l 1
 120 -106 l 1
EndSplineSet
EndChar

StartChar: section
Encoding: 102 167 104
Width: 576
GlyphClass: 2
Flags: W
HStem: -242 59<187.953 393.37> 685 59<198.994 390.744>
VStem: 73 62<-131.375 -47> 83 70<187.573 355.706 474.79 638.412> 440 62<551 635.702> 442 70<-134.826 22.379 149.163 307.789>
LayerCount: 3
Fore
SplineSet
512 241 m 0,0,1
 512 317 512 317 471.5 357 c 128,-1,2
 431 397 431 397 338 416 c 2,3,-1
 246 435 l 2,4,5
 153 454 153 454 153 549 c 0,6,7
 153 617 153 617 184 651 c 128,-1,8
 215 685 215 685 293 685 c 0,9,10
 373 685 373 685 406.5 651 c 128,-1,11
 440 617 440 617 440 547 c 1,12,-1
 502 551 l 1,13,14
 502 646 502 646 453 695 c 128,-1,15
 404 744 404 744 291 744 c 128,-1,16
 178 744 178 744 130.5 695 c 128,-1,17
 83 646 83 646 83 549 c 0,18,19
 83 456 83 456 136 412 c 1,20,21
 83 366 83 366 83 261 c 0,22,23
 83 184 83 184 120.5 144 c 128,-1,24
 158 104 158 104 246 86 c 2,25,-1
 338 67 l 2,26,27
 442 46 442 46 442 -47 c 0,28,29
 442 -115 442 -115 409 -149 c 128,-1,30
 376 -183 376 -183 292 -183 c 0,31,32
 207 -183 207 -183 171 -148.5 c 128,-1,33
 135 -114 135 -114 135 -43 c 1,34,-1
 73 -47 l 1,35,36
 73 -143 73 -143 123.5 -192.5 c 128,-1,37
 174 -242 174 -242 292 -242 c 128,-1,38
 410 -242 410 -242 461 -191.5 c 128,-1,39
 512 -141 512 -141 512 -47 c 0,40,41
 512 45 512 45 454 90 c 1,42,43
 512 137 512 137 512 241 c 0,0,1
346 353 m 2,44,45
 439 334 439 334 439 239 c 0,46,47
 439 146 439 146 389 117 c 1,48,-1
 254 145 l 2,49,50
 199 157 199 157 176 185.5 c 128,-1,51
 153 214 153 214 153 261 c 0,52,53
 153 354 153 354 203 383 c 1,54,-1
 346 353 l 2,44,45
EndSplineSet
Validated: 9
Layer: 2
SplineSet
512 241 m 0
 512 344 461 391 338 416 c 2
 246 435 l 2
 177 449 153 490 153 549 c 0
 153 634 183 685 293 685 c 0
 403 685 440 637 440 547 c 1
 502 551 l 1
 502 672 448 744 291 744 c 0
 134 744 83 672 83 549 c 0
 83 488 99 443 136 412 c 1
 97 378 83 327 83 261 c 0
 83 158 129 110 246 86 c 2
 338 67 l 2
 412 52 442 13 442 -47 c 0
 442 -132 410 -183 292 -183 c 0
 174 -183 135 -133 135 -43 c 1
 73 -47 l 1
 73 -168 127 -242 292 -242 c 0
 458 -242 512 -164 512 -47 c 0
 512 14 494 59 454 90 c 1
 496 124 512 177 512 241 c 0
346 353 m 2
 414 339 439 299 439 239 c 0
 439 185 427 139 389 117 c 1
 254 145 l 2
 178 161 153 201 153 261 c 0
 153 315 165 361 203 383 c 1
 346 353 l 2
EndSplineSet
EndChar

StartChar: dieresis
Encoding: 103 168 105
Width: 308
GlyphClass: 2
Flags: W
HStem: 672 107<8.89258 84.7449 218.893 294.745>
VStem: 5 88<676.254 764.56> 215 88<676.254 764.56>
LayerCount: 3
Fore
SplineSet
48 672 m 0,0,1
 29 672 29 672 19 681 c 128,-1,2
 9 690 9 690 7 699.5 c 128,-1,3
 5 709 5 709 5 725 c 0,4,5
 5 742 5 742 7 751.5 c 128,-1,6
 9 761 9 761 19 770 c 128,-1,7
 29 779 29 779 48 779 c 0,8,9
 77 779 77 779 85 765 c 128,-1,10
 93 751 93 751 93 725 c 0,11,12
 93 709 93 709 91 699.5 c 128,-1,13
 89 690 89 690 78.5 681 c 128,-1,14
 68 672 68 672 48 672 c 0,0,1
258 672 m 0,15,16
 239 672 239 672 229 681 c 128,-1,17
 219 690 219 690 217 699.5 c 128,-1,18
 215 709 215 709 215 725 c 0,19,20
 215 742 215 742 217 751.5 c 128,-1,21
 219 761 219 761 229 770 c 128,-1,22
 239 779 239 779 258 779 c 0,23,24
 287 779 287 779 295 765 c 128,-1,25
 303 751 303 751 303 725 c 0,26,27
 303 709 303 709 301 699.5 c 128,-1,28
 299 690 299 690 288.5 681 c 128,-1,29
 278 672 278 672 258 672 c 0,15,16
EndSplineSet
Validated: 1
Layer: 2
SplineSet
48 672 m 0
 7 672 5 700 5 725 c 0
 5 751 7 779 48 779 c 0
 91 779 93 751 93 725 c 0
 93 700 91 672 48 672 c 0
258 672 m 0
 217 672 215 700 215 725 c 0
 215 751 217 779 258 779 c 0
 301 779 303 751 303 725 c 0
 303 700 301 672 258 672 c 0
EndSplineSet
EndChar

StartChar: copyright
Encoding: 104 169 106
Width: 727
GlyphClass: 2
Flags: W
HStem: 267 43<227.239 498.917> 352 43<291.657 424.299> 727 42<293.991 424.273> 811 43<227.57 498.917>
VStem: 70 48<420.659 699.505> 207 52<429.776 689.138> 447 43<655.512 705.75> 609 48<420.992 699.505>
LayerCount: 3
Fore
SplineSet
70 560 m 256,0,1
 70 402 70 402 137.5 334.5 c 128,-1,2
 205 267 205 267 363 267 c 128,-1,3
 521 267 521 267 589 334.5 c 128,-1,4
 657 402 657 402 657 560 c 128,-1,5
 657 718 657 718 589 786 c 128,-1,6
 521 854 521 854 363 854 c 128,-1,7
 205 854 205 854 137.5 786 c 128,-1,8
 70 718 70 718 70 560 c 256,0,1
118 560 m 256,9,10
 118 697 118 697 172.5 754 c 128,-1,11
 227 811 227 811 363 811 c 0,12,13
 500 811 500 811 554.5 754 c 128,-1,14
 609 697 609 697 609 560 c 0,15,16
 609 424 609 424 554.5 367 c 128,-1,17
 500 310 500 310 363 310 c 128,-1,18
 226 310 226 310 172 366.5 c 128,-1,19
 118 423 118 423 118 560 c 256,9,10
490 656 m 1,20,21
 484 713 484 713 455 741 c 128,-1,22
 426 769 426 769 362 769 c 0,23,24
 271 769 271 769 239 719 c 128,-1,25
 207 669 207 669 207 561 c 0,26,27
 207 451 207 451 237.5 401.5 c 128,-1,28
 268 352 268 352 363 352 c 0,29,30
 431 352 431 352 459 385 c 128,-1,31
 487 418 487 418 491 482 c 1,32,-1
 449 484 l 1,33,34
 446 395 446 395 363 395 c 0,35,36
 298 395 298 395 278.5 433 c 128,-1,37
 259 471 259 471 259 561 c 0,38,39
 259 648 259 648 279.5 687.5 c 128,-1,40
 300 727 300 727 362 727 c 0,41,42
 404 727 404 727 423.5 709 c 128,-1,43
 443 691 443 691 447 653 c 1,44,-1
 490 656 l 1,20,21
EndSplineSet
Validated: 9
Layer: 2
SplineSet
70 560 m 0
 70 349 152 267 363 267 c 0
 574 267 657 349 657 560 c 0
 657 771 574 854 363 854 c 0
 152 854 70 771 70 560 c 0
118 560 m 0
 118 740 179 811 363 811 c 0
 547 811 609 740 609 560 c 0
 609 380 547 310 363 310 c 0
 179 310 118 380 118 560 c 0
490 656 m 1
 483 728 450 769 362 769 c 0
 233 769 207 693 207 561 c 0
 207 430 227 352 363 352 c 0
 460 352 486 405 491 482 c 1
 449 484 l 1
 447 433 426 395 363 395 c 0
 269 395 259 455 259 561 c 0
 259 667 274 727 362 727 c 0
 420 727 442 702 447 653 c 1
 490 656 l 1
EndSplineSet
EndChar

StartChar: ordfeminine
Encoding: 105 170 107
Width: 427
GlyphClass: 2
Flags: W
HStem: 340 50<116.318 247.397> 709 51<129.586 267.943>
VStem: 40 63<403.515 512.587> 283 64<419.21 436 645 693.984>
LayerCount: 3
Fore
SplineSet
305 350 m 1,0,-1
 389 350 l 1,1,-1
 389 393 l 1,2,-1
 347 393 l 1,3,-1
 347 648 l 2,4,5
 347 760 347 760 205 760 c 0,6,7
 124 760 124 760 93 728.5 c 128,-1,8
 62 697 62 697 57 634 c 1,9,-1
 109 631 l 1,10,11
 111 671 111 671 130.5 690 c 128,-1,12
 150 709 150 709 203 709 c 0,13,14
 283 709 283 709 283 645 c 2,15,-1
 283 581 l 1,16,-1
 164 573 l 2,17,18
 91 568 91 568 65.5 540.5 c 128,-1,19
 40 513 40 513 40 452 c 0,20,21
 40 397 40 397 67 368.5 c 128,-1,22
 94 340 94 340 158 340 c 0,23,24
 231 340 231 340 293 392 c 1,25,-1
 305 350 l 1,0,-1
172 390 m 0,26,27
 134 390 134 390 118.5 405.5 c 128,-1,28
 103 421 103 421 103 453 c 0,29,30
 103 495 103 495 118 510.5 c 128,-1,31
 133 526 133 526 174 528 c 2,32,-1
 283 535 l 1,33,-1
 283 436 l 1,34,35
 234 390 234 390 172 390 c 0,26,27
47 256 m 1,36,-1
 389 256 l 1,37,-1
 389 299 l 1,38,-1
 47 299 l 1,39,-1
 47 256 l 1,36,-1
EndSplineSet
Validated: 9
Layer: 2
SplineSet
305 350 m 1
 389 350 l 1
 389 393 l 1
 347 393 l 1
 347 648 l 2
 347 735 282 760 205 760 c 0
 90 760 63 710 57 634 c 1
 109 631 l 1
 112 680 128 709 203 709 c 0
 247 709 283 693 283 645 c 2
 283 581 l 1
 164 573 l 2
 63 566 40 529 40 452 c 0
 40 383 69 340 158 340 c 0
 217 340 262 366 293 392 c 1
 305 350 l 1
172 390 m 0
 119 390 103 412 103 453 c 0
 103 509 120 525 174 528 c 2
 283 535 l 1
 283 436 l 1
 251 406 211 390 172 390 c 0
47 256 m 1
 389 256 l 1
 389 299 l 1
 47 299 l 1
 47 256 l 1
EndSplineSet
EndChar

StartChar: guillemotleft
Encoding: 106 171 108
Width: 520
GlyphClass: 2
Flags: W
LayerCount: 3
Fore
SplineSet
121 315 m 1,0,-1
 245 158 l 1,1,-1
 198 112 l 1,2,-1
 30 299 l 1,3,-1
 30 331 l 1,4,-1
 198 518 l 1,5,-1
 245 472 l 1,6,-1
 121 315 l 1,0,-1
336 315 m 1,7,-1
 460 158 l 1,8,-1
 413 112 l 1,9,-1
 245 299 l 1,10,-1
 245 331 l 1,11,-1
 413 518 l 1,12,-1
 460 472 l 1,13,-1
 336 315 l 1,7,-1
EndSplineSet
Validated: 1
Layer: 2
SplineSet
121 315 m 1
 245 158 l 1
 198 112 l 1
 30 299 l 1
 30 331 l 1
 198 518 l 1
 245 472 l 1
 121 315 l 1
336 315 m 1
 460 158 l 1
 413 112 l 1
 245 299 l 1
 245 331 l 1
 413 518 l 1
 460 472 l 1
 336 315 l 1
EndSplineSet
EndChar

StartChar: logicalnot
Encoding: 107 172 109
Width: 580
GlyphClass: 2
Flags: W
HStem: 150 198
LayerCount: 3
Fore
SplineSet
94 288 m 1,0,-1
 430 288 l 1,1,-1
 430 150 l 1,2,-1
 486 150 l 1,3,-1
 486 348 l 1,4,-1
 94 348 l 1,5,-1
 94 288 l 1,0,-1
EndSplineSet
Validated: 9
Layer: 2
SplineSet
94 288 m 1
 430 288 l 1
 430 150 l 1
 486 150 l 1
 486 348 l 1
 94 348 l 1
 94 288 l 1
EndSplineSet
EndChar

StartChar: registered
Encoding: 108 174 110
Width: 727
GlyphClass: 2
Flags: W
HStem: 267 43<227.239 498.917> 525 41<344 388.562> 720 42<368 426.555> 811 43<227.57 498.917>
VStem: 70 48<420.659 699.505> 441 52<581.913 703.538> 609 48<420.992 699.505>
LayerCount: 3
Fore
SplineSet
70 560 m 256,0,1
 70 402 70 402 137.5 334.5 c 128,-1,2
 205 267 205 267 363 267 c 128,-1,3
 521 267 521 267 589 334.5 c 128,-1,4
 657 402 657 402 657 560 c 128,-1,5
 657 718 657 718 589 786 c 128,-1,6
 521 854 521 854 363 854 c 128,-1,7
 205 854 205 854 137.5 786 c 128,-1,8
 70 718 70 718 70 560 c 256,0,1
118 560 m 256,9,10
 118 697 118 697 172.5 754 c 128,-1,11
 227 811 227 811 363 811 c 0,12,13
 500 811 500 811 554.5 754 c 128,-1,14
 609 697 609 697 609 560 c 0,15,16
 609 424 609 424 554.5 367 c 128,-1,17
 500 310 500 310 363 310 c 128,-1,18
 226 310 226 310 172 366.5 c 128,-1,19
 118 423 118 423 118 560 c 256,9,10
246 762 m 1,20,-1
 246 360 l 1,21,-1
 298 360 l 1,22,-1
 298 525 l 1,23,-1
 344 525 l 2,24,25
 383 525 383 525 398 490 c 2,26,-1
 454 360 l 1,27,-1
 510 360 l 1,28,-1
 450 497 l 2,29,30
 440 519 440 519 426 532 c 1,31,32
 466 544 466 544 479.5 571.5 c 128,-1,33
 493 599 493 599 493 643 c 0,34,35
 493 699 493 699 469 730.5 c 128,-1,36
 445 762 445 762 369 762 c 2,37,-1
 246 762 l 1,20,-1
298 566 m 1,38,-1
 298 720 l 1,39,-1
 368 720 l 2,40,41
 413 720 413 720 427 700.5 c 128,-1,42
 441 681 441 681 441 643 c 128,-1,43
 441 605 441 605 427 585.5 c 128,-1,44
 413 566 413 566 368 566 c 2,45,-1
 298 566 l 1,38,-1
EndSplineSet
Validated: 9
Layer: 2
SplineSet
70 560 m 0
 70 349 152 267 363 267 c 0
 574 267 657 349 657 560 c 0
 657 771 574 854 363 854 c 0
 152 854 70 771 70 560 c 0
118 560 m 0
 118 740 179 811 363 811 c 0
 547 811 609 740 609 560 c 0
 609 380 547 310 363 310 c 0
 179 310 118 380 118 560 c 0
246 762 m 1
 246 360 l 1
 298 360 l 1
 298 525 l 1
 344 525 l 2
 371 525 387 516 398 490 c 2
 454 360 l 1
 510 360 l 1
 450 497 l 2
 443 513 435 524 426 532 c 1
 485 549 493 594 493 643 c 0
 493 704 481 762 369 762 c 2
 246 762 l 1
298 566 m 1
 298 720 l 1
 368 720 l 2
 433 720 441 686 441 643 c 0
 441 600 433 566 368 566 c 2
 298 566 l 1
EndSplineSet
EndChar

StartChar: macron
Encoding: 109 175 111
Width: 354
GlyphClass: 2
Flags: W
HStem: 694 65
VStem: 50 254
LayerCount: 3
Fore
SplineSet
50 694 m 1,0,-1
 304 694 l 1,1,-1
 304 759 l 1,2,-1
 50 759 l 1,3,-1
 50 694 l 1,0,-1
EndSplineSet
Validated: 9
Layer: 2
SplineSet
50 694 m 1
 304 694 l 1
 304 759 l 1
 50 759 l 1
 50 694 l 1
EndSplineSet
EndChar

StartChar: degree
Encoding: 110 176 112
Width: 425
GlyphClass: 2
Flags: W
HStem: 340 51<139.259 284.294> 659 51<139.259 284.294>
VStem: 48 63<420.019 474 576 629.981> 313 64<420.019 474 576 629.981>
LayerCount: 3
Fore
SplineSet
212 391 m 256,0,1
 178 391 178 391 156 401.5 c 128,-1,2
 134 412 134 412 125 433.5 c 128,-1,3
 116 455 116 455 113.5 474 c 128,-1,4
 111 493 111 493 111 525 c 128,-1,5
 111 557 111 557 113.5 576 c 128,-1,6
 116 595 116 595 125 616.5 c 128,-1,7
 134 638 134 638 156 648.5 c 128,-1,8
 178 659 178 659 212 659 c 128,-1,9
 246 659 246 659 268 648.5 c 128,-1,10
 290 638 290 638 299 616.5 c 128,-1,11
 308 595 308 595 310.5 576 c 128,-1,12
 313 557 313 557 313 525 c 128,-1,13
 313 493 313 493 310.5 474 c 128,-1,14
 308 455 308 455 299 433.5 c 128,-1,15
 290 412 290 412 268 401.5 c 128,-1,16
 246 391 246 391 212 391 c 256,0,1
212 340 m 256,17,18
 265 340 265 340 300 354.5 c 128,-1,19
 335 369 335 369 351 398 c 128,-1,20
 367 427 367 427 372 455.5 c 128,-1,21
 377 484 377 484 377 525 c 0,22,23
 377 567 377 567 372 595.5 c 128,-1,24
 367 624 367 624 351 652.5 c 128,-1,25
 335 681 335 681 300 695.5 c 128,-1,26
 265 710 265 710 212 710 c 128,-1,27
 159 710 159 710 124.5 695.5 c 128,-1,28
 90 681 90 681 74 652.5 c 128,-1,29
 58 624 58 624 53 595.5 c 128,-1,30
 48 567 48 567 48 525 c 0,31,32
 48 484 48 484 53 455.5 c 128,-1,33
 58 427 58 427 74 398 c 128,-1,34
 90 369 90 369 124.5 354.5 c 128,-1,35
 159 340 159 340 212 340 c 256,17,18
EndSplineSet
Validated: 9
Layer: 2
SplineSet
212 391 m 0
 116 391 111 456 111 525 c 0
 111 594 116 659 212 659 c 0
 308 659 313 594 313 525 c 0
 313 456 308 391 212 391 c 0
212 340 m 0
 361 340 377 430 377 525 c 0
 377 621 361 710 212 710 c 0
 64 710 48 621 48 525 c 0
 48 430 64 340 212 340 c 0
EndSplineSet
EndChar

StartChar: plusminus
Encoding: 111 177 113
Width: 580
GlyphClass: 2
Flags: W
LayerCount: 3
Fore
SplineSet
94 338 m 1,0,-1
 260 338 l 1,1,-1
 260 172 l 1,2,-1
 320 172 l 1,3,-1
 320 338 l 1,4,-1
 486 338 l 1,5,-1
 486 398 l 1,6,-1
 320 398 l 1,7,-1
 320 564 l 1,8,-1
 260 564 l 1,9,-1
 260 398 l 1,10,-1
 94 398 l 1,11,-1
 94 338 l 1,0,-1
94 0 m 1,12,-1
 486 0 l 1,13,-1
 486 60 l 1,14,-1
 94 60 l 1,15,-1
 94 0 l 1,12,-1
EndSplineSet
Validated: 9
Layer: 2
SplineSet
94 338 m 1
 260 338 l 1
 260 172 l 1
 320 172 l 1
 320 338 l 1
 486 338 l 1
 486 398 l 1
 320 398 l 1
 320 564 l 1
 260 564 l 1
 260 398 l 1
 94 398 l 1
 94 338 l 1
94 0 m 1
 486 0 l 1
 486 60 l 1
 94 60 l 1
 94 0 l 1
EndSplineSet
EndChar

StartChar: twosuperior
Encoding: 112 178 114
Width: 414
GlyphClass: 2
Flags: W
HStem: 714 45<143.623 267.08>
VStem: 80 48<637 694.401> 281 54<591.987 699.697>
LayerCount: 3
Fore
SplineSet
148 390 m 1,0,-1
 267 519 l 2,1,2
 335 593 335 593 335 649 c 0,3,4
 335 759 335 759 208 759 c 0,5,6
 138 759 138 759 109 728 c 128,-1,7
 80 697 80 697 80 637 c 1,8,-1
 128 637 l 1,9,10
 128 676 128 676 144.5 695 c 128,-1,11
 161 714 161 714 206 714 c 0,12,13
 281 714 281 714 281 649 c 0,14,15
 281 632 281 632 272.5 614.5 c 128,-1,16
 264 597 264 597 255.5 586.5 c 128,-1,17
 247 576 247 576 227 554 c 2,18,-1
 73 387 l 1,19,-1
 73 345 l 1,20,-1
 340 345 l 1,21,-1
 340 390 l 1,22,-1
 148 390 l 1,0,-1
EndSplineSet
Validated: 9
Layer: 2
SplineSet
148 390 m 1
 267 519 l 2
 303 558 335 599 335 649 c 0
 335 714 303 759 208 759 c 0
 111 759 80 713 80 637 c 1
 128 637 l 1
 128 684 142 714 206 714 c 0
 263 714 281 687 281 649 c 0
 281 613 257 587 227 554 c 2
 73 387 l 1
 73 345 l 1
 340 345 l 1
 340 390 l 1
 148 390 l 1
EndSplineSet
EndChar

StartChar: threesuperior
Encoding: 113 179 115
Width: 414
GlyphClass: 2
Flags: W
HStem: 337 44<138.874 275.012> 525 42<210 266.402> 714 45<145.377 268.094>
VStem: 72 48<400.552 458> 80 48<637 696.682> 292 55<398.23 506.999 591.124 691.995>
LayerCount: 3
Fore
SplineSet
347 448 m 0,0,1
 347 522 347 522 279 548 c 1,2,3
 341 577 341 577 341 640 c 0,4,5
 341 759 341 759 208 759 c 0,6,7
 139 759 139 759 109.5 728 c 128,-1,8
 80 697 80 697 80 637 c 1,9,-1
 128 637 l 1,10,11
 128 714 128 714 205 714 c 0,12,13
 249 714 249 714 267.5 695 c 128,-1,14
 286 676 286 676 286 640 c 0,15,16
 286 607 286 607 267 587 c 128,-1,17
 248 567 248 567 211 567 c 2,18,-1
 150 567 l 1,19,-1
 150 525 l 1,20,-1
 210 525 l 2,21,22
 292 525 292 525 292 449 c 0,23,24
 292 381 292 381 205 381 c 0,25,26
 120 381 120 381 120 458 c 1,27,-1
 72 458 l 1,28,29
 72 397 72 397 102.5 367 c 128,-1,30
 133 337 133 337 207 337 c 0,31,32
 277 337 277 337 312 366 c 128,-1,33
 347 395 347 395 347 448 c 0,0,1
EndSplineSet
Validated: 9
Layer: 2
SplineSet
347 448 m 0
 347 500 319 533 279 548 c 1
 315 565 341 596 341 640 c 0
 341 711 307 759 208 759 c 0
 113 759 80 714 80 637 c 1
 128 637 l 1
 128 685 148 714 205 714 c 0
 267 714 286 685 286 640 c 0
 286 598 262 567 211 567 c 2
 150 567 l 1
 150 525 l 1
 210 525 l 2
 266 525 292 496 292 449 c 0
 292 406 268 381 205 381 c 0
 142 381 120 410 120 458 c 1
 72 458 l 1
 72 380 105 337 207 337 c 0
 302 337 347 379 347 448 c 0
EndSplineSet
EndChar

StartChar: acute
Encoding: 114 180 116
Width: 314
GlyphClass: 2
Flags: W
LayerCount: 3
Fore
SplineSet
92 624 m 1,0,-1
 264 774 l 1,1,-1
 211 827 l 1,2,-1
 50 666 l 1,3,-1
 92 624 l 1,0,-1
EndSplineSet
Validated: 9
Layer: 2
SplineSet
92 624 m 1
 264 774 l 1
 211 827 l 1
 50 666 l 1
 92 624 l 1
EndSplineSet
EndChar

StartChar: mu
Encoding: 115 181 117
Width: 641
GlyphClass: 2
Flags: W
HStem: -227 21G<120 190> -14 59<297.623 474.262> 552 20G<120 190 506 576>
VStem: 120 70<-227 70 114.01 572> 506 70<78.5811 572>
LayerCount: 3
Fore
SplineSet
120 -227 m 1,0,-1
 120 572 l 1,1,-1
 190 572 l 1,2,-1
 190 132 l 1,3,4
 285 45 285 45 392 45 c 0,5,6
 455 45 455 45 480.5 72.5 c 128,-1,7
 506 100 506 100 506 164 c 2,8,-1
 506 572 l 1,9,-1
 576 572 l 1,10,-1
 576 163 l 2,11,12
 576 70 576 70 538.5 28 c 128,-1,13
 501 -14 501 -14 407 -14 c 0,14,15
 297 -14 297 -14 190 70 c 1,16,-1
 190 -227 l 1,17,-1
 120 -227 l 1,0,-1
EndSplineSet
Validated: 1
Layer: 2
SplineSet
120 -227 m 1
 120 572 l 1
 190 572 l 1
 190 132 l 1
 237 89 305 45 392 45 c 0
 477 45 506 79 506 164 c 2
 506 572 l 1
 576 572 l 1
 576 163 l 2
 576 44 536 -14 407 -14 c 0
 321 -14 242 29 190 70 c 1
 190 -227 l 1
 120 -227 l 1
EndSplineSet
EndChar

StartChar: paragraph
Encoding: 116 182 118
Width: 489
GlyphClass: 2
Flags: W
HStem: 0 50<207 287 359 419> 620 50<359 419>
VStem: 30 329<360.902 594.098> 287 72<50 285>
LayerCount: 3
Fore
SplineSet
419 0 m 1,0,-1
 207 0 l 1,1,-1
 207 50 l 1,2,-1
 287 50 l 1,3,-1
 287 285 l 1,4,-1
 225 285 l 2,5,6
 162 285 162 285 121 300 c 128,-1,7
 80 315 80 315 61 345 c 128,-1,8
 42 375 42 375 36 404.5 c 128,-1,9
 30 434 30 434 30 477 c 0,10,11
 30 521 30 521 36 550.5 c 128,-1,12
 42 580 42 580 61 610 c 128,-1,13
 80 640 80 640 121 655 c 128,-1,14
 162 670 162 670 225 670 c 2,15,-1
 359 670 l 1,16,-1
 419 670 l 1,17,-1
 419 620 l 1,18,-1
 359 620 l 1,19,-1
 359 50 l 1,20,-1
 419 50 l 1,21,-1
 419 0 l 1,0,-1
EndSplineSet
Validated: 1
Layer: 2
SplineSet
419 0 m 1
 207 0 l 1
 207 50 l 1
 287 50 l 1
 287 285 l 1
 225 285 l 2
 49 285 30 378 30 477 c 0
 30 577 49 670 225 670 c 2
 359 670 l 1
 419 670 l 1
 419 620 l 1
 359 620 l 1
 359 50 l 1
 419 50 l 1
 419 0 l 1
EndSplineSet
EndChar

StartChar: periodcentered
Encoding: 117 183 119
Width: 226
GlyphClass: 2
Flags: W
HStem: 257 117<74.2861 151.713>
VStem: 65 96<272.987 357.497>
LayerCount: 3
Fore
SplineSet
112 257 m 0,0,1
 143 257 143 257 152 272.5 c 128,-1,2
 161 288 161 288 161 315 c 0,3,4
 161 328 161 328 159.5 336.5 c 128,-1,5
 158 345 158 345 153.5 354.5 c 128,-1,6
 149 364 149 364 138.5 369 c 128,-1,7
 128 374 128 374 112 374 c 0,8,9
 83 374 83 374 74 358 c 128,-1,10
 65 342 65 342 65 315 c 0,11,12
 65 298 65 298 67 287.5 c 128,-1,13
 69 277 69 277 80.5 267 c 128,-1,14
 92 257 92 257 112 257 c 0,0,1
EndSplineSet
Validated: 9
Layer: 2
SplineSet
112 257 m 0
 158 257 161 288 161 315 c 0
 161 343 158 374 112 374 c 0
 68 374 65 343 65 315 c 0
 65 288 68 257 112 257 c 0
EndSplineSet
EndChar

StartChar: cedilla
Encoding: 118 184 120
Width: 299
GlyphClass: 2
Flags: W
HStem: -241 50<115.472 188.518>
VStem: 50 60<-180.169 -146> 194 55<-184.144 -107.721>
LayerCount: 3
Fore
SplineSet
50 -146 m 1,0,1
 50 -193 50 -193 71.5 -217 c 128,-1,2
 93 -241 93 -241 149 -241 c 0,3,4
 206 -241 206 -241 227.5 -217 c 128,-1,5
 249 -193 249 -193 249 -145 c 0,6,7
 249 -93 249 -93 224 -74.5 c 128,-1,8
 199 -56 199 -56 147 -55 c 1,9,-1
 157 0 l 1,10,-1
 108 0 l 1,11,-1
 93 -86 l 1,12,-1
 147 -96 l 2,13,14
 174 -101 174 -101 184 -111.5 c 128,-1,15
 194 -122 194 -122 194 -146 c 128,-1,16
 194 -170 194 -170 186.5 -180.5 c 128,-1,17
 179 -191 179 -191 152 -191 c 128,-1,18
 125 -191 125 -191 117.5 -180.5 c 128,-1,19
 110 -170 110 -170 110 -146 c 1,20,-1
 50 -146 l 1,0,1
EndSplineSet
Validated: 9
Layer: 2
SplineSet
50 -146 m 1
 50 -204 70 -241 149 -241 c 0
 229 -241 249 -204 249 -145 c 0
 249 -71 209 -56 147 -55 c 1
 157 0 l 1
 108 0 l 1
 93 -86 l 1
 147 -96 l 2
 183 -103 194 -114 194 -146 c 0
 194 -173 191 -191 152 -191 c 0
 113 -191 110 -173 110 -146 c 1
 50 -146 l 1
EndSplineSet
EndChar

StartChar: onesuperior
Encoding: 119 185 121
Width: 413
GlyphClass: 2
Flags: W
HStem: 686 34<108 180.445>
VStem: 107 222
LayerCount: 3
Fore
SplineSet
108 686 m 1,0,-1
 190 686 l 1,1,-1
 190 390 l 1,2,-1
 107 390 l 1,3,-1
 107 345 l 1,4,-1
 329 345 l 1,5,-1
 329 390 l 1,6,-1
 246 390 l 1,7,-1
 246 750 l 1,8,-1
 204 750 l 1,9,10
 171 726 171 726 108 720 c 1,11,-1
 108 686 l 1,0,-1
EndSplineSet
Validated: 9
Layer: 2
SplineSet
108 686 m 1
 190 686 l 1
 190 390 l 1
 107 390 l 1
 107 345 l 1
 329 345 l 1
 329 390 l 1
 246 390 l 1
 246 750 l 1
 204 750 l 1
 183 735 149 724 108 720 c 1
 108 686 l 1
EndSplineSet
EndChar

StartChar: ordmasculine
Encoding: 120 186 122
Width: 425
GlyphClass: 2
Flags: W
HStem: 340 51<137.813 285.909> 709 51<138.349 285.909>
VStem: 38 63<429.096 501 599 671.139> 323 64<428.859 501.5 598.5 671.205>
LayerCount: 3
Fore
SplineSet
212 391 m 0,0,1
 182 391 182 391 160.5 400 c 128,-1,2
 139 409 139 409 127.5 422.5 c 128,-1,3
 116 436 116 436 110 459 c 128,-1,4
 104 482 104 482 102.5 501 c 128,-1,5
 101 520 101 520 101 550 c 128,-1,6
 101 580 101 580 102.5 599 c 128,-1,7
 104 618 104 618 110 641 c 128,-1,8
 116 664 116 664 127.5 677.5 c 128,-1,9
 139 691 139 691 160.5 700 c 128,-1,10
 182 709 182 709 212 709 c 0,11,12
 243 709 243 709 264.5 699.5 c 128,-1,13
 286 690 286 690 297 677 c 128,-1,14
 308 664 308 664 314 640.5 c 128,-1,15
 320 617 320 617 321.5 598.5 c 128,-1,16
 323 580 323 580 323 550 c 128,-1,17
 323 520 323 520 321.5 501.5 c 128,-1,18
 320 483 320 483 314 459.5 c 128,-1,19
 308 436 308 436 297 423 c 128,-1,20
 286 410 286 410 264.5 400.5 c 128,-1,21
 243 391 243 391 212 391 c 0,0,1
212 340 m 0,22,23
 269 340 269 340 305.5 356.5 c 128,-1,24
 342 373 342 373 359 405.5 c 128,-1,25
 376 438 376 438 381.5 470.5 c 128,-1,26
 387 503 387 503 387 550 c 0,27,28
 387 598 387 598 381.5 630 c 128,-1,29
 376 662 376 662 359 694.5 c 128,-1,30
 342 727 342 727 305.5 743.5 c 128,-1,31
 269 760 269 760 212 760 c 0,32,33
 156 760 156 760 119 743.5 c 128,-1,34
 82 727 82 727 65.5 694.5 c 128,-1,35
 49 662 49 662 43.5 629.5 c 128,-1,36
 38 597 38 597 38 550 c 0,37,38
 38 513 38 513 41 486 c 128,-1,39
 44 459 44 459 54.5 430 c 128,-1,40
 65 401 65 401 83 382.5 c 128,-1,41
 101 364 101 364 133.5 352 c 128,-1,42
 166 340 166 340 212 340 c 0,22,23
48 256 m 1,43,-1
 376 256 l 1,44,-1
 376 299 l 1,45,-1
 48 299 l 1,46,-1
 48 256 l 1,43,-1
EndSplineSet
Validated: 9
Layer: 2
SplineSet
212 391 m 0
 107 391 101 468 101 550 c 0
 101 632 107 709 212 709 c 0
 318 709 323 632 323 550 c 0
 323 468 318 391 212 391 c 0
212 340 m 0
 370 340 387 442 387 550 c 0
 387 659 370 760 212 760 c 0
 55 760 38 659 38 550 c 0
 38 442 55 340 212 340 c 0
48 256 m 1
 376 256 l 1
 376 299 l 1
 48 299 l 1
 48 256 l 1
EndSplineSet
EndChar

StartChar: guillemotright
Encoding: 121 187 123
Width: 520
GlyphClass: 2
Flags: W
LayerCount: 3
Fore
SplineSet
369 315 m 1,0,-1
 245 472 l 1,1,-1
 292 518 l 1,2,-1
 460 331 l 1,3,-1
 460 299 l 1,4,-1
 292 112 l 1,5,-1
 245 158 l 1,6,-1
 369 315 l 1,0,-1
154 315 m 1,7,-1
 30 472 l 1,8,-1
 77 518 l 1,9,-1
 245 331 l 1,10,-1
 245 299 l 1,11,-1
 77 112 l 1,12,-1
 30 158 l 1,13,-1
 154 315 l 1,7,-1
EndSplineSet
Validated: 1
Layer: 2
SplineSet
369 315 m 1
 245 472 l 1
 292 518 l 1
 460 331 l 1
 460 299 l 1
 292 112 l 1
 245 158 l 1
 369 315 l 1
154 315 m 1
 30 472 l 1
 77 518 l 1
 245 331 l 1
 245 299 l 1
 77 112 l 1
 30 158 l 1
 154 315 l 1
EndSplineSet
EndChar

StartChar: onequarter
Encoding: 122 188 124
Width: 982
GlyphClass: 2
Flags: W
HStem: 611 34<116 188.445>
LayerCount: 3
Fore
SplineSet
859 0 m 1,0,-1
 859 85 l 1,1,-1
 907 85 l 1,2,-1
 907 130 l 1,3,-1
 859 130 l 1,4,-1
 859 405 l 1,5,-1
 774 405 l 1,6,-1
 605 128 l 1,7,-1
 605 85 l 1,8,-1
 805 85 l 1,9,-1
 805 0 l 1,10,-1
 859 0 l 1,0,-1
368 -66 m 1,11,-1
 420 -66 l 1,12,-1
 635 735 l 1,13,-1
 582 735 l 1,14,-1
 368 -66 l 1,11,-1
116 611 m 1,15,-1
 198 611 l 1,16,-1
 198 315 l 1,17,-1
 115 315 l 1,18,-1
 115 270 l 1,19,-1
 337 270 l 1,20,-1
 337 315 l 1,21,-1
 254 315 l 1,22,-1
 254 675 l 1,23,-1
 212 675 l 1,24,25
 179 651 179 651 116 645 c 1,26,-1
 116 611 l 1,15,-1
667 130 m 1,27,-1
 805 357 l 1,28,-1
 805 130 l 1,29,-1
 667 130 l 1,27,-1
EndSplineSet
Validated: 9
Layer: 2
SplineSet
859 0 m 1
 859 85 l 1
 907 85 l 1
 907 130 l 1
 859 130 l 1
 859 405 l 1
 774 405 l 1
 605 128 l 1
 605 85 l 1
 805 85 l 1
 805 0 l 1
 859 0 l 1
368 -66 m 1
 420 -66 l 1
 635 735 l 1
 582 735 l 1
 368 -66 l 1
116 611 m 1
 198 611 l 1
 198 315 l 1
 115 315 l 1
 115 270 l 1
 337 270 l 1
 337 315 l 1
 254 315 l 1
 254 675 l 1
 212 675 l 1
 191 660 157 649 116 645 c 1
 116 611 l 1
667 130 m 1
 805 357 l 1
 805 130 l 1
 667 130 l 1
EndSplineSet
EndChar

StartChar: onehalf
Encoding: 123 189 125
Width: 982
GlyphClass: 2
Flags: W
HStem: 369 45<702.623 826.08> 611 34<116 188.445>
VStem: 639 48<292 349.401> 840 54<246.987 354.697>
LayerCount: 3
Fore
SplineSet
707 45 m 1,0,-1
 826 174 l 2,1,2
 894 248 894 248 894 304 c 0,3,4
 894 414 894 414 767 414 c 0,5,6
 697 414 697 414 668 383 c 128,-1,7
 639 352 639 352 639 292 c 1,8,-1
 687 292 l 1,9,10
 687 331 687 331 703.5 350 c 128,-1,11
 720 369 720 369 765 369 c 0,12,13
 840 369 840 369 840 304 c 0,14,15
 840 287 840 287 831.5 269.5 c 128,-1,16
 823 252 823 252 814.5 241.5 c 128,-1,17
 806 231 806 231 786 209 c 2,18,-1
 632 42 l 1,19,-1
 632 0 l 1,20,-1
 899 0 l 1,21,-1
 899 45 l 1,22,-1
 707 45 l 1,0,-1
348 -66 m 1,23,-1
 400 -66 l 1,24,-1
 615 735 l 1,25,-1
 562 735 l 1,26,-1
 348 -66 l 1,23,-1
116 611 m 1,27,-1
 198 611 l 1,28,-1
 198 315 l 1,29,-1
 115 315 l 1,30,-1
 115 270 l 1,31,-1
 337 270 l 1,32,-1
 337 315 l 1,33,-1
 254 315 l 1,34,-1
 254 675 l 1,35,-1
 212 675 l 1,36,37
 179 651 179 651 116 645 c 1,38,-1
 116 611 l 1,27,-1
EndSplineSet
Validated: 9
Layer: 2
SplineSet
707 45 m 1
 826 174 l 2
 862 213 894 254 894 304 c 0
 894 369 862 414 767 414 c 0
 670 414 639 368 639 292 c 1
 687 292 l 1
 687 339 701 369 765 369 c 0
 822 369 840 342 840 304 c 0
 840 268 816 242 786 209 c 2
 632 42 l 1
 632 0 l 1
 899 0 l 1
 899 45 l 1
 707 45 l 1
348 -66 m 1
 400 -66 l 1
 615 735 l 1
 562 735 l 1
 348 -66 l 1
116 611 m 1
 198 611 l 1
 198 315 l 1
 115 315 l 1
 115 270 l 1
 337 270 l 1
 337 315 l 1
 254 315 l 1
 254 675 l 1
 212 675 l 1
 191 660 157 649 116 645 c 1
 116 611 l 1
EndSplineSet
EndChar

StartChar: threequarters
Encoding: 124 190 126
Width: 982
GlyphClass: 2
Flags: W
HStem: 262 44<146.874 283.012> 450 42<218 274.402> 639 45<153.377 276.094>
VStem: 80 48<325.552 383> 88 48<562 621.682> 300 55<323.23 432.248 516.124 616.995>
LayerCount: 3
Fore
SplineSet
859 0 m 1,0,-1
 859 85 l 1,1,-1
 907 85 l 1,2,-1
 907 130 l 1,3,-1
 859 130 l 1,4,-1
 859 405 l 1,5,-1
 774 405 l 1,6,-1
 605 128 l 1,7,-1
 605 85 l 1,8,-1
 805 85 l 1,9,-1
 805 0 l 1,10,-1
 859 0 l 1,0,-1
355 373 m 0,11,12
 355 448 355 448 287 473 c 1,13,14
 349 502 349 502 349 565 c 0,15,16
 349 684 349 684 216 684 c 0,17,18
 147 684 147 684 117.5 653 c 128,-1,19
 88 622 88 622 88 562 c 1,20,-1
 136 562 l 1,21,22
 136 639 136 639 213 639 c 0,23,24
 257 639 257 639 275.5 620 c 128,-1,25
 294 601 294 601 294 565 c 0,26,27
 294 532 294 532 275 512 c 128,-1,28
 256 492 256 492 219 492 c 2,29,-1
 158 492 l 1,30,-1
 158 450 l 1,31,-1
 218 450 l 2,32,33
 300 450 300 450 300 374 c 0,34,35
 300 306 300 306 213 306 c 0,36,37
 128 306 128 306 128 383 c 1,38,-1
 80 383 l 1,39,40
 80 322 80 322 110.5 292 c 128,-1,41
 141 262 141 262 215 262 c 0,42,43
 285 262 285 262 320 291 c 128,-1,44
 355 320 355 320 355 373 c 0,11,12
373 -66 m 1,45,-1
 425 -66 l 1,46,-1
 640 735 l 1,47,-1
 587 735 l 1,48,-1
 373 -66 l 1,45,-1
667 130 m 1,49,-1
 805 357 l 1,50,-1
 805 130 l 1,51,-1
 667 130 l 1,49,-1
EndSplineSet
Validated: 9
Layer: 2
SplineSet
859 0 m 1
 859 85 l 1
 907 85 l 1
 907 130 l 1
 859 130 l 1
 859 405 l 1
 774 405 l 1
 605 128 l 1
 605 85 l 1
 805 85 l 1
 805 0 l 1
 859 0 l 1
355 373 m 0
 355 425 327 458 287 473 c 1
 323 490 349 521 349 565 c 0
 349 636 315 684 216 684 c 0
 121 684 88 639 88 562 c 1
 136 562 l 1
 136 610 156 639 213 639 c 0
 275 639 294 610 294 565 c 0
 294 523 270 492 219 492 c 2
 158 492 l 1
 158 450 l 1
 218 450 l 2
 274 450 300 421 300 374 c 0
 300 331 276 306 213 306 c 0
 150 306 128 335 128 383 c 1
 80 383 l 1
 80 305 113 262 215 262 c 0
 310 262 355 304 355 373 c 0
373 -66 m 1
 425 -66 l 1
 640 735 l 1
 587 735 l 1
 373 -66 l 1
667 130 m 1
 805 357 l 1
 805 130 l 1
 667 130 l 1
EndSplineSet
EndChar

StartChar: questiondown
Encoding: 125 191 127
Width: 484
GlyphClass: 2
Flags: W
HStem: -166 59<161.407 349.12> 469 117<232.287 309.714>
VStem: 42 68<-53.2568 140.543> 223 96<485.503 570.013> 248 46<300.091 393> 392 60<-65.0388 6>
LayerCount: 3
Fore
SplineSet
272 586 m 0,0,1
 301 586 301 586 310 570.5 c 128,-1,2
 319 555 319 555 319 528 c 0,3,4
 319 510 319 510 317 499.5 c 128,-1,5
 315 489 315 489 304 479 c 128,-1,6
 293 469 293 469 272 469 c 0,7,8
 241 469 241 469 232 485 c 128,-1,9
 223 501 223 501 223 528 c 0,10,11
 223 540 223 540 224.5 548.5 c 128,-1,12
 226 557 226 557 230.5 566.5 c 128,-1,13
 235 576 235 576 245.5 581 c 128,-1,14
 256 586 256 586 272 586 c 0,0,1
221 245 m 2,15,16
 129 231 129 231 85.5 189 c 128,-1,17
 42 147 42 147 42 43 c 0,18,19
 42 -60 42 -60 91 -113 c 128,-1,20
 140 -166 140 -166 255 -166 c 0,21,22
 359 -166 359 -166 405.5 -122 c 128,-1,23
 452 -78 452 -78 452 6 c 1,24,-1
 392 6 l 1,25,26
 392 -107 392 -107 256 -107 c 0,27,28
 174 -107 174 -107 142 -68.5 c 128,-1,29
 110 -30 110 -30 110 45 c 0,30,31
 110 125 110 125 146 157 c 128,-1,32
 182 189 182 189 250 197 c 2,33,-1
 301 203 l 1,34,-1
 294 393 l 1,35,-1
 248 393 l 1,36,-1
 237 247 l 1,37,-1
 221 245 l 2,15,16
EndSplineSet
Validated: 9
Layer: 2
SplineSet
272 586 m 0
 316 586 319 555 319 528 c 0
 319 500 316 469 272 469 c 0
 226 469 223 500 223 528 c 0
 223 555 226 586 272 586 c 0
221 245 m 2
 110 228 42 191 42 43 c 0
 42 -88 95 -166 255 -166 c 0
 399 -166 452 -102 452 6 c 1
 392 6 l 1
 392 -62 357 -107 256 -107 c 0
 140 -107 110 -47 110 45 c 0
 110 160 171 188 250 197 c 2
 301 203 l 1
 294 393 l 1
 248 393 l 1
 237 247 l 1
 221 245 l 2
EndSplineSet
EndChar

StartChar: Agrave
Encoding: 126 192 128
Width: 653
GlyphClass: 2
Flags: W
LayerCount: 3
Fore
SplineSet
278 730 m 1,0,-1
 51 50 l 1,1,-1
 5 50 l 1,2,-1
 5 0 l 1,3,-1
 183 0 l 1,4,-1
 183 50 l 1,5,-1
 123 50 l 1,6,-1
 184 236 l 1,7,-1
 468 236 l 1,8,-1
 529 50 l 1,9,-1
 470 50 l 1,10,-1
 470 0 l 1,11,-1
 648 0 l 1,12,-1
 648 50 l 1,13,-1
 601 50 l 1,14,-1
 375 730 l 1,15,-1
 278 730 l 1,0,-1
326 667 m 1,16,-1
 449 295 l 1,17,-1
 204 295 l 1,18,-1
 326 667 l 1,16,-1
391 782 m 1,19,-1
 219 932 l 1,20,-1
 272 985 l 1,21,-1
 433 824 l 1,22,-1
 391 782 l 1,19,-1
EndSplineSet
Validated: 9
Layer: 2
SplineSet
278 730 m 1
 51 50 l 1
 5 50 l 1
 5 0 l 1
 183 0 l 1
 183 50 l 1
 123 50 l 1
 184 236 l 1
 468 236 l 1
 529 50 l 1
 470 50 l 1
 470 0 l 1
 648 0 l 1
 648 50 l 1
 601 50 l 1
 375 730 l 1
 278 730 l 1
326 667 m 1
 449 295 l 1
 204 295 l 1
 326 667 l 1
391 782 m 1
 219 932 l 1
 272 985 l 1
 433 824 l 1
 391 782 l 1
EndSplineSet
Position2: "'cpsp' Capital Spacing lookup 0 subtable" dx=5 dy=0 dh=10 dv=0
EndChar

StartChar: Aacute
Encoding: 127 193 129
Width: 653
GlyphClass: 2
Flags: W
LayerCount: 3
Fore
SplineSet
278 730 m 1,0,-1
 51 50 l 1,1,-1
 5 50 l 1,2,-1
 5 0 l 1,3,-1
 183 0 l 1,4,-1
 183 50 l 1,5,-1
 123 50 l 1,6,-1
 184 236 l 1,7,-1
 468 236 l 1,8,-1
 529 50 l 1,9,-1
 470 50 l 1,10,-1
 470 0 l 1,11,-1
 648 0 l 1,12,-1
 648 50 l 1,13,-1
 601 50 l 1,14,-1
 375 730 l 1,15,-1
 278 730 l 1,0,-1
326 667 m 1,16,-1
 449 295 l 1,17,-1
 204 295 l 1,18,-1
 326 667 l 1,16,-1
261 782 m 1,19,-1
 433 932 l 1,20,-1
 380 985 l 1,21,-1
 219 824 l 1,22,-1
 261 782 l 1,19,-1
EndSplineSet
Validated: 9
Layer: 2
SplineSet
278 730 m 1
 51 50 l 1
 5 50 l 1
 5 0 l 1
 183 0 l 1
 183 50 l 1
 123 50 l 1
 184 236 l 1
 468 236 l 1
 529 50 l 1
 470 50 l 1
 470 0 l 1
 648 0 l 1
 648 50 l 1
 601 50 l 1
 375 730 l 1
 278 730 l 1
326 667 m 1
 449 295 l 1
 204 295 l 1
 326 667 l 1
261 782 m 1
 433 932 l 1
 380 985 l 1
 219 824 l 1
 261 782 l 1
EndSplineSet
Position2: "'cpsp' Capital Spacing lookup 0 subtable" dx=5 dy=0 dh=10 dv=0
EndChar

StartChar: Acircumflex
Encoding: 128 194 130
Width: 653
GlyphClass: 2
Flags: W
LayerCount: 3
Fore
SplineSet
278 730 m 1,0,-1
 51 50 l 1,1,-1
 5 50 l 1,2,-1
 5 0 l 1,3,-1
 183 0 l 1,4,-1
 183 50 l 1,5,-1
 123 50 l 1,6,-1
 184 236 l 1,7,-1
 468 236 l 1,8,-1
 529 50 l 1,9,-1
 470 50 l 1,10,-1
 470 0 l 1,11,-1
 648 0 l 1,12,-1
 648 50 l 1,13,-1
 601 50 l 1,14,-1
 375 730 l 1,15,-1
 278 730 l 1,0,-1
326 667 m 1,16,-1
 449 295 l 1,17,-1
 204 295 l 1,18,-1
 326 667 l 1,16,-1
218 782 m 1,19,-1
 326 892 l 1,20,-1
 435 782 l 1,21,-1
 477 824 l 1,22,-1
 341 979 l 1,23,-1
 312 979 l 1,24,-1
 176 824 l 1,25,-1
 218 782 l 1,19,-1
EndSplineSet
Validated: 9
Layer: 2
SplineSet
278 730 m 1
 51 50 l 1
 5 50 l 1
 5 0 l 1
 183 0 l 1
 183 50 l 1
 123 50 l 1
 184 236 l 1
 468 236 l 1
 529 50 l 1
 470 50 l 1
 470 0 l 1
 648 0 l 1
 648 50 l 1
 601 50 l 1
 375 730 l 1
 278 730 l 1
326 667 m 1
 449 295 l 1
 204 295 l 1
 326 667 l 1
218 782 m 1
 326 892 l 1
 435 782 l 1
 477 824 l 1
 341 979 l 1
 312 979 l 1
 176 824 l 1
 218 782 l 1
EndSplineSet
Position2: "'cpsp' Capital Spacing lookup 0 subtable" dx=5 dy=0 dh=10 dv=0
EndChar

StartChar: Atilde
Encoding: 129 195 131
Width: 653
GlyphClass: 2
Flags: W
HStem: 835 65<317.459 423.03> 871 65<230.294 335.509>
VStem: 165 51<840.804 860.684> 437 50<910.316 930.24>
LayerCount: 3
Fore
SplineSet
278 730 m 1,0,-1
 51 50 l 1,1,-1
 5 50 l 1,2,-1
 5 0 l 1,3,-1
 183 0 l 1,4,-1
 183 50 l 1,5,-1
 123 50 l 1,6,-1
 184 236 l 1,7,-1
 468 236 l 1,8,-1
 529 50 l 1,9,-1
 470 50 l 1,10,-1
 470 0 l 1,11,-1
 648 0 l 1,12,-1
 648 50 l 1,13,-1
 601 50 l 1,14,-1
 375 730 l 1,15,-1
 278 730 l 1,0,-1
326 667 m 1,16,-1
 449 295 l 1,17,-1
 204 295 l 1,18,-1
 326 667 l 1,16,-1
399 835 m 0,19,20
 460 835 460 835 487 928 c 1,21,-1
 437 944 l 1,22,23
 429 920 429 920 419 910 c 128,-1,24
 409 900 409 900 391 900 c 0,25,26
 378 900 378 900 328 918 c 128,-1,27
 278 936 278 936 253 936 c 0,28,29
 192 936 192 936 165 843 c 1,30,-1
 216 827 l 1,31,32
 224 851 224 851 234 861 c 128,-1,33
 244 871 244 871 262 871 c 0,34,35
 276 871 276 871 325 853 c 128,-1,36
 374 835 374 835 399 835 c 0,19,20
EndSplineSet
Validated: 9
Layer: 2
SplineSet
278 730 m 1
 51 50 l 1
 5 50 l 1
 5 0 l 1
 183 0 l 1
 183 50 l 1
 123 50 l 1
 184 236 l 1
 468 236 l 1
 529 50 l 1
 470 50 l 1
 470 0 l 1
 648 0 l 1
 648 50 l 1
 601 50 l 1
 375 730 l 1
 278 730 l 1
326 667 m 1
 449 295 l 1
 204 295 l 1
 326 667 l 1
399 835 m 0
 437 835 467 858 487 928 c 1
 437 944 l 1
 427 914 416 900 391 900 c 0
 360 900 300 936 253 936 c 0
 215 936 185 913 165 843 c 1
 216 827 l 1
 226 857 237 871 262 871 c 0
 293 871 352 835 399 835 c 0
EndSplineSet
Position2: "'cpsp' Capital Spacing lookup 0 subtable" dx=5 dy=0 dh=10 dv=0
EndChar

StartChar: Adieresis
Encoding: 130 196 132
Width: 653
GlyphClass: 2
Flags: W
HStem: 830 107<180.893 256.745 390.893 466.745>
VStem: 177 88<834.254 922.56> 387 88<834.254 922.56>
LayerCount: 3
Fore
SplineSet
278 730 m 1,0,-1
 51 50 l 1,1,-1
 5 50 l 1,2,-1
 5 0 l 1,3,-1
 183 0 l 1,4,-1
 183 50 l 1,5,-1
 123 50 l 1,6,-1
 184 236 l 1,7,-1
 468 236 l 1,8,-1
 529 50 l 1,9,-1
 470 50 l 1,10,-1
 470 0 l 1,11,-1
 648 0 l 1,12,-1
 648 50 l 1,13,-1
 601 50 l 1,14,-1
 375 730 l 1,15,-1
 278 730 l 1,0,-1
326 667 m 1,16,-1
 449 295 l 1,17,-1
 204 295 l 1,18,-1
 326 667 l 1,16,-1
220 830 m 0,19,20
 201 830 201 830 191 839 c 128,-1,21
 181 848 181 848 179 857.5 c 128,-1,22
 177 867 177 867 177 883 c 0,23,24
 177 900 177 900 179 909.5 c 128,-1,25
 181 919 181 919 191 928 c 128,-1,26
 201 937 201 937 220 937 c 0,27,28
 249 937 249 937 257 923 c 128,-1,29
 265 909 265 909 265 883 c 0,30,31
 265 867 265 867 263 857.5 c 128,-1,32
 261 848 261 848 250.5 839 c 128,-1,33
 240 830 240 830 220 830 c 0,19,20
430 830 m 0,34,35
 411 830 411 830 401 839 c 128,-1,36
 391 848 391 848 389 857.5 c 128,-1,37
 387 867 387 867 387 883 c 0,38,39
 387 900 387 900 389 909.5 c 128,-1,40
 391 919 391 919 401 928 c 128,-1,41
 411 937 411 937 430 937 c 0,42,43
 459 937 459 937 467 923 c 128,-1,44
 475 909 475 909 475 883 c 0,45,46
 475 867 475 867 473 857.5 c 128,-1,47
 471 848 471 848 460.5 839 c 128,-1,48
 450 830 450 830 430 830 c 0,34,35
EndSplineSet
Validated: 9
Layer: 2
SplineSet
278 730 m 1
 51 50 l 1
 5 50 l 1
 5 0 l 1
 183 0 l 1
 183 50 l 1
 123 50 l 1
 184 236 l 1
 468 236 l 1
 529 50 l 1
 470 50 l 1
 470 0 l 1
 648 0 l 1
 648 50 l 1
 601 50 l 1
 375 730 l 1
 278 730 l 1
326 667 m 1
 449 295 l 1
 204 295 l 1
 326 667 l 1
220 830 m 0
 179 830 177 858 177 883 c 0
 177 909 179 937 220 937 c 0
 263 937 265 909 265 883 c 0
 265 858 263 830 220 830 c 0
430 830 m 0
 389 830 387 858 387 883 c 0
 387 909 389 937 430 937 c 0
 473 937 475 909 475 883 c 0
 475 858 473 830 430 830 c 0
EndSplineSet
Position2: "'cpsp' Capital Spacing lookup 0 subtable" dx=5 dy=0 dh=10 dv=0
EndChar

StartChar: Aring
Encoding: 131 197 133
Width: 653
GlyphClass: 2
Flags: W
HStem: 786 43<289.454 364.621> 938 43<287.339 364.088>
VStem: 231 52<843.956 883 910 934.06> 369 52<833.063 857 909.5 933.581>
LayerCount: 3
Fore
SplineSet
278 730 m 1,0,-1
 51 50 l 1,1,-1
 5 50 l 1,2,-1
 5 0 l 1,3,-1
 183 0 l 1,4,-1
 183 50 l 1,5,-1
 123 50 l 1,6,-1
 184 236 l 1,7,-1
 468 236 l 1,8,-1
 529 50 l 1,9,-1
 470 50 l 1,10,-1
 470 0 l 1,11,-1
 648 0 l 1,12,-1
 648 50 l 1,13,-1
 601 50 l 1,14,-1
 375 730 l 1,15,-1
 278 730 l 1,0,-1
326 667 m 1,16,-1
 449 295 l 1,17,-1
 204 295 l 1,18,-1
 326 667 l 1,16,-1
325 829 m 0,19,20
 298 829 298 829 290.5 843.5 c 128,-1,21
 283 858 283 858 283 883 c 0,22,23
 283 900 283 900 285 910 c 128,-1,24
 287 920 287 920 296.5 929 c 128,-1,25
 306 938 306 938 325 938 c 0,26,27
 345 938 345 938 355 928.5 c 128,-1,28
 365 919 365 919 367 909.5 c 128,-1,29
 369 900 369 900 369 883 c 0,30,31
 369 867 369 867 367 857 c 128,-1,32
 365 847 365 847 355 838 c 128,-1,33
 345 829 345 829 325 829 c 0,19,20
325 786 m 256,34,35
 357 786 357 786 378 794 c 128,-1,36
 399 802 399 802 407.5 818 c 128,-1,37
 416 834 416 834 418.5 848 c 128,-1,38
 421 862 421 862 421 883 c 128,-1,39
 421 904 421 904 418.5 918 c 128,-1,40
 416 932 416 932 407.5 948.5 c 128,-1,41
 399 965 399 965 378 973 c 128,-1,42
 357 981 357 981 325 981 c 128,-1,43
 293 981 293 981 273 973 c 128,-1,44
 253 965 253 965 244.5 948.5 c 128,-1,45
 236 932 236 932 233.5 918 c 128,-1,46
 231 904 231 904 231 883 c 128,-1,47
 231 862 231 862 233.5 848 c 128,-1,48
 236 834 236 834 244.5 818 c 128,-1,49
 253 802 253 802 273 794 c 128,-1,50
 293 786 293 786 325 786 c 256,34,35
EndSplineSet
Validated: 9
Layer: 2
SplineSet
278 730 m 1
 51 50 l 1
 5 50 l 1
 5 0 l 1
 183 0 l 1
 183 50 l 1
 123 50 l 1
 184 236 l 1
 468 236 l 1
 529 50 l 1
 470 50 l 1
 470 0 l 1
 648 0 l 1
 648 50 l 1
 601 50 l 1
 375 730 l 1
 278 730 l 1
326 667 m 1
 449 295 l 1
 204 295 l 1
 326 667 l 1
325 829 m 0
 285 829 283 858 283 883 c 0
 283 909 285 938 325 938 c 0
 367 938 369 909 369 883 c 0
 369 858 367 829 325 829 c 0
325 786 m 0
 416 786 421 837 421 883 c 0
 421 929 416 981 325 981 c 0
 236 981 231 929 231 883 c 0
 231 837 236 786 325 786 c 0
EndSplineSet
Position2: "'cpsp' Capital Spacing lookup 0 subtable" dx=5 dy=0 dh=10 dv=0
EndChar

StartChar: AE
Encoding: 132 198 134
Width: 943
GlyphClass: 2
Flags: W
HStem: 651 20G<356.296 453 525 807>
LayerCount: 3
Fore
SplineSet
5 0 m 1,0,-1
 183 0 l 1,1,-1
 183 50 l 1,2,-1
 126 50 l 1,3,-1
 237 341 l 1,4,-1
 453 341 l 1,5,-1
 453 50 l 1,6,-1
 393 50 l 1,7,-1
 393 0 l 1,8,-1
 883 0 l 1,9,-1
 883 158 l 1,10,-1
 827 158 l 1,11,-1
 827 59 l 1,12,-1
 525 59 l 1,13,-1
 525 341 l 1,14,-1
 813 341 l 1,15,-1
 813 401 l 1,16,-1
 525 401 l 1,17,-1
 525 671 l 1,18,-1
 807 671 l 1,19,-1
 807 572 l 1,20,-1
 863 572 l 1,21,-1
 863 730 l 1,22,-1
 807 730 l 1,23,-1
 318 730 l 1,24,-1
 54 50 l 1,25,-1
 5 50 l 1,26,-1
 5 0 l 1,0,-1
453 671 m 1,27,-1
 453 401 l 1,28,-1
 260 401 l 1,29,-1
 364 671 l 1,30,-1
 453 671 l 1,27,-1
EndSplineSet
Validated: 9
Layer: 2
SplineSet
5 0 m 1
 183 0 l 1
 183 50 l 1
 126 50 l 1
 237 341 l 1
 453 341 l 1
 453 50 l 1
 393 50 l 1
 393 0 l 1
 883 0 l 1
 883 158 l 1
 827 158 l 1
 827 59 l 1
 525 59 l 1
 525 341 l 1
 813 341 l 1
 813 401 l 1
 525 401 l 1
 525 671 l 1
 807 671 l 1
 807 572 l 1
 863 572 l 1
 863 730 l 1
 807 730 l 1
 318 730 l 1
 54 50 l 1
 5 50 l 1
 5 0 l 1
453 671 m 1
 453 401 l 1
 260 401 l 1
 364 671 l 1
 453 671 l 1
EndSplineSet
Position2: "'cpsp' Capital Spacing lookup 0 subtable" dx=5 dy=0 dh=10 dv=0
EndChar

StartChar: Ccedilla
Encoding: 133 199 135
Width: 634
GlyphClass: 2
Flags: W
HStem: -241 50<280.472 353.518> -13 59<319 452.003> 684 60<239.847 446.942>
VStem: 75 72<148.994 255 365 571.844> 215 60<-180.169 -146> 359 55<-184.144 -107.721> 523 54<514 604.133>
LayerCount: 3
Fore
SplineSet
215 -146 m 1,0,1
 215 -193 215 -193 236.5 -217 c 128,-1,2
 258 -241 258 -241 314 -241 c 0,3,4
 371 -241 371 -241 392.5 -217 c 128,-1,5
 414 -193 414 -193 414 -145 c 0,6,7
 414 -93 414 -93 389 -74.5 c 128,-1,8
 364 -56 364 -56 312 -55 c 1,9,-1
 319 -13 l 1,10,11
 324 -13 324 -13 334.5 -13.5 c 128,-1,12
 345 -14 345 -14 351 -14 c 0,13,14
 415 -14 415 -14 459 1.5 c 128,-1,15
 503 17 503 17 527 48.5 c 128,-1,16
 551 80 551 80 562 117.5 c 128,-1,17
 573 155 573 155 577 209 c 1,18,-1
 518 212 l 1,19,20
 515 134 515 134 478.5 90 c 128,-1,21
 442 46 442 46 351 46 c 0,22,23
 294 46 294 46 255 61.5 c 128,-1,24
 216 77 216 77 195 100 c 128,-1,25
 174 123 174 123 163 169 c 128,-1,26
 152 215 152 215 149.5 255 c 128,-1,27
 147 295 147 295 147 365 c 0,28,29
 147 431 147 431 150.5 474.5 c 128,-1,30
 154 518 154 518 165.5 561.5 c 128,-1,31
 177 605 177 605 197.5 629.5 c 128,-1,32
 218 654 218 654 254 669 c 128,-1,33
 290 684 290 684 341 684 c 0,34,35
 436 684 436 684 476.5 640.5 c 128,-1,36
 517 597 517 597 523 514 c 1,37,-1
 577 514 l 1,38,-1
 577 730 l 1,39,-1
 523 730 l 1,40,-1
 523 656 l 1,41,42
 472 744 472 744 341 744 c 0,43,44
 257 744 257 744 203 719.5 c 128,-1,45
 149 695 149 695 121.5 642 c 128,-1,46
 94 589 94 589 84.5 526 c 128,-1,47
 75 463 75 463 75 365 c 0,48,49
 75 296 75 296 78.5 249 c 128,-1,50
 82 202 82 202 93.5 153.5 c 128,-1,51
 105 105 105 105 126 75 c 128,-1,52
 147 45 147 45 183 23 c 128,-1,53
 219 1 219 1 271 -8 c 1,54,-1
 258 -86 l 1,55,-1
 312 -96 l 2,56,57
 339 -101 339 -101 349 -111.5 c 128,-1,58
 359 -122 359 -122 359 -146 c 128,-1,59
 359 -170 359 -170 351.5 -180.5 c 128,-1,60
 344 -191 344 -191 317 -191 c 128,-1,61
 290 -191 290 -191 282.5 -180.5 c 128,-1,62
 275 -170 275 -170 275 -146 c 1,63,-1
 215 -146 l 1,0,1
EndSplineSet
Validated: 9
Layer: 2
SplineSet
215 -146 m 1
 215 -204 235 -241 314 -241 c 0
 394 -241 414 -204 414 -145 c 0
 414 -71 374 -56 312 -55 c 1
 319 -13 l 1
 329 -13 340 -14 351 -14 c 0
 527 -14 568 77 577 209 c 1
 518 212 l 1
 515 120 482 46 351 46 c 0
 156 46 147 168 147 365 c 0
 147 562 167 684 341 684 c 0
 476 684 516 616 523 514 c 1
 577 514 l 1
 577 730 l 1
 523 730 l 1
 523 656 l 1
 492 710 435 744 341 744 c 0
 111 744 75 602 75 365 c 0
 75 158 95 21 271 -8 c 1
 258 -86 l 1
 312 -96 l 2
 348 -103 359 -114 359 -146 c 0
 359 -173 356 -191 317 -191 c 0
 278 -191 275 -173 275 -146 c 1
 215 -146 l 1
EndSplineSet
Position2: "'cpsp' Capital Spacing lookup 0 subtable" dx=5 dy=0 dh=10 dv=0
EndChar

StartChar: Egrave
Encoding: 134 200 136
Width: 620
GlyphClass: 2
Flags: W
HStem: 651 20G<202 484>
LayerCount: 3
Fore
SplineSet
70 0 m 1,0,-1
 560 0 l 1,1,-1
 560 158 l 1,2,-1
 504 158 l 1,3,-1
 504 59 l 1,4,-1
 202 59 l 1,5,-1
 202 341 l 1,6,-1
 490 341 l 1,7,-1
 490 401 l 1,8,-1
 202 401 l 1,9,-1
 202 671 l 1,10,-1
 484 671 l 1,11,-1
 484 572 l 1,12,-1
 540 572 l 1,13,-1
 540 730 l 1,14,-1
 70 730 l 1,15,-1
 70 680 l 1,16,-1
 130 680 l 1,17,-1
 130 50 l 1,18,-1
 70 50 l 1,19,-1
 70 0 l 1,0,-1
367 782 m 1,20,-1
 195 932 l 1,21,-1
 248 985 l 1,22,-1
 409 824 l 1,23,-1
 367 782 l 1,20,-1
EndSplineSet
Validated: 9
Layer: 2
SplineSet
70 0 m 1
 560 0 l 1
 560 158 l 1
 504 158 l 1
 504 59 l 1
 202 59 l 1
 202 341 l 1
 490 341 l 1
 490 401 l 1
 202 401 l 1
 202 671 l 1
 484 671 l 1
 484 572 l 1
 540 572 l 1
 540 730 l 1
 70 730 l 1
 70 680 l 1
 130 680 l 1
 130 50 l 1
 70 50 l 1
 70 0 l 1
367 782 m 1
 195 932 l 1
 248 985 l 1
 409 824 l 1
 367 782 l 1
EndSplineSet
Position2: "'cpsp' Capital Spacing lookup 0 subtable" dx=5 dy=0 dh=10 dv=0
EndChar

StartChar: Eacute
Encoding: 135 201 137
Width: 620
GlyphClass: 2
Flags: W
HStem: 651 20G<202 484>
LayerCount: 3
Fore
SplineSet
70 0 m 1,0,-1
 560 0 l 1,1,-1
 560 158 l 1,2,-1
 504 158 l 1,3,-1
 504 59 l 1,4,-1
 202 59 l 1,5,-1
 202 341 l 1,6,-1
 490 341 l 1,7,-1
 490 401 l 1,8,-1
 202 401 l 1,9,-1
 202 671 l 1,10,-1
 484 671 l 1,11,-1
 484 572 l 1,12,-1
 540 572 l 1,13,-1
 540 730 l 1,14,-1
 70 730 l 1,15,-1
 70 680 l 1,16,-1
 130 680 l 1,17,-1
 130 50 l 1,18,-1
 70 50 l 1,19,-1
 70 0 l 1,0,-1
237 782 m 1,20,-1
 409 932 l 1,21,-1
 356 985 l 1,22,-1
 195 824 l 1,23,-1
 237 782 l 1,20,-1
EndSplineSet
Validated: 9
Layer: 2
SplineSet
70 0 m 1
 560 0 l 1
 560 158 l 1
 504 158 l 1
 504 59 l 1
 202 59 l 1
 202 341 l 1
 490 341 l 1
 490 401 l 1
 202 401 l 1
 202 671 l 1
 484 671 l 1
 484 572 l 1
 540 572 l 1
 540 730 l 1
 70 730 l 1
 70 680 l 1
 130 680 l 1
 130 50 l 1
 70 50 l 1
 70 0 l 1
237 782 m 1
 409 932 l 1
 356 985 l 1
 195 824 l 1
 237 782 l 1
EndSplineSet
Position2: "'cpsp' Capital Spacing lookup 0 subtable" dx=5 dy=0 dh=10 dv=0
EndChar

StartChar: Ecircumflex
Encoding: 136 202 138
Width: 620
GlyphClass: 2
Flags: W
HStem: 651 20G<202 484>
LayerCount: 3
Fore
SplineSet
70 0 m 1,0,-1
 560 0 l 1,1,-1
 560 158 l 1,2,-1
 504 158 l 1,3,-1
 504 59 l 1,4,-1
 202 59 l 1,5,-1
 202 341 l 1,6,-1
 490 341 l 1,7,-1
 490 401 l 1,8,-1
 202 401 l 1,9,-1
 202 671 l 1,10,-1
 484 671 l 1,11,-1
 484 572 l 1,12,-1
 540 572 l 1,13,-1
 540 730 l 1,14,-1
 70 730 l 1,15,-1
 70 680 l 1,16,-1
 130 680 l 1,17,-1
 130 50 l 1,18,-1
 70 50 l 1,19,-1
 70 0 l 1,0,-1
194 782 m 1,20,-1
 302 892 l 1,21,-1
 411 782 l 1,22,-1
 453 824 l 1,23,-1
 317 979 l 1,24,-1
 288 979 l 1,25,-1
 152 824 l 1,26,-1
 194 782 l 1,20,-1
EndSplineSet
Validated: 9
Layer: 2
SplineSet
70 0 m 1
 560 0 l 1
 560 158 l 1
 504 158 l 1
 504 59 l 1
 202 59 l 1
 202 341 l 1
 490 341 l 1
 490 401 l 1
 202 401 l 1
 202 671 l 1
 484 671 l 1
 484 572 l 1
 540 572 l 1
 540 730 l 1
 70 730 l 1
 70 680 l 1
 130 680 l 1
 130 50 l 1
 70 50 l 1
 70 0 l 1
194 782 m 1
 302 892 l 1
 411 782 l 1
 453 824 l 1
 317 979 l 1
 288 979 l 1
 152 824 l 1
 194 782 l 1
EndSplineSet
Position2: "'cpsp' Capital Spacing lookup 0 subtable" dx=5 dy=0 dh=10 dv=0
EndChar

StartChar: Edieresis
Encoding: 137 203 139
Width: 620
GlyphClass: 2
Flags: W
HStem: 651 20G<202 484> 830 107<156.893 232.745 366.893 442.745>
VStem: 153 88<834.254 922.56> 363 88<834.254 922.56>
LayerCount: 3
Fore
SplineSet
70 0 m 1,0,-1
 560 0 l 1,1,-1
 560 158 l 1,2,-1
 504 158 l 1,3,-1
 504 59 l 1,4,-1
 202 59 l 1,5,-1
 202 341 l 1,6,-1
 490 341 l 1,7,-1
 490 401 l 1,8,-1
 202 401 l 1,9,-1
 202 671 l 1,10,-1
 484 671 l 1,11,-1
 484 572 l 1,12,-1
 540 572 l 1,13,-1
 540 730 l 1,14,-1
 70 730 l 1,15,-1
 70 680 l 1,16,-1
 130 680 l 1,17,-1
 130 50 l 1,18,-1
 70 50 l 1,19,-1
 70 0 l 1,0,-1
196 830 m 0,20,21
 177 830 177 830 167 839 c 128,-1,22
 157 848 157 848 155 857.5 c 128,-1,23
 153 867 153 867 153 883 c 0,24,25
 153 900 153 900 155 909.5 c 128,-1,26
 157 919 157 919 167 928 c 128,-1,27
 177 937 177 937 196 937 c 0,28,29
 225 937 225 937 233 923 c 128,-1,30
 241 909 241 909 241 883 c 0,31,32
 241 867 241 867 239 857.5 c 128,-1,33
 237 848 237 848 226.5 839 c 128,-1,34
 216 830 216 830 196 830 c 0,20,21
406 830 m 0,35,36
 387 830 387 830 377 839 c 128,-1,37
 367 848 367 848 365 857.5 c 128,-1,38
 363 867 363 867 363 883 c 0,39,40
 363 900 363 900 365 909.5 c 128,-1,41
 367 919 367 919 377 928 c 128,-1,42
 387 937 387 937 406 937 c 0,43,44
 435 937 435 937 443 923 c 128,-1,45
 451 909 451 909 451 883 c 0,46,47
 451 867 451 867 449 857.5 c 128,-1,48
 447 848 447 848 436.5 839 c 128,-1,49
 426 830 426 830 406 830 c 0,35,36
EndSplineSet
Validated: 9
Layer: 2
SplineSet
70 0 m 1
 560 0 l 1
 560 158 l 1
 504 158 l 1
 504 59 l 1
 202 59 l 1
 202 341 l 1
 490 341 l 1
 490 401 l 1
 202 401 l 1
 202 671 l 1
 484 671 l 1
 484 572 l 1
 540 572 l 1
 540 730 l 1
 70 730 l 1
 70 680 l 1
 130 680 l 1
 130 50 l 1
 70 50 l 1
 70 0 l 1
196 830 m 0
 155 830 153 858 153 883 c 0
 153 909 155 937 196 937 c 0
 239 937 241 909 241 883 c 0
 241 858 239 830 196 830 c 0
406 830 m 0
 365 830 363 858 363 883 c 0
 363 909 365 937 406 937 c 0
 449 937 451 909 451 883 c 0
 451 858 449 830 406 830 c 0
EndSplineSet
Position2: "'cpsp' Capital Spacing lookup 0 subtable" dx=5 dy=0 dh=10 dv=0
EndChar

StartChar: Igrave
Encoding: 138 204 140
Width: 352
GlyphClass: 2
Flags: W
VStem: 69 214
LayerCount: 3
Fore
SplineSet
70 680 m 1,0,-1
 140 680 l 1,1,-1
 140 50 l 1,2,-1
 70 50 l 1,3,-1
 70 0 l 1,4,-1
 282 0 l 1,5,-1
 282 50 l 1,6,-1
 212 50 l 1,7,-1
 212 680 l 1,8,-1
 282 680 l 1,9,-1
 282 730 l 1,10,-1
 70 730 l 1,11,-1
 70 680 l 1,0,-1
241 782 m 1,12,-1
 69 932 l 1,13,-1
 122 985 l 1,14,-1
 283 824 l 1,15,-1
 241 782 l 1,12,-1
EndSplineSet
Validated: 9
Layer: 2
SplineSet
70 680 m 1
 140 680 l 1
 140 50 l 1
 70 50 l 1
 70 0 l 1
 282 0 l 1
 282 50 l 1
 212 50 l 1
 212 680 l 1
 282 680 l 1
 282 730 l 1
 70 730 l 1
 70 680 l 1
241 782 m 1
 69 932 l 1
 122 985 l 1
 283 824 l 1
 241 782 l 1
EndSplineSet
Position2: "'cpsp' Capital Spacing lookup 0 subtable" dx=5 dy=0 dh=10 dv=0
EndChar

StartChar: Iacute
Encoding: 139 205 141
Width: 352
GlyphClass: 2
Flags: W
LayerCount: 3
Fore
SplineSet
70 680 m 1,0,-1
 140 680 l 1,1,-1
 140 50 l 1,2,-1
 70 50 l 1,3,-1
 70 0 l 1,4,-1
 282 0 l 1,5,-1
 282 50 l 1,6,-1
 212 50 l 1,7,-1
 212 680 l 1,8,-1
 282 680 l 1,9,-1
 282 730 l 1,10,-1
 70 730 l 1,11,-1
 70 680 l 1,0,-1
131 782 m 1,12,-1
 303 932 l 1,13,-1
 250 985 l 1,14,-1
 89 824 l 1,15,-1
 131 782 l 1,12,-1
EndSplineSet
Validated: 9
Layer: 2
SplineSet
70 680 m 1
 140 680 l 1
 140 50 l 1
 70 50 l 1
 70 0 l 1
 282 0 l 1
 282 50 l 1
 212 50 l 1
 212 680 l 1
 282 680 l 1
 282 730 l 1
 70 730 l 1
 70 680 l 1
131 782 m 1
 303 932 l 1
 250 985 l 1
 89 824 l 1
 131 782 l 1
EndSplineSet
Position2: "'cpsp' Capital Spacing lookup 0 subtable" dx=5 dy=0 dh=10 dv=0
EndChar

StartChar: Icircumflex
Encoding: 140 206 142
Width: 352
GlyphClass: 2
Flags: W
LayerCount: 3
Fore
SplineSet
70 680 m 1,0,-1
 140 680 l 1,1,-1
 140 50 l 1,2,-1
 70 50 l 1,3,-1
 70 0 l 1,4,-1
 282 0 l 1,5,-1
 282 50 l 1,6,-1
 212 50 l 1,7,-1
 212 680 l 1,8,-1
 282 680 l 1,9,-1
 282 730 l 1,10,-1
 70 730 l 1,11,-1
 70 680 l 1,0,-1
68 782 m 1,12,-1
 176 892 l 1,13,-1
 285 782 l 1,14,-1
 327 824 l 1,15,-1
 191 979 l 1,16,-1
 162 979 l 1,17,-1
 26 824 l 1,18,-1
 68 782 l 1,12,-1
EndSplineSet
Validated: 9
Layer: 2
SplineSet
70 680 m 1
 140 680 l 1
 140 50 l 1
 70 50 l 1
 70 0 l 1
 282 0 l 1
 282 50 l 1
 212 50 l 1
 212 680 l 1
 282 680 l 1
 282 730 l 1
 70 730 l 1
 70 680 l 1
68 782 m 1
 176 892 l 1
 285 782 l 1
 327 824 l 1
 191 979 l 1
 162 979 l 1
 26 824 l 1
 68 782 l 1
EndSplineSet
Position2: "'cpsp' Capital Spacing lookup 0 subtable" dx=5 dy=0 dh=10 dv=0
EndChar

StartChar: Idieresis
Encoding: 141 207 143
Width: 352
GlyphClass: 2
Flags: W
HStem: 830 107<30.8926 106.745 240.893 316.745>
VStem: 27 88<834.254 922.56> 237 88<834.254 922.56>
LayerCount: 3
Fore
SplineSet
70 680 m 1,0,-1
 140 680 l 1,1,-1
 140 50 l 1,2,-1
 70 50 l 1,3,-1
 70 0 l 1,4,-1
 282 0 l 1,5,-1
 282 50 l 1,6,-1
 212 50 l 1,7,-1
 212 680 l 1,8,-1
 282 680 l 1,9,-1
 282 730 l 1,10,-1
 70 730 l 1,11,-1
 70 680 l 1,0,-1
280 830 m 0,12,13
 261 830 261 830 251 839 c 128,-1,14
 241 848 241 848 239 857.5 c 128,-1,15
 237 867 237 867 237 883 c 0,16,17
 237 900 237 900 239 909.5 c 128,-1,18
 241 919 241 919 251 928 c 128,-1,19
 261 937 261 937 280 937 c 0,20,21
 309 937 309 937 317 923 c 128,-1,22
 325 909 325 909 325 883 c 0,23,24
 325 867 325 867 323 857.5 c 128,-1,25
 321 848 321 848 310.5 839 c 128,-1,26
 300 830 300 830 280 830 c 0,12,13
70 830 m 0,27,28
 51 830 51 830 41 839 c 128,-1,29
 31 848 31 848 29 857.5 c 128,-1,30
 27 867 27 867 27 883 c 0,31,32
 27 900 27 900 29 909.5 c 128,-1,33
 31 919 31 919 41 928 c 128,-1,34
 51 937 51 937 70 937 c 0,35,36
 99 937 99 937 107 923 c 128,-1,37
 115 909 115 909 115 883 c 0,38,39
 115 867 115 867 113 857.5 c 128,-1,40
 111 848 111 848 100.5 839 c 128,-1,41
 90 830 90 830 70 830 c 0,27,28
EndSplineSet
Validated: 9
Layer: 2
SplineSet
70 680 m 1
 140 680 l 1
 140 50 l 1
 70 50 l 1
 70 0 l 1
 282 0 l 1
 282 50 l 1
 212 50 l 1
 212 680 l 1
 282 680 l 1
 282 730 l 1
 70 730 l 1
 70 680 l 1
280 830 m 0
 239 830 237 858 237 883 c 0
 237 909 239 937 280 937 c 0
 323 937 325 909 325 883 c 0
 325 858 323 830 280 830 c 0
70 830 m 0
 29 830 27 858 27 883 c 0
 27 909 29 937 70 937 c 0
 113 937 115 909 115 883 c 0
 115 858 113 830 70 830 c 0
EndSplineSet
Position2: "'cpsp' Capital Spacing lookup 0 subtable" dx=5 dy=0 dh=10 dv=0
EndChar

StartChar: Eth
Encoding: 142 208 144
Width: 688
GlyphClass: 2
Flags: W
HStem: 0 62<345 461.529> 668 62<345 461.529>
VStem: 556 72<174.412 238.5 471.5 556.415>
LayerCount: 3
Fore
SplineSet
70 674 m 1,0,-1
 130 674 l 1,1,-1
 130 395 l 1,2,-1
 70 395 l 1,3,-1
 70 335 l 1,4,-1
 130 335 l 1,5,-1
 130 56 l 1,6,-1
 70 56 l 1,7,-1
 70 0 l 1,8,-1
 345 0 l 2,9,10
 420 0 420 0 472 17 c 128,-1,11
 524 34 524 34 554.5 62 c 128,-1,12
 585 90 585 90 601.5 139 c 128,-1,13
 618 188 618 188 623 238.5 c 128,-1,14
 628 289 628 289 628 365 c 0,15,16
 628 428 628 428 624.5 471.5 c 128,-1,17
 621 515 621 515 611 559.5 c 128,-1,18
 601 604 601 604 582 632.5 c 128,-1,19
 563 661 563 661 532 685 c 128,-1,20
 501 709 501 709 454.5 719.5 c 128,-1,21
 408 730 408 730 345 730 c 2,22,-1
 70 730 l 1,23,-1
 70 674 l 1,0,-1
345 668 m 2,24,25
 414 668 414 668 457.5 648.5 c 128,-1,26
 501 629 501 629 522 585.5 c 128,-1,27
 543 542 543 542 549.5 493.5 c 128,-1,28
 556 445 556 445 556 365 c 128,-1,29
 556 285 556 285 549.5 236.5 c 128,-1,30
 543 188 543 188 522 144.5 c 128,-1,31
 501 101 501 101 457.5 81.5 c 128,-1,32
 414 62 414 62 345 62 c 2,33,-1
 202 62 l 1,34,-1
 202 335 l 1,35,-1
 422 335 l 1,36,-1
 422 395 l 1,37,-1
 202 395 l 1,38,-1
 202 668 l 1,39,-1
 345 668 l 2,24,25
EndSplineSet
Validated: 9
Layer: 2
SplineSet
70 674 m 1
 130 674 l 1
 130 395 l 1
 70 395 l 1
 70 335 l 1
 130 335 l 1
 130 56 l 1
 70 56 l 1
 70 0 l 1
 345 0 l 2
 600 0 628 137 628 365 c 0
 628 591 600 730 345 730 c 2
 70 730 l 1
 70 674 l 1
345 668 m 2
 535 668 556 553 556 365 c 0
 556 177 535 62 345 62 c 2
 202 62 l 1
 202 335 l 1
 422 335 l 1
 422 395 l 1
 202 395 l 1
 202 668 l 1
 345 668 l 2
EndSplineSet
Position2: "'cpsp' Capital Spacing lookup 0 subtable" dx=5 dy=0 dh=10 dv=0
EndChar

StartChar: Ntilde
Encoding: 143 209 145
Width: 770
GlyphClass: 2
Flags: W
HStem: 835 65<386.786 492.03> 871 65<299.294 403.216>
VStem: 234 51<840.804 860.684> 506 50<910.316 930.24>
LayerCount: 3
Fore
SplineSet
518 680 m 1,0,-1
 578 680 l 1,1,-1
 578 119 l 1,2,-1
 210 730 l 1,3,-1
 70 730 l 1,4,-1
 70 680 l 1,5,-1
 130 680 l 1,6,-1
 130 50 l 1,7,-1
 70 50 l 1,8,-1
 70 0 l 1,9,-1
 262 0 l 1,10,-1
 262 50 l 1,11,-1
 202 50 l 1,12,-1
 202 610 l 1,13,-1
 570 0 l 1,14,-1
 650 0 l 1,15,-1
 650 680 l 1,16,-1
 710 680 l 1,17,-1
 710 730 l 1,18,-1
 518 730 l 1,19,-1
 518 680 l 1,0,-1
468 835 m 0,20,21
 529 835 529 835 556 928 c 1,22,-1
 506 944 l 1,23,24
 498 920 498 920 488 910 c 128,-1,25
 478 900 478 900 460 900 c 0,26,27
 446 900 446 900 397 918 c 128,-1,28
 348 936 348 936 322 936 c 0,29,30
 261 936 261 936 234 843 c 1,31,-1
 285 827 l 1,32,33
 293 851 293 851 303 861 c 128,-1,34
 313 871 313 871 331 871 c 0,35,36
 344 871 344 871 393 853 c 128,-1,37
 442 835 442 835 468 835 c 0,20,21
EndSplineSet
Validated: 9
Layer: 2
SplineSet
518 680 m 1
 578 680 l 1
 578 119 l 1
 210 730 l 1
 70 730 l 1
 70 680 l 1
 130 680 l 1
 130 50 l 1
 70 50 l 1
 70 0 l 1
 262 0 l 1
 262 50 l 1
 202 50 l 1
 202 610 l 1
 570 0 l 1
 650 0 l 1
 650 680 l 1
 710 680 l 1
 710 730 l 1
 518 730 l 1
 518 680 l 1
468 835 m 0
 506 835 536 858 556 928 c 1
 506 944 l 1
 496 914 485 900 460 900 c 0
 429 900 369 936 322 936 c 0
 284 936 254 913 234 843 c 1
 285 827 l 1
 295 857 306 871 331 871 c 0
 362 871 421 835 468 835 c 0
EndSplineSet
Position2: "'cpsp' Capital Spacing lookup 0 subtable" dx=5 dy=0 dh=10 dv=0
EndChar

StartChar: Ograve
Encoding: 144 210 146
Width: 685
GlyphClass: 2
Flags: W
HStem: -14 60<229.477 451.845> 684 60<229.242 451.845>
VStem: 60 72<157.859 572.807> 553 72<160.511 255.5 474.5 568.631>
LayerCount: 3
Fore
SplineSet
342 -14 m 256,0,1
 417 -14 417 -14 469 3.5 c 128,-1,2
 521 21 521 21 551.5 50 c 128,-1,3
 582 79 582 79 598.5 130 c 128,-1,4
 615 181 615 181 620 233.5 c 128,-1,5
 625 286 625 286 625 365 c 128,-1,6
 625 444 625 444 620 496 c 128,-1,7
 615 548 615 548 598.5 599 c 128,-1,8
 582 650 582 650 551.5 679 c 128,-1,9
 521 708 521 708 469 726 c 128,-1,10
 417 744 417 744 342 744 c 0,11,12
 279 744 279 744 232.5 733 c 128,-1,13
 186 722 186 722 155.5 697.5 c 128,-1,14
 125 673 125 673 105.5 643.5 c 128,-1,15
 86 614 86 614 76.5 567 c 128,-1,16
 67 520 67 520 63.5 475 c 128,-1,17
 60 430 60 430 60 365 c 0,18,19
 60 285 60 285 65 233.5 c 128,-1,20
 70 182 70 182 86 130.5 c 128,-1,21
 102 79 102 79 132.5 50 c 128,-1,22
 163 21 163 21 215 3.5 c 128,-1,23
 267 -14 267 -14 342 -14 c 256,0,1
342 46 m 0,24,25
 295 46 295 46 260.5 55.5 c 128,-1,26
 226 65 226 65 203 85.5 c 128,-1,27
 180 106 180 106 165.5 131 c 128,-1,28
 151 156 151 156 144 195.5 c 128,-1,29
 137 235 137 235 134.5 272.5 c 128,-1,30
 132 310 132 310 132 365 c 128,-1,31
 132 420 132 420 134.5 457.5 c 128,-1,32
 137 495 137 495 144 534.5 c 128,-1,33
 151 574 151 574 165.5 599 c 128,-1,34
 180 624 180 624 203 644.5 c 128,-1,35
 226 665 226 665 260.5 674.5 c 128,-1,36
 295 684 295 684 342 684 c 0,37,38
 398 684 398 684 436.5 669 c 128,-1,39
 475 654 475 654 498 629.5 c 128,-1,40
 521 605 521 605 533.5 561.5 c 128,-1,41
 546 518 546 518 549.5 474.5 c 128,-1,42
 553 431 553 431 553 365 c 128,-1,43
 553 299 553 299 549.5 255.5 c 128,-1,44
 546 212 546 212 533.5 168.5 c 128,-1,45
 521 125 521 125 498 100.5 c 128,-1,46
 475 76 475 76 436.5 61 c 128,-1,47
 398 46 398 46 342 46 c 0,24,25
407 782 m 1,48,-1
 235 932 l 1,49,-1
 288 985 l 1,50,-1
 449 824 l 1,51,-1
 407 782 l 1,48,-1
EndSplineSet
Validated: 9
Layer: 2
SplineSet
342 -14 m 0
 596 -14 625 128 625 365 c 0
 625 600 596 744 342 744 c 0
 87 744 60 600 60 365 c 0
 60 128 87 -14 342 -14 c 0
342 46 m 0
 152 46 132 168 132 365 c 0
 132 562 152 684 342 684 c 0
 531 684 553 562 553 365 c 0
 553 168 531 46 342 46 c 0
407 782 m 1
 235 932 l 1
 288 985 l 1
 449 824 l 1
 407 782 l 1
EndSplineSet
Position2: "'cpsp' Capital Spacing lookup 0 subtable" dx=5 dy=0 dh=10 dv=0
EndChar

StartChar: Oacute
Encoding: 145 211 147
Width: 685
GlyphClass: 2
Flags: W
HStem: -14 60<229.477 451.845> 684 60<229.242 451.845>
VStem: 60 72<157.859 572.807> 553 72<160.511 255.5 474.5 568.631>
LayerCount: 3
Fore
SplineSet
342 -14 m 256,0,1
 417 -14 417 -14 469 3.5 c 128,-1,2
 521 21 521 21 551.5 50 c 128,-1,3
 582 79 582 79 598.5 130 c 128,-1,4
 615 181 615 181 620 233.5 c 128,-1,5
 625 286 625 286 625 365 c 128,-1,6
 625 444 625 444 620 496 c 128,-1,7
 615 548 615 548 598.5 599 c 128,-1,8
 582 650 582 650 551.5 679 c 128,-1,9
 521 708 521 708 469 726 c 128,-1,10
 417 744 417 744 342 744 c 0,11,12
 279 744 279 744 232.5 733 c 128,-1,13
 186 722 186 722 155.5 697.5 c 128,-1,14
 125 673 125 673 105.5 643.5 c 128,-1,15
 86 614 86 614 76.5 567 c 128,-1,16
 67 520 67 520 63.5 475 c 128,-1,17
 60 430 60 430 60 365 c 0,18,19
 60 285 60 285 65 233.5 c 128,-1,20
 70 182 70 182 86 130.5 c 128,-1,21
 102 79 102 79 132.5 50 c 128,-1,22
 163 21 163 21 215 3.5 c 128,-1,23
 267 -14 267 -14 342 -14 c 256,0,1
342 46 m 0,24,25
 295 46 295 46 260.5 55.5 c 128,-1,26
 226 65 226 65 203 85.5 c 128,-1,27
 180 106 180 106 165.5 131 c 128,-1,28
 151 156 151 156 144 195.5 c 128,-1,29
 137 235 137 235 134.5 272.5 c 128,-1,30
 132 310 132 310 132 365 c 128,-1,31
 132 420 132 420 134.5 457.5 c 128,-1,32
 137 495 137 495 144 534.5 c 128,-1,33
 151 574 151 574 165.5 599 c 128,-1,34
 180 624 180 624 203 644.5 c 128,-1,35
 226 665 226 665 260.5 674.5 c 128,-1,36
 295 684 295 684 342 684 c 0,37,38
 398 684 398 684 436.5 669 c 128,-1,39
 475 654 475 654 498 629.5 c 128,-1,40
 521 605 521 605 533.5 561.5 c 128,-1,41
 546 518 546 518 549.5 474.5 c 128,-1,42
 553 431 553 431 553 365 c 128,-1,43
 553 299 553 299 549.5 255.5 c 128,-1,44
 546 212 546 212 533.5 168.5 c 128,-1,45
 521 125 521 125 498 100.5 c 128,-1,46
 475 76 475 76 436.5 61 c 128,-1,47
 398 46 398 46 342 46 c 0,24,25
297 782 m 1,48,-1
 469 932 l 1,49,-1
 416 985 l 1,50,-1
 255 824 l 1,51,-1
 297 782 l 1,48,-1
EndSplineSet
Validated: 9
Layer: 2
SplineSet
342 -14 m 0
 596 -14 625 128 625 365 c 0
 625 600 596 744 342 744 c 0
 87 744 60 600 60 365 c 0
 60 128 87 -14 342 -14 c 0
342 46 m 0
 152 46 132 168 132 365 c 0
 132 562 152 684 342 684 c 0
 531 684 553 562 553 365 c 0
 553 168 531 46 342 46 c 0
297 782 m 1
 469 932 l 1
 416 985 l 1
 255 824 l 1
 297 782 l 1
EndSplineSet
Position2: "'cpsp' Capital Spacing lookup 0 subtable" dx=5 dy=0 dh=10 dv=0
EndChar

StartChar: Ocircumflex
Encoding: 146 212 148
Width: 685
GlyphClass: 2
Flags: W
HStem: -14 60<229.477 451.845> 684 60<229.242 451.845>
VStem: 60 72<157.859 572.807> 553 72<160.511 255.5 474.5 568.631>
LayerCount: 3
Fore
SplineSet
342 -14 m 256,0,1
 417 -14 417 -14 469 3.5 c 128,-1,2
 521 21 521 21 551.5 50 c 128,-1,3
 582 79 582 79 598.5 130 c 128,-1,4
 615 181 615 181 620 233.5 c 128,-1,5
 625 286 625 286 625 365 c 128,-1,6
 625 444 625 444 620 496 c 128,-1,7
 615 548 615 548 598.5 599 c 128,-1,8
 582 650 582 650 551.5 679 c 128,-1,9
 521 708 521 708 469 726 c 128,-1,10
 417 744 417 744 342 744 c 0,11,12
 279 744 279 744 232.5 733 c 128,-1,13
 186 722 186 722 155.5 697.5 c 128,-1,14
 125 673 125 673 105.5 643.5 c 128,-1,15
 86 614 86 614 76.5 567 c 128,-1,16
 67 520 67 520 63.5 475 c 128,-1,17
 60 430 60 430 60 365 c 0,18,19
 60 285 60 285 65 233.5 c 128,-1,20
 70 182 70 182 86 130.5 c 128,-1,21
 102 79 102 79 132.5 50 c 128,-1,22
 163 21 163 21 215 3.5 c 128,-1,23
 267 -14 267 -14 342 -14 c 256,0,1
342 46 m 0,24,25
 295 46 295 46 260.5 55.5 c 128,-1,26
 226 65 226 65 203 85.5 c 128,-1,27
 180 106 180 106 165.5 131 c 128,-1,28
 151 156 151 156 144 195.5 c 128,-1,29
 137 235 137 235 134.5 272.5 c 128,-1,30
 132 310 132 310 132 365 c 128,-1,31
 132 420 132 420 134.5 457.5 c 128,-1,32
 137 495 137 495 144 534.5 c 128,-1,33
 151 574 151 574 165.5 599 c 128,-1,34
 180 624 180 624 203 644.5 c 128,-1,35
 226 665 226 665 260.5 674.5 c 128,-1,36
 295 684 295 684 342 684 c 0,37,38
 398 684 398 684 436.5 669 c 128,-1,39
 475 654 475 654 498 629.5 c 128,-1,40
 521 605 521 605 533.5 561.5 c 128,-1,41
 546 518 546 518 549.5 474.5 c 128,-1,42
 553 431 553 431 553 365 c 128,-1,43
 553 299 553 299 549.5 255.5 c 128,-1,44
 546 212 546 212 533.5 168.5 c 128,-1,45
 521 125 521 125 498 100.5 c 128,-1,46
 475 76 475 76 436.5 61 c 128,-1,47
 398 46 398 46 342 46 c 0,24,25
234 782 m 1,48,-1
 342 892 l 1,49,-1
 451 782 l 1,50,-1
 493 824 l 1,51,-1
 357 979 l 1,52,-1
 328 979 l 1,53,-1
 192 824 l 1,54,-1
 234 782 l 1,48,-1
EndSplineSet
Validated: 9
Layer: 2
SplineSet
342 -14 m 0
 596 -14 625 128 625 365 c 0
 625 600 596 744 342 744 c 0
 87 744 60 600 60 365 c 0
 60 128 87 -14 342 -14 c 0
342 46 m 0
 152 46 132 168 132 365 c 0
 132 562 152 684 342 684 c 0
 531 684 553 562 553 365 c 0
 553 168 531 46 342 46 c 0
234 782 m 1
 342 892 l 1
 451 782 l 1
 493 824 l 1
 357 979 l 1
 328 979 l 1
 192 824 l 1
 234 782 l 1
EndSplineSet
Position2: "'cpsp' Capital Spacing lookup 0 subtable" dx=5 dy=0 dh=10 dv=0
EndChar

StartChar: Otilde
Encoding: 147 213 149
Width: 685
GlyphClass: 2
Flags: W
HStem: -14 60<229.477 451.845> 684 60<229.242 451.845> 835 65<333.459 439.03> 871 65<246.294 351.509>
VStem: 60 72<157.859 572.807> 181 51<840.804 860.684> 453 50<910.316 930.24> 553 72<160.511 255.5 474.5 568.631>
LayerCount: 3
Fore
SplineSet
342 -14 m 256,0,1
 417 -14 417 -14 469 3.5 c 128,-1,2
 521 21 521 21 551.5 50 c 128,-1,3
 582 79 582 79 598.5 130 c 128,-1,4
 615 181 615 181 620 233.5 c 128,-1,5
 625 286 625 286 625 365 c 128,-1,6
 625 444 625 444 620 496 c 128,-1,7
 615 548 615 548 598.5 599 c 128,-1,8
 582 650 582 650 551.5 679 c 128,-1,9
 521 708 521 708 469 726 c 128,-1,10
 417 744 417 744 342 744 c 0,11,12
 279 744 279 744 232.5 733 c 128,-1,13
 186 722 186 722 155.5 697.5 c 128,-1,14
 125 673 125 673 105.5 643.5 c 128,-1,15
 86 614 86 614 76.5 567 c 128,-1,16
 67 520 67 520 63.5 475 c 128,-1,17
 60 430 60 430 60 365 c 0,18,19
 60 285 60 285 65 233.5 c 128,-1,20
 70 182 70 182 86 130.5 c 128,-1,21
 102 79 102 79 132.5 50 c 128,-1,22
 163 21 163 21 215 3.5 c 128,-1,23
 267 -14 267 -14 342 -14 c 256,0,1
342 46 m 0,24,25
 295 46 295 46 260.5 55.5 c 128,-1,26
 226 65 226 65 203 85.5 c 128,-1,27
 180 106 180 106 165.5 131 c 128,-1,28
 151 156 151 156 144 195.5 c 128,-1,29
 137 235 137 235 134.5 272.5 c 128,-1,30
 132 310 132 310 132 365 c 128,-1,31
 132 420 132 420 134.5 457.5 c 128,-1,32
 137 495 137 495 144 534.5 c 128,-1,33
 151 574 151 574 165.5 599 c 128,-1,34
 180 624 180 624 203 644.5 c 128,-1,35
 226 665 226 665 260.5 674.5 c 128,-1,36
 295 684 295 684 342 684 c 0,37,38
 398 684 398 684 436.5 669 c 128,-1,39
 475 654 475 654 498 629.5 c 128,-1,40
 521 605 521 605 533.5 561.5 c 128,-1,41
 546 518 546 518 549.5 474.5 c 128,-1,42
 553 431 553 431 553 365 c 128,-1,43
 553 299 553 299 549.5 255.5 c 128,-1,44
 546 212 546 212 533.5 168.5 c 128,-1,45
 521 125 521 125 498 100.5 c 128,-1,46
 475 76 475 76 436.5 61 c 128,-1,47
 398 46 398 46 342 46 c 0,24,25
415 835 m 0,48,49
 476 835 476 835 503 928 c 1,50,-1
 453 944 l 1,51,52
 445 920 445 920 435 910 c 128,-1,53
 425 900 425 900 407 900 c 0,54,55
 394 900 394 900 344 918 c 128,-1,56
 294 936 294 936 269 936 c 0,57,58
 208 936 208 936 181 843 c 1,59,-1
 232 827 l 1,60,61
 240 851 240 851 250 861 c 128,-1,62
 260 871 260 871 278 871 c 0,63,64
 292 871 292 871 341 853 c 128,-1,65
 390 835 390 835 415 835 c 0,48,49
EndSplineSet
Validated: 9
Layer: 2
SplineSet
342 -14 m 0
 596 -14 625 128 625 365 c 0
 625 600 596 744 342 744 c 0
 87 744 60 600 60 365 c 0
 60 128 87 -14 342 -14 c 0
342 46 m 0
 152 46 132 168 132 365 c 0
 132 562 152 684 342 684 c 0
 531 684 553 562 553 365 c 0
 553 168 531 46 342 46 c 0
415 835 m 0
 453 835 483 858 503 928 c 1
 453 944 l 1
 443 914 432 900 407 900 c 0
 376 900 316 936 269 936 c 0
 231 936 201 913 181 843 c 1
 232 827 l 1
 242 857 253 871 278 871 c 0
 309 871 368 835 415 835 c 0
EndSplineSet
Position2: "'cpsp' Capital Spacing lookup 0 subtable" dx=5 dy=0 dh=10 dv=0
EndChar

StartChar: Odieresis
Encoding: 148 214 150
Width: 685
GlyphClass: 2
Flags: W
HStem: -14 60<229.477 451.845> 684 60<229.242 451.845> 830 107<196.893 272.745 406.893 482.745>
VStem: 60 72<157.859 572.807> 193 88<834.254 922.56> 403 88<834.254 922.56> 553 72<160.511 255.5 474.5 568.631>
LayerCount: 3
Fore
SplineSet
342 -14 m 256,0,1
 417 -14 417 -14 469 3.5 c 128,-1,2
 521 21 521 21 551.5 50 c 128,-1,3
 582 79 582 79 598.5 130 c 128,-1,4
 615 181 615 181 620 233.5 c 128,-1,5
 625 286 625 286 625 365 c 128,-1,6
 625 444 625 444 620 496 c 128,-1,7
 615 548 615 548 598.5 599 c 128,-1,8
 582 650 582 650 551.5 679 c 128,-1,9
 521 708 521 708 469 726 c 128,-1,10
 417 744 417 744 342 744 c 0,11,12
 279 744 279 744 232.5 733 c 128,-1,13
 186 722 186 722 155.5 697.5 c 128,-1,14
 125 673 125 673 105.5 643.5 c 128,-1,15
 86 614 86 614 76.5 567 c 128,-1,16
 67 520 67 520 63.5 475 c 128,-1,17
 60 430 60 430 60 365 c 0,18,19
 60 285 60 285 65 233.5 c 128,-1,20
 70 182 70 182 86 130.5 c 128,-1,21
 102 79 102 79 132.5 50 c 128,-1,22
 163 21 163 21 215 3.5 c 128,-1,23
 267 -14 267 -14 342 -14 c 256,0,1
342 46 m 0,24,25
 295 46 295 46 260.5 55.5 c 128,-1,26
 226 65 226 65 203 85.5 c 128,-1,27
 180 106 180 106 165.5 131 c 128,-1,28
 151 156 151 156 144 195.5 c 128,-1,29
 137 235 137 235 134.5 272.5 c 128,-1,30
 132 310 132 310 132 365 c 128,-1,31
 132 420 132 420 134.5 457.5 c 128,-1,32
 137 495 137 495 144 534.5 c 128,-1,33
 151 574 151 574 165.5 599 c 128,-1,34
 180 624 180 624 203 644.5 c 128,-1,35
 226 665 226 665 260.5 674.5 c 128,-1,36
 295 684 295 684 342 684 c 0,37,38
 398 684 398 684 436.5 669 c 128,-1,39
 475 654 475 654 498 629.5 c 128,-1,40
 521 605 521 605 533.5 561.5 c 128,-1,41
 546 518 546 518 549.5 474.5 c 128,-1,42
 553 431 553 431 553 365 c 128,-1,43
 553 299 553 299 549.5 255.5 c 128,-1,44
 546 212 546 212 533.5 168.5 c 128,-1,45
 521 125 521 125 498 100.5 c 128,-1,46
 475 76 475 76 436.5 61 c 128,-1,47
 398 46 398 46 342 46 c 0,24,25
236 830 m 0,48,49
 217 830 217 830 207 839 c 128,-1,50
 197 848 197 848 195 857.5 c 128,-1,51
 193 867 193 867 193 883 c 0,52,53
 193 900 193 900 195 909.5 c 128,-1,54
 197 919 197 919 207 928 c 128,-1,55
 217 937 217 937 236 937 c 0,56,57
 265 937 265 937 273 923 c 128,-1,58
 281 909 281 909 281 883 c 0,59,60
 281 867 281 867 279 857.5 c 128,-1,61
 277 848 277 848 266.5 839 c 128,-1,62
 256 830 256 830 236 830 c 0,48,49
446 830 m 0,63,64
 427 830 427 830 417 839 c 128,-1,65
 407 848 407 848 405 857.5 c 128,-1,66
 403 867 403 867 403 883 c 0,67,68
 403 900 403 900 405 909.5 c 128,-1,69
 407 919 407 919 417 928 c 128,-1,70
 427 937 427 937 446 937 c 0,71,72
 475 937 475 937 483 923 c 128,-1,73
 491 909 491 909 491 883 c 0,74,75
 491 867 491 867 489 857.5 c 128,-1,76
 487 848 487 848 476.5 839 c 128,-1,77
 466 830 466 830 446 830 c 0,63,64
EndSplineSet
Validated: 9
Layer: 2
SplineSet
342 -14 m 0
 596 -14 625 128 625 365 c 0
 625 600 596 744 342 744 c 0
 87 744 60 600 60 365 c 0
 60 128 87 -14 342 -14 c 0
342 46 m 0
 152 46 132 168 132 365 c 0
 132 562 152 684 342 684 c 0
 531 684 553 562 553 365 c 0
 553 168 531 46 342 46 c 0
236 830 m 0
 195 830 193 858 193 883 c 0
 193 909 195 937 236 937 c 0
 279 937 281 909 281 883 c 0
 281 858 279 830 236 830 c 0
446 830 m 0
 405 830 403 858 403 883 c 0
 403 909 405 937 446 937 c 0
 489 937 491 909 491 883 c 0
 491 858 489 830 446 830 c 0
EndSplineSet
Position2: "'cpsp' Capital Spacing lookup 0 subtable" dx=5 dy=0 dh=10 dv=0
EndChar

StartChar: multiply
Encoding: 149 215 151
Width: 580
GlyphClass: 2
Flags: W
LayerCount: 3
Fore
SplineSet
155 141 m 1,0,-1
 290 276 l 1,1,-1
 425 141 l 1,2,-1
 467 183 l 1,3,-1
 332 318 l 1,4,-1
 467 453 l 1,5,-1
 425 495 l 1,6,-1
 290 360 l 1,7,-1
 155 495 l 1,8,-1
 113 453 l 1,9,-1
 248 318 l 1,10,-1
 113 183 l 1,11,-1
 155 141 l 1,0,-1
EndSplineSet
Validated: 9
Layer: 2
SplineSet
155 141 m 1
 290 276 l 1
 425 141 l 1
 467 183 l 1
 332 318 l 1
 467 453 l 1
 425 495 l 1
 290 360 l 1
 155 495 l 1
 113 453 l 1
 248 318 l 1
 113 183 l 1
 155 141 l 1
EndSplineSet
EndChar

StartChar: Oslash
Encoding: 150 216 152
Width: 685
GlyphClass: 2
Flags: W
HStem: -14 60<294 451.845> 684 60<229.242 389>
VStem: 60 72<158.514 365 457.5 572.807> 553 72<160.511 255.5 365 567.735>
LayerCount: 3
Fore
SplineSet
209 -94 m 1,0,-1
 261 -94 l 1,1,-1
 280 -11 l 1,2,3
 308 -14 308 -14 342 -14 c 0,4,5
 417 -14 417 -14 469 3.5 c 128,-1,6
 521 21 521 21 551.5 50 c 128,-1,7
 582 79 582 79 598.5 130 c 128,-1,8
 615 181 615 181 620 233.5 c 128,-1,9
 625 286 625 286 625 365 c 0,10,11
 625 446 625 446 619 500 c 128,-1,12
 613 554 613 554 596 604.5 c 128,-1,13
 579 655 579 655 543.5 686 c 128,-1,14
 508 717 508 717 453 731 c 1,15,-1
 476 827 l 1,16,-1
 423 827 l 1,17,-1
 403 740 l 1,18,19
 365 744 365 744 342 744 c 0,20,21
 279 744 279 744 232.5 733 c 128,-1,22
 186 722 186 722 155.5 697.5 c 128,-1,23
 125 673 125 673 105.5 643.5 c 128,-1,24
 86 614 86 614 76.5 567 c 128,-1,25
 67 520 67 520 63.5 475 c 128,-1,26
 60 430 60 430 60 365 c 0,27,28
 60 282 60 282 65.5 228.5 c 128,-1,29
 71 175 71 175 88 124 c 128,-1,30
 105 73 105 73 140 43 c 128,-1,31
 175 13 175 13 230 -1 c 1,32,-1
 209 -94 l 1,0,-1
342 46 m 0,33,34
 316 46 316 46 294 49 c 1,35,-1
 439 668 l 1,36,37
 508 642 508 642 530.5 570 c 128,-1,38
 553 498 553 498 553 365 c 0,39,40
 553 299 553 299 549.5 255.5 c 128,-1,41
 546 212 546 212 533.5 168.5 c 128,-1,42
 521 125 521 125 498 100.5 c 128,-1,43
 475 76 475 76 436.5 61 c 128,-1,44
 398 46 398 46 342 46 c 0,33,34
132 365 m 0,45,46
 132 420 132 420 134.5 457.5 c 128,-1,47
 137 495 137 495 144 534.5 c 128,-1,48
 151 574 151 574 165.5 599 c 128,-1,49
 180 624 180 624 203 644.5 c 128,-1,50
 226 665 226 665 260.5 674.5 c 128,-1,51
 295 684 295 684 342 684 c 0,52,53
 366 684 366 684 389 681 c 1,54,-1
 245 61 l 1,55,56
 175 87 175 87 153.5 158.5 c 128,-1,57
 132 230 132 230 132 365 c 0,45,46
EndSplineSet
Validated: 9
Layer: 2
SplineSet
209 -94 m 1
 261 -94 l 1
 280 -11 l 1
 299 -13 320 -14 342 -14 c 0
 596 -14 625 128 625 365 c 0
 625 559 605 692 453 731 c 1
 476 827 l 1
 423 827 l 1
 403 740 l 1
 384 742 364 744 342 744 c 0
 87 744 60 600 60 365 c 0
 60 168 78 37 230 -1 c 1
 209 -94 l 1
342 46 m 0
 325 46 309 47 294 49 c 1
 439 668 l 1
 539 630 553 521 553 365 c 0
 553 168 531 46 342 46 c 0
132 365 m 0
 132 562 152 684 342 684 c 0
 359 684 374 683 389 681 c 1
 245 61 l 1
 144 99 132 208 132 365 c 0
EndSplineSet
Position2: "'cpsp' Capital Spacing lookup 0 subtable" dx=5 dy=0 dh=10 dv=0
EndChar

StartChar: Ugrave
Encoding: 151 217 153
Width: 750
GlyphClass: 2
Flags: W
HStem: -14 61<262.51 303.5 445.5 486.657>
VStem: 115 72<123.021 241> 563 72<123.021 241>
LayerCount: 3
Fore
SplineSet
55 680 m 1,0,-1
 115 680 l 1,1,-1
 115 241 l 2,2,3
 115 174 115 174 130 126 c 128,-1,4
 145 78 145 78 167.5 51.5 c 128,-1,5
 190 25 190 25 226 9.5 c 128,-1,6
 262 -6 262 -6 295 -10 c 128,-1,7
 328 -14 328 -14 374 -14 c 128,-1,8
 420 -14 420 -14 453.5 -10 c 128,-1,9
 487 -6 487 -6 523.5 9.5 c 128,-1,10
 560 25 560 25 582.5 51.5 c 128,-1,11
 605 78 605 78 620 126 c 128,-1,12
 635 174 635 174 635 241 c 2,13,-1
 635 680 l 1,14,-1
 695 680 l 1,15,-1
 695 730 l 1,16,-1
 503 730 l 1,17,-1
 503 680 l 1,18,-1
 563 680 l 1,19,-1
 563 241 l 2,20,21
 563 179 563 179 548 138 c 128,-1,22
 533 97 533 97 504 78.5 c 128,-1,23
 475 60 475 60 445.5 53.5 c 128,-1,24
 416 47 416 47 374 47 c 0,25,26
 333 47 333 47 303.5 53.5 c 128,-1,27
 274 60 274 60 245.5 78.5 c 128,-1,28
 217 97 217 97 202 138 c 128,-1,29
 187 179 187 179 187 241 c 2,30,-1
 187 680 l 1,31,-1
 247 680 l 1,32,-1
 247 730 l 1,33,-1
 55 730 l 1,34,-1
 55 680 l 1,0,-1
410 782 m 1,35,-1
 238 932 l 1,36,-1
 291 985 l 1,37,-1
 452 824 l 1,38,-1
 410 782 l 1,35,-1
EndSplineSet
Validated: 9
Layer: 2
SplineSet
55 680 m 1
 115 680 l 1
 115 241 l 2
 115 10 241 -14 374 -14 c 0
 509 -14 635 10 635 241 c 2
 635 680 l 1
 695 680 l 1
 695 730 l 1
 503 730 l 1
 503 680 l 1
 563 680 l 1
 563 241 l 2
 563 68 472 47 374 47 c 0
 278 47 187 68 187 241 c 2
 187 680 l 1
 247 680 l 1
 247 730 l 1
 55 730 l 1
 55 680 l 1
410 782 m 1
 238 932 l 1
 291 985 l 1
 452 824 l 1
 410 782 l 1
EndSplineSet
Position2: "'cpsp' Capital Spacing lookup 0 subtable" dx=5 dy=0 dh=10 dv=0
EndChar

StartChar: Uacute
Encoding: 152 218 154
Width: 750
GlyphClass: 2
Flags: W
HStem: -14 61<262.51 303.5 445.5 486.657>
VStem: 115 72<123.021 241> 563 72<123.021 241>
LayerCount: 3
Fore
SplineSet
55 680 m 1,0,-1
 115 680 l 1,1,-1
 115 241 l 2,2,3
 115 174 115 174 130 126 c 128,-1,4
 145 78 145 78 167.5 51.5 c 128,-1,5
 190 25 190 25 226 9.5 c 128,-1,6
 262 -6 262 -6 295 -10 c 128,-1,7
 328 -14 328 -14 374 -14 c 128,-1,8
 420 -14 420 -14 453.5 -10 c 128,-1,9
 487 -6 487 -6 523.5 9.5 c 128,-1,10
 560 25 560 25 582.5 51.5 c 128,-1,11
 605 78 605 78 620 126 c 128,-1,12
 635 174 635 174 635 241 c 2,13,-1
 635 680 l 1,14,-1
 695 680 l 1,15,-1
 695 730 l 1,16,-1
 503 730 l 1,17,-1
 503 680 l 1,18,-1
 563 680 l 1,19,-1
 563 241 l 2,20,21
 563 179 563 179 548 138 c 128,-1,22
 533 97 533 97 504 78.5 c 128,-1,23
 475 60 475 60 445.5 53.5 c 128,-1,24
 416 47 416 47 374 47 c 0,25,26
 333 47 333 47 303.5 53.5 c 128,-1,27
 274 60 274 60 245.5 78.5 c 128,-1,28
 217 97 217 97 202 138 c 128,-1,29
 187 179 187 179 187 241 c 2,30,-1
 187 680 l 1,31,-1
 247 680 l 1,32,-1
 247 730 l 1,33,-1
 55 730 l 1,34,-1
 55 680 l 1,0,-1
360 782 m 1,35,-1
 532 932 l 1,36,-1
 479 985 l 1,37,-1
 318 824 l 1,38,-1
 360 782 l 1,35,-1
EndSplineSet
Validated: 9
Layer: 2
SplineSet
55 680 m 1
 115 680 l 1
 115 241 l 2
 115 10 241 -14 374 -14 c 0
 509 -14 635 10 635 241 c 2
 635 680 l 1
 695 680 l 1
 695 730 l 1
 503 730 l 1
 503 680 l 1
 563 680 l 1
 563 241 l 2
 563 68 472 47 374 47 c 0
 278 47 187 68 187 241 c 2
 187 680 l 1
 247 680 l 1
 247 730 l 1
 55 730 l 1
 55 680 l 1
360 782 m 1
 532 932 l 1
 479 985 l 1
 318 824 l 1
 360 782 l 1
EndSplineSet
Position2: "'cpsp' Capital Spacing lookup 0 subtable" dx=5 dy=0 dh=10 dv=0
EndChar

